<svg width="120" height="72" viewBox="0 0 120 72" fill="none" xmlns="http://www.w3.org/2000/svg">
<path d="M0 8.79981C0 4.38153 3.58172 0.799805 8 0.799805H112C116.418 0.799805 120 4.38153 120 8.7998V63.1998C120 67.6181 116.418 71.1998 112 71.1998H8C3.58172 71.1998 0 67.6181 0 63.1998V8.79981Z" fill="#525252"/>
<path d="M9.61927 42.4002C11.471 40.5186 13.263 38.6967 14.9953 36.9346C16.7275 35.1724 18.2806 33.4551 19.6545 31.7826C21.0582 30.11 22.1483 28.4972 22.9249 26.9442C23.7313 25.3911 24.1345 23.8828 24.1345 22.4194C24.1345 21.5234 23.9851 20.7468 23.6865 20.0898C23.4177 19.4028 23.0294 18.8503 22.5217 18.4322C22.0139 17.9842 21.4465 17.6556 20.8193 17.4466C20.1921 17.2076 19.5201 17.0882 18.8033 17.0882C17.8774 17.0882 17.0859 17.2375 16.4289 17.5362C15.7718 17.8348 15.2342 18.2231 14.8161 18.701C14.4278 19.149 14.1291 19.6418 13.9201 20.1794C13.711 20.717 13.6065 21.2546 13.6065 21.7922C13.6065 22.7778 13.7558 23.6588 14.0545 24.4354C14.383 25.2119 14.8161 25.8839 15.3537 26.4514L12.4417 29.1394C11.695 28.6914 11.0529 28.0492 10.5153 27.213C10.0075 26.3468 9.61927 25.4359 9.35047 24.4802C9.08167 23.5244 8.94727 22.6732 8.94727 21.9266C8.94727 20.2839 9.35047 18.7607 10.1569 17.357C10.9931 15.9234 12.2027 14.7586 13.7857 13.8626C15.3985 12.9666 17.3398 12.5186 19.6097 12.5186C21.5211 12.5186 23.1787 12.9516 24.5825 13.8178C26.0161 14.6839 27.1211 15.8487 27.8977 17.3122C28.7041 18.7458 29.1073 20.3138 29.1073 22.0162C29.1073 23.4796 28.8235 24.9132 28.2561 26.317C27.6886 27.7207 26.927 29.1095 25.9713 30.4834C25.0454 31.8274 24.0001 33.1714 22.8353 34.5154C21.7003 35.8295 20.5654 37.1586 19.4305 38.5026L17.2801 37.7858H29.9585V42.4002H9.61927Z" fill="#85D71B"/>
<path d="M46.7402 42.5346C44.9482 42.5346 43.2906 42.206 41.7674 41.549C40.274 40.862 38.9748 39.8764 37.8698 38.5922C36.7647 37.3079 35.8986 35.7399 35.2714 33.8882C34.6442 32.0066 34.3306 29.886 34.3306 27.5266C34.3306 24.958 34.6292 22.733 35.2266 20.8514C35.8239 18.9698 36.6602 17.4167 37.7354 16.1922C38.8404 14.9378 40.1546 14.0268 41.6778 13.4594C43.201 12.862 44.8884 12.5634 46.7402 12.5634C48.562 12.5634 50.2196 12.8919 51.713 13.549C53.2362 14.206 54.5503 15.1767 55.6554 16.461C56.7604 17.7452 57.6116 19.3282 58.209 21.2098C58.8362 23.0615 59.1498 25.1671 59.1498 27.5266C59.1498 29.9458 58.8362 32.0962 58.209 33.9778C57.6116 35.8295 56.7455 37.3975 55.6106 38.6818C54.5055 39.9362 53.2063 40.8919 51.713 41.549C50.2196 42.206 48.562 42.5346 46.7402 42.5346ZM46.6954 37.9202C48.3978 37.9202 49.8015 37.4871 50.9066 36.621C52.0116 35.725 52.833 34.4855 53.3706 32.9026C53.9082 31.2898 54.177 29.453 54.177 27.3922C54.177 25.3911 53.9082 23.629 53.3706 22.1058C52.833 20.5527 52.0116 19.3431 50.9066 18.477C49.8015 17.581 48.3978 17.1479 46.6954 17.1778C45.0527 17.1479 43.6788 17.581 42.5738 18.477C41.4687 19.3431 40.6474 20.5527 40.1098 22.1058C39.5722 23.6588 39.3034 25.4658 39.3034 27.5266C39.3034 29.5276 39.5722 31.3196 40.1098 32.9026C40.6474 34.4855 41.4687 35.725 42.5738 36.621C43.6788 37.4871 45.0527 37.9202 46.6954 37.9202Z" fill="#85D71B"/>
<path d="M75.4964 42.5346C73.7044 42.5346 72.0468 42.206 70.5236 41.549C69.0303 40.862 67.7311 39.8764 66.626 38.5922C65.521 37.3079 64.6548 35.7399 64.0276 33.8882C63.4004 32.0066 63.0868 29.886 63.0868 27.5266C63.0868 24.958 63.3855 22.733 63.9828 20.8514C64.5802 18.9698 65.4164 17.4167 66.4916 16.1922C67.5967 14.9378 68.9108 14.0268 70.434 13.4594C71.9572 12.862 73.6447 12.5634 75.4964 12.5634C77.3183 12.5634 78.9759 12.8919 80.4692 13.549C81.9924 14.206 83.3066 15.1767 84.4116 16.461C85.5167 17.7452 86.3679 19.3282 86.9652 21.2098C87.5924 23.0615 87.906 25.1671 87.906 27.5266C87.906 29.9458 87.5924 32.0962 86.9652 33.9778C86.3679 35.8295 85.5018 37.3975 84.3668 38.6818C83.2618 39.9362 81.9626 40.8919 80.4692 41.549C78.9759 42.206 77.3183 42.5346 75.4964 42.5346ZM75.4516 37.9202C77.154 37.9202 78.5578 37.4871 79.6628 36.621C80.7679 35.725 81.5892 34.4855 82.1268 32.9026C82.6644 31.2898 82.9332 29.453 82.9332 27.3922C82.9332 25.3911 82.6644 23.629 82.1268 22.1058C81.5892 20.5527 80.7679 19.3431 79.6628 18.477C78.5578 17.581 77.154 17.1479 75.4516 17.1778C73.809 17.1479 72.4351 17.581 71.33 18.477C70.225 19.3431 69.4036 20.5527 68.866 22.1058C68.3284 23.6588 68.0596 25.4658 68.0596 27.5266C68.0596 29.5276 68.3284 31.3196 68.866 32.9026C69.4036 34.4855 70.225 35.725 71.33 36.621C72.4351 37.4871 73.809 37.9202 75.4516 37.9202Z" fill="#85D71B"/>
<path d="M100.265 23.7186H104.477V29.901H110.525V33.933H104.477V40.0706H100.265V33.933H94.2175V29.901H100.265V23.7186Z" fill="#85D71B"/>
<path d="M19.5073 51.1036V52.294H17.1393V59.9996H15.6801V52.294H13.2993V51.1036H19.5073Z" fill="white"/>
<path d="M24.8443 60.1148C24.1787 60.1148 23.5771 59.9654 23.0395 59.6668C22.5019 59.3596 22.0795 58.9329 21.7723 58.3868C21.4651 57.8321 21.3115 57.1921 21.3115 56.4668C21.3115 55.75 21.4694 55.1142 21.7851 54.5596C22.1009 54.0049 22.5318 53.5782 23.0779 53.2796C23.6241 52.9809 24.2342 52.8316 24.9083 52.8316C25.5825 52.8316 26.1926 52.9809 26.7387 53.2796C27.2848 53.5782 27.7158 54.0049 28.0315 54.5596C28.3472 55.1142 28.5051 55.75 28.5051 56.4668C28.5051 57.1836 28.343 57.8193 28.0187 58.374C27.6945 58.9286 27.2507 59.3596 26.6875 59.6668C26.1329 59.9654 25.5185 60.1148 24.8443 60.1148ZM24.8443 58.8476C25.2198 58.8476 25.5697 58.758 25.8939 58.5788C26.2267 58.3996 26.4955 58.1308 26.7003 57.7724C26.9051 57.414 27.0075 56.9788 27.0075 56.4668C27.0075 55.9548 26.9094 55.5238 26.7131 55.174C26.5168 54.8156 26.2566 54.5468 25.9323 54.3676C25.6081 54.1884 25.2582 54.0988 24.8827 54.0988C24.5073 54.0988 24.1574 54.1884 23.8331 54.3676C23.5174 54.5468 23.2657 54.8156 23.0779 55.174C22.8902 55.5238 22.7963 55.9548 22.7963 56.4668C22.7963 57.2262 22.9883 57.815 23.3723 58.2332C23.7649 58.6428 24.2555 58.8476 24.8443 58.8476Z" fill="white"/>
<path d="M32.45 54.1372V58.0412C32.45 58.3057 32.5097 58.4977 32.6292 58.6172C32.7572 58.7281 32.9706 58.7836 33.2692 58.7836H34.1652V59.9996H33.0132C32.3561 59.9996 31.8527 59.846 31.5028 59.5388C31.153 59.2316 30.978 58.7324 30.978 58.0412V54.1372H30.146V52.9468H30.978V51.1932H32.45V52.9468H34.1652V54.1372H32.45Z" fill="white"/>
<path d="M35.8237 56.4412C35.8237 55.7329 35.9688 55.1057 36.2589 54.5596C36.5576 54.0134 36.9586 53.591 37.4621 53.2924C37.9741 52.9852 38.5373 52.8316 39.1517 52.8316C39.7064 52.8316 40.1885 52.9425 40.5981 53.1644C41.0163 53.3777 41.349 53.6465 41.5965 53.9708V52.9468H43.0685V59.9996H41.5965V58.95C41.349 59.2828 41.012 59.5601 40.5853 59.782C40.1586 60.0038 39.6723 60.1148 39.1261 60.1148C38.5203 60.1148 37.9656 59.9612 37.4621 59.654C36.9586 59.3382 36.5576 58.903 36.2589 58.3484C35.9688 57.7852 35.8237 57.1494 35.8237 56.4412ZM41.5965 56.4668C41.5965 55.9804 41.4941 55.558 41.2893 55.1996C41.093 54.8412 40.8328 54.5681 40.5085 54.3804C40.1843 54.1926 39.8344 54.0988 39.4589 54.0988C39.0835 54.0988 38.7336 54.1926 38.4093 54.3804C38.0851 54.5596 37.8205 54.8284 37.6157 55.1868C37.4195 55.5366 37.3213 55.9548 37.3213 56.4412C37.3213 56.9276 37.4195 57.3542 37.6157 57.7212C37.8205 58.0881 38.0851 58.3697 38.4093 58.566C38.7421 58.7537 39.092 58.8476 39.4589 58.8476C39.8344 58.8476 40.1843 58.7537 40.5085 58.566C40.8328 58.3782 41.093 58.1052 41.2893 57.7468C41.4941 57.3798 41.5965 56.9532 41.5965 56.4668Z" fill="white"/>
<path d="M47.2443 50.5276V59.9996H45.7851V50.5276H47.2443Z" fill="white"/>
<path d="M60.3059 53.7532C60.3059 54.2054 60.1993 54.6321 59.9859 55.0332C59.7726 55.4342 59.4313 55.7628 58.9619 56.0188C58.4926 56.2662 57.891 56.39 57.1571 56.39H55.5443V59.9996H54.0851V51.1036H57.1571C57.8398 51.1036 58.4158 51.223 58.8851 51.462C59.363 51.6924 59.7171 52.0081 59.9475 52.4092C60.1864 52.8102 60.3059 53.2582 60.3059 53.7532ZM57.1571 55.1996C57.7118 55.1996 58.1256 55.0758 58.3987 54.8284C58.6718 54.5724 58.8083 54.214 58.8083 53.7532C58.8083 52.7804 58.2579 52.294 57.1571 52.294H55.5443V55.1996H57.1571Z" fill="white"/>
<path d="M63.9568 53.9708C64.1702 53.6124 64.4518 53.335 64.8016 53.1388C65.16 52.934 65.5824 52.8316 66.0688 52.8316V54.342H65.6976C65.1259 54.342 64.6907 54.487 64.392 54.7772C64.1019 55.0673 63.9568 55.5708 63.9568 56.2876V59.9996H62.4976V52.9468H63.9568V53.9708Z" fill="white"/>
<path d="M71.2693 60.1148C70.6037 60.1148 70.0021 59.9654 69.4645 59.6668C68.9269 59.3596 68.5045 58.9329 68.1973 58.3868C67.8901 57.8321 67.7365 57.1921 67.7365 56.4668C67.7365 55.75 67.8944 55.1142 68.2101 54.5596C68.5258 54.0049 68.9568 53.5782 69.5029 53.2796C70.0491 52.9809 70.6592 52.8316 71.3333 52.8316C72.0075 52.8316 72.6176 52.9809 73.1637 53.2796C73.7098 53.5782 74.1408 54.0049 74.4565 54.5596C74.7723 55.1142 74.9301 55.75 74.9301 56.4668C74.9301 57.1836 74.768 57.8193 74.4437 58.374C74.1195 58.9286 73.6757 59.3596 73.1125 59.6668C72.5579 59.9654 71.9435 60.1148 71.2693 60.1148ZM71.2693 58.8476C71.6448 58.8476 71.9946 58.758 72.3189 58.5788C72.6517 58.3996 72.9205 58.1308 73.1253 57.7724C73.3301 57.414 73.4325 56.9788 73.4325 56.4668C73.4325 55.9548 73.3344 55.5238 73.1381 55.174C72.9419 54.8156 72.6816 54.5468 72.3573 54.3676C72.0331 54.1884 71.6832 54.0988 71.3077 54.0988C70.9322 54.0988 70.5824 54.1884 70.2581 54.3676C69.9424 54.5468 69.6907 54.8156 69.5029 55.174C69.3152 55.5238 69.2213 55.9548 69.2213 56.4668C69.2213 57.2262 69.4133 57.815 69.7973 58.2332C70.1898 58.6428 70.6805 58.8476 71.2693 58.8476Z" fill="white"/>
<path d="M77.915 52.0124C77.6505 52.0124 77.4286 51.9228 77.2494 51.7436C77.0702 51.5644 76.9806 51.3425 76.9806 51.078C76.9806 50.8134 77.0702 50.5916 77.2494 50.4124C77.4286 50.2332 77.6505 50.1436 77.915 50.1436C78.171 50.1436 78.3886 50.2332 78.5678 50.4124C78.747 50.5916 78.8366 50.8134 78.8366 51.078C78.8366 51.3425 78.747 51.5644 78.5678 51.7436C78.3886 51.9228 78.171 52.0124 77.915 52.0124ZM78.6318 61.382C78.6318 62.0732 78.4569 62.5724 78.107 62.8796C77.7657 63.1953 77.2665 63.3532 76.6094 63.3532H75.8542V62.1244H76.3534C76.6521 62.1244 76.8611 62.0646 76.9806 61.9452C77.1086 61.8342 77.1726 61.6465 77.1726 61.382V52.9468H78.6318V61.382Z" fill="white"/>
<path d="M87.8116 56.3004C87.8116 56.5649 87.7946 56.8038 87.7604 57.0172H82.3716C82.4143 57.5804 82.6234 58.0326 82.9988 58.374C83.3743 58.7153 83.8351 58.886 84.3812 58.886C85.1663 58.886 85.7209 58.5574 86.0452 57.9004H87.6196C87.4063 58.5489 87.018 59.0822 86.4548 59.5004C85.9001 59.91 85.2089 60.1148 84.3812 60.1148C83.7071 60.1148 83.1012 59.9654 82.5636 59.6668C82.0346 59.3596 81.6164 58.9329 81.3092 58.3868C81.0106 57.8321 80.8612 57.1921 80.8612 56.4668C80.8612 55.7414 81.0063 55.1057 81.2964 54.5596C81.5951 54.0049 82.009 53.5782 82.538 53.2796C83.0756 52.9809 83.69 52.8316 84.3812 52.8316C85.0468 52.8316 85.6399 52.9766 86.1604 53.2668C86.681 53.5569 87.0863 53.9665 87.3764 54.4956C87.6666 55.0161 87.8116 55.6177 87.8116 56.3004ZM86.2884 55.8396C86.2799 55.302 86.0879 54.871 85.7124 54.5468C85.3369 54.2225 84.8719 54.0604 84.3172 54.0604C83.8138 54.0604 83.3828 54.2225 83.0244 54.5468C82.666 54.8625 82.4527 55.2934 82.3844 55.8396H86.2884Z" fill="white"/>
<path d="M89.5612 56.4668C89.5612 55.7414 89.7063 55.1057 89.9964 54.5596C90.2951 54.0049 90.7047 53.5782 91.2252 53.2796C91.7457 52.9809 92.3431 52.8316 93.0172 52.8316C93.8706 52.8316 94.5746 53.0364 95.1292 53.446C95.6924 53.847 96.0721 54.423 96.2684 55.174H94.694C94.566 54.8241 94.3612 54.551 94.0796 54.3548C93.798 54.1585 93.4439 54.0604 93.0172 54.0604C92.4199 54.0604 91.942 54.2737 91.5836 54.7004C91.2338 55.1185 91.0588 55.7073 91.0588 56.4668C91.0588 57.2262 91.2338 57.8193 91.5836 58.246C91.942 58.6726 92.4199 58.886 93.0172 58.886C93.862 58.886 94.421 58.5148 94.694 57.7724H96.2684C96.0636 58.4892 95.6796 59.0609 95.1164 59.4876C94.5532 59.9057 93.8535 60.1148 93.0172 60.1148C92.3431 60.1148 91.7457 59.9654 91.2252 59.6668C90.7047 59.3596 90.2951 58.9329 89.9964 58.3868C89.7063 57.8321 89.5612 57.1921 89.5612 56.4668Z" fill="white"/>
<path d="M100.225 54.1372V58.0412C100.225 58.3057 100.285 58.4977 100.404 58.6172C100.532 58.7281 100.746 58.7836 101.044 58.7836H101.94V59.9996H100.788C100.131 59.9996 99.6277 59.846 99.2778 59.5388C98.9279 59.2316 98.753 58.7324 98.753 58.0412V54.1372H97.921V52.9468H98.753V51.1932H100.225V52.9468H101.94V54.1372H100.225Z" fill="white"/>
<path d="M106.645 60.1148C106.09 60.1148 105.591 60.0166 105.148 59.8204C104.712 59.6156 104.367 59.3425 104.111 59.0012C103.855 58.6513 103.718 58.263 103.701 57.8364H105.212C105.237 58.135 105.378 58.3868 105.634 58.5916C105.898 58.7878 106.227 58.886 106.62 58.886C107.029 58.886 107.345 58.8092 107.567 58.6556C107.797 58.4934 107.912 58.2886 107.912 58.0412C107.912 57.7766 107.784 57.5804 107.528 57.4524C107.281 57.3244 106.884 57.1836 106.338 57.03C105.809 56.8849 105.378 56.7441 105.045 56.6076C104.712 56.471 104.422 56.262 104.175 55.9804C103.936 55.6988 103.816 55.3276 103.816 54.8668C103.816 54.4913 103.927 54.15 104.149 53.8428C104.371 53.527 104.687 53.2796 105.096 53.1004C105.514 52.9212 105.992 52.8316 106.53 52.8316C107.332 52.8316 107.976 53.0364 108.463 53.446C108.958 53.847 109.222 54.3974 109.256 55.0972H107.797C107.772 54.7814 107.644 54.5297 107.413 54.342C107.183 54.1542 106.871 54.0604 106.479 54.0604C106.095 54.0604 105.8 54.1329 105.596 54.278C105.391 54.423 105.288 54.615 105.288 54.854C105.288 55.0417 105.357 55.1996 105.493 55.3276C105.63 55.4556 105.796 55.558 105.992 55.6348C106.189 55.703 106.479 55.7926 106.863 55.9036C107.375 56.0401 107.793 56.1809 108.117 56.326C108.45 56.4625 108.736 56.6673 108.975 56.9404C109.214 57.2134 109.337 57.5761 109.346 58.0284C109.346 58.4294 109.235 58.7878 109.013 59.1036C108.791 59.4193 108.476 59.6668 108.066 59.846C107.665 60.0252 107.191 60.1148 106.645 60.1148Z" fill="white"/>
</svg>
