<svg width="138" height="84" viewBox="0 0 138 84" fill="none" xmlns="http://www.w3.org/2000/svg">
<rect width="138" height="84" rx="10" fill="#525252"/>
<path d="M28.008 62.464C25.4173 62.464 23.0587 61.8453 20.932 60.608C18.844 59.3707 17.1813 57.592 15.944 55.272C14.7067 52.952 14.088 50.1873 14.088 46.978C14.088 44.5033 14.5713 42.1447 15.538 39.902C16.5047 37.6593 17.8 35.552 19.424 33.58C21.0867 31.5693 22.9427 29.7133 24.992 28.012C27.08 26.3107 29.2453 24.7447 31.488 23.314L35.606 27.838C32.474 29.3073 29.864 31.0087 27.776 32.942C25.688 34.8753 24.0833 36.8473 22.962 38.858C21.8407 40.8687 21.2027 42.7633 21.048 44.542L19.482 44.31C20.526 42.106 21.8793 40.4047 23.542 39.206C25.2433 37.9687 27.428 37.35 30.096 37.35C32.0293 37.35 33.866 37.8913 35.606 38.974C37.3847 40.018 38.8153 41.4487 39.898 43.266C40.9807 45.0833 41.522 47.1907 41.522 49.588C41.522 52.2173 40.884 54.4987 39.608 56.432C38.332 58.3653 36.6693 59.854 34.62 60.898C32.5707 61.942 30.3667 62.464 28.008 62.464ZM27.776 56.896C29.168 56.896 30.4053 56.606 31.488 56.026C32.6093 55.4073 33.4987 54.5567 34.156 53.474C34.8133 52.3527 35.142 51.0573 35.142 49.588C35.142 48.1573 34.8133 46.92 34.156 45.876C33.4987 44.832 32.6093 44.02 31.488 43.44C30.3667 42.86 29.1293 42.57 27.776 42.57C26.4227 42.57 25.1853 42.86 24.064 43.44C22.9813 43.9813 22.1113 44.7353 21.454 45.702C20.7967 46.63 20.468 47.674 20.468 48.834V49.878C20.468 51.1153 20.7773 52.2753 21.396 53.358C22.0533 54.4407 22.9427 55.3107 24.064 55.968C25.1853 56.5867 26.4227 56.896 27.776 56.896Z" fill="#85D71B"/>
<path d="M57.44 24.88L53.76 31.968V36H51.936V31.968L48.24 24.88H50.272L52.848 30.336L55.424 24.88H57.44ZM67.9675 31.376C67.9675 31.7067 67.9462 32.0053 67.9035 32.272H61.1675C61.2208 32.976 61.4822 33.5413 61.9515 33.968C62.4208 34.3947 62.9968 34.608 63.6795 34.608C64.6608 34.608 65.3542 34.1973 65.7595 33.376H67.7275C67.4608 34.1867 66.9755 34.8533 66.2715 35.376C65.5782 35.888 64.7142 36.144 63.6795 36.144C62.8368 36.144 62.0795 35.9573 61.4075 35.584C60.7462 35.2 60.2235 34.6667 59.8395 33.984C59.4662 33.2907 59.2795 32.4907 59.2795 31.584C59.2795 30.6773 59.4608 29.8827 59.8235 29.2C60.1968 28.5067 60.7142 27.9733 61.3755 27.6C62.0475 27.2267 62.8155 27.04 63.6795 27.04C64.5115 27.04 65.2528 27.2213 65.9035 27.584C66.5542 27.9467 67.0608 28.4587 67.4235 29.12C67.7862 29.7707 67.9675 30.5227 67.9675 31.376ZM66.0635 30.8C66.0528 30.128 65.8128 29.5893 65.3435 29.184C64.8742 28.7787 64.2928 28.576 63.5995 28.576C62.9702 28.576 62.4315 28.7787 61.9835 29.184C61.5355 29.5787 61.2688 30.1173 61.1835 30.8H66.0635ZM70.1545 31.552C70.1545 30.6667 70.3358 29.8827 70.6985 29.2C71.0718 28.5173 71.5732 27.9893 72.2025 27.616C72.8425 27.232 73.5465 27.04 74.3145 27.04C75.0078 27.04 75.6105 27.1787 76.1225 27.456C76.6452 27.7227 77.0612 28.0587 77.3705 28.464V27.184H79.2105V36H77.3705V34.688C77.0612 35.104 76.6398 35.4507 76.1065 35.728C75.5732 36.0053 74.9652 36.144 74.2825 36.144C73.5252 36.144 72.8318 35.952 72.2025 35.568C71.5732 35.1733 71.0718 34.6293 70.6985 33.936C70.3358 33.232 70.1545 32.4373 70.1545 31.552ZM77.3705 31.584C77.3705 30.976 77.2425 30.448 76.9865 30C76.7412 29.552 76.4158 29.2107 76.0105 28.976C75.6052 28.7413 75.1678 28.624 74.6985 28.624C74.2292 28.624 73.7918 28.7413 73.3865 28.976C72.9812 29.2 72.6505 29.536 72.3945 29.984C72.1492 30.4213 72.0265 30.944 72.0265 31.552C72.0265 32.16 72.1492 32.6933 72.3945 33.152C72.6505 33.6107 72.9812 33.9627 73.3865 34.208C73.8025 34.4427 74.2398 34.56 74.6985 34.56C75.1678 34.56 75.6052 34.4427 76.0105 34.208C76.4158 33.9733 76.7412 33.632 76.9865 33.184C77.2425 32.7253 77.3705 32.192 77.3705 31.584ZM84.4303 28.464C84.6969 28.016 85.0489 27.6693 85.4863 27.424C85.9343 27.168 86.4623 27.04 87.0703 27.04V28.928H86.6063C85.8916 28.928 85.3476 29.1093 84.9743 29.472C84.6116 29.8347 84.4303 30.464 84.4303 31.36V36H82.6063V27.184H84.4303V28.464ZM92.9469 36.144C92.2535 36.144 91.6295 36.0213 91.0749 35.776C90.5309 35.52 90.0989 35.1787 89.7789 34.752C89.4589 34.3147 89.2882 33.8293 89.2669 33.296H91.1549C91.1869 33.6693 91.3629 33.984 91.6829 34.24C92.0135 34.4853 92.4242 34.608 92.9149 34.608C93.4269 34.608 93.8215 34.512 94.0989 34.32C94.3869 34.1173 94.5309 33.8613 94.5309 33.552C94.5309 33.2213 94.3709 32.976 94.0509 32.816C93.7415 32.656 93.2455 32.48 92.5629 32.288C91.9015 32.1067 91.3629 31.9307 90.9469 31.76C90.5309 31.5893 90.1682 31.328 89.8589 30.976C89.5602 30.624 89.4109 30.16 89.4109 29.584C89.4109 29.1147 89.5495 28.688 89.8269 28.304C90.1042 27.9093 90.4989 27.6 91.0109 27.376C91.5335 27.152 92.1309 27.04 92.8029 27.04C93.8055 27.04 94.6109 27.296 95.2189 27.808C95.8375 28.3093 96.1682 28.9973 96.2109 29.872H94.3869C94.3549 29.4773 94.1949 29.1627 93.9069 28.928C93.6189 28.6933 93.2295 28.576 92.7389 28.576C92.2589 28.576 91.8909 28.6667 91.6349 28.848C91.3789 29.0293 91.2509 29.2693 91.2509 29.568C91.2509 29.8027 91.3362 30 91.5069 30.16C91.6775 30.32 91.8855 30.448 92.1309 30.544C92.3762 30.6293 92.7389 30.7413 93.2189 30.88C93.8589 31.0507 94.3815 31.2267 94.7869 31.408C95.2029 31.5787 95.5602 31.8347 95.8589 32.176C96.1575 32.5173 96.3122 32.9707 96.3229 33.536C96.3229 34.0373 96.1842 34.4853 95.9069 34.88C95.6295 35.2747 95.2349 35.584 94.7229 35.808C94.2215 36.032 93.6295 36.144 92.9469 36.144ZM108.274 36.144C107.442 36.144 106.69 35.9573 106.018 35.584C105.346 35.2 104.818 34.6667 104.434 33.984C104.05 33.2907 103.858 32.4907 103.858 31.584C103.858 30.688 104.055 29.8933 104.45 29.2C104.845 28.5067 105.383 27.9733 106.066 27.6C106.749 27.2267 107.511 27.04 108.354 27.04C109.197 27.04 109.959 27.2267 110.642 27.6C111.325 27.9733 111.863 28.5067 112.258 29.2C112.653 29.8933 112.85 30.688 112.85 31.584C112.85 32.48 112.647 33.2747 112.242 33.968C111.837 34.6613 111.282 35.2 110.578 35.584C109.885 35.9573 109.117 36.144 108.274 36.144ZM108.274 34.56C108.743 34.56 109.181 34.448 109.586 34.224C110.002 34 110.338 33.664 110.594 33.216C110.85 32.768 110.978 32.224 110.978 31.584C110.978 30.944 110.855 30.4053 110.61 29.968C110.365 29.52 110.039 29.184 109.634 28.96C109.229 28.736 108.791 28.624 108.322 28.624C107.853 28.624 107.415 28.736 107.01 28.96C106.615 29.184 106.301 29.52 106.066 29.968C105.831 30.4053 105.714 30.944 105.714 31.584C105.714 32.5333 105.954 33.2693 106.434 33.792C106.925 34.304 107.538 34.56 108.274 34.56ZM119.349 28.672H117.717V36H115.877V28.672H114.837V27.184H115.877V26.56C115.877 25.5467 116.144 24.8107 116.677 24.352C117.221 23.8827 118.069 23.648 119.221 23.648V25.168C118.666 25.168 118.277 25.2747 118.053 25.488C117.829 25.6907 117.717 26.048 117.717 26.56V27.184H119.349V28.672ZM52.864 60.112C52.1173 60.112 51.4453 59.984 50.848 59.728C50.2507 59.4613 49.7813 59.088 49.44 58.608C49.0987 58.128 48.928 57.568 48.928 56.928H50.88C50.9227 57.408 51.1093 57.8027 51.44 58.112C51.7813 58.4213 52.256 58.576 52.864 58.576C53.4933 58.576 53.984 58.4267 54.336 58.128C54.688 57.8187 54.864 57.424 54.864 56.944C54.864 56.5707 54.752 56.2667 54.528 56.032C54.3147 55.7973 54.0427 55.616 53.712 55.488C53.392 55.36 52.944 55.2213 52.368 55.072C51.6427 54.88 51.0507 54.688 50.592 54.496C50.144 54.2933 49.76 53.984 49.44 53.568C49.12 53.152 48.96 52.5973 48.96 51.904C48.96 51.264 49.12 50.704 49.44 50.224C49.76 49.744 50.208 49.376 50.784 49.12C51.36 48.864 52.0267 48.736 52.784 48.736C53.8613 48.736 54.7413 49.008 55.424 49.552C56.1173 50.0853 56.5013 50.8213 56.576 51.76H54.56C54.528 51.3547 54.336 51.008 53.984 50.72C53.632 50.432 53.168 50.288 52.592 50.288C52.0693 50.288 51.6427 50.4213 51.312 50.688C50.9813 50.9547 50.816 51.3387 50.816 51.84C50.816 52.1813 50.9173 52.464 51.12 52.688C51.3333 52.9013 51.6 53.072 51.92 53.2C52.24 53.328 52.6773 53.4667 53.232 53.616C53.968 53.8187 54.5653 54.0213 55.024 54.224C55.4933 54.4267 55.888 54.7413 56.208 55.168C56.5387 55.584 56.704 56.144 56.704 56.848C56.704 57.4133 56.5493 57.9467 56.24 58.448C55.9413 58.9493 55.4987 59.3547 54.912 59.664C54.336 59.9627 53.6533 60.112 52.864 60.112ZM67.8403 51.184V60H66.0163V58.96C65.7283 59.3227 65.3496 59.6107 64.8803 59.824C64.4216 60.0267 63.9309 60.128 63.4083 60.128C62.7149 60.128 62.0909 59.984 61.5363 59.696C60.9923 59.408 60.5603 58.9813 60.2403 58.416C59.9309 57.8507 59.7763 57.168 59.7763 56.368V51.184H61.5843V56.096C61.5843 56.8853 61.7816 57.4933 62.1763 57.92C62.5709 58.336 63.1096 58.544 63.7923 58.544C64.4749 58.544 65.0136 58.336 65.4083 57.92C65.8136 57.4933 66.0163 56.8853 66.0163 56.096V51.184H67.8403ZM70.6389 55.584C70.6389 54.6773 70.8202 53.8827 71.1829 53.2C71.5562 52.5067 72.0682 51.9733 72.7189 51.6C73.3695 51.2267 74.1162 51.04 74.9589 51.04C76.0255 51.04 76.9055 51.296 77.5989 51.808C78.3029 52.3093 78.7775 53.0293 79.0229 53.968H77.0549C76.8949 53.5307 76.6389 53.1893 76.2869 52.944C75.9349 52.6987 75.4922 52.576 74.9589 52.576C74.2122 52.576 73.6149 52.8427 73.1669 53.376C72.7295 53.8987 72.5109 54.6347 72.5109 55.584C72.5109 56.5333 72.7295 57.2747 73.1669 57.808C73.6149 58.3413 74.2122 58.608 74.9589 58.608C76.0149 58.608 76.7135 58.144 77.0549 57.216H79.0229C78.7669 58.112 78.2869 58.8267 77.5829 59.36C76.8789 59.8827 76.0042 60.144 74.9589 60.144C74.1162 60.144 73.3695 59.9573 72.7189 59.584C72.0682 59.2 71.5562 58.6667 71.1829 57.984C70.8202 57.2907 70.6389 56.4907 70.6389 55.584ZM81.2326 55.584C81.2326 54.6773 81.414 53.8827 81.7766 53.2C82.15 52.5067 82.662 51.9733 83.3126 51.6C83.9633 51.2267 84.71 51.04 85.5526 51.04C86.6193 51.04 87.4993 51.296 88.1926 51.808C88.8966 52.3093 89.3713 53.0293 89.6166 53.968H87.6486C87.4886 53.5307 87.2326 53.1893 86.8806 52.944C86.5286 52.6987 86.086 52.576 85.5526 52.576C84.806 52.576 84.2086 52.8427 83.7606 53.376C83.3233 53.8987 83.1046 54.6347 83.1046 55.584C83.1046 56.5333 83.3233 57.2747 83.7606 57.808C84.2086 58.3413 84.806 58.608 85.5526 58.608C86.6086 58.608 87.3073 58.144 87.6486 57.216H89.6166C89.3606 58.112 88.8806 58.8267 88.1766 59.36C87.4726 59.8827 86.598 60.144 85.5526 60.144C84.71 60.144 83.9633 59.9573 83.3126 59.584C82.662 59.2 82.15 58.6667 81.7766 57.984C81.414 57.2907 81.2326 56.4907 81.2326 55.584ZM100.514 55.376C100.514 55.7067 100.493 56.0053 100.45 56.272H93.7144C93.7677 56.976 94.029 57.5413 94.4984 57.968C94.9677 58.3947 95.5437 58.608 96.2264 58.608C97.2077 58.608 97.901 58.1973 98.3064 57.376H100.274C100.008 58.1867 99.5224 58.8533 98.8184 59.376C98.125 59.888 97.261 60.144 96.2264 60.144C95.3837 60.144 94.6264 59.9573 93.9544 59.584C93.293 59.2 92.7704 58.6667 92.3864 57.984C92.013 57.2907 91.8264 56.4907 91.8264 55.584C91.8264 54.6773 92.0077 53.8827 92.3704 53.2C92.7437 52.5067 93.261 51.9733 93.9224 51.6C94.5944 51.2267 95.3624 51.04 96.2264 51.04C97.0584 51.04 97.7997 51.2213 98.4504 51.584C99.101 51.9467 99.6077 52.4587 99.9704 53.12C100.333 53.7707 100.514 54.5227 100.514 55.376ZM98.6104 54.8C98.5997 54.128 98.3597 53.5893 97.8904 53.184C97.421 52.7787 96.8397 52.576 96.1464 52.576C95.517 52.576 94.9784 52.7787 94.5304 53.184C94.0824 53.5787 93.8157 54.1173 93.7304 54.8H98.6104ZM106.509 60.144C105.816 60.144 105.192 60.0213 104.637 59.776C104.093 59.52 103.661 59.1787 103.341 58.752C103.021 58.3147 102.851 57.8293 102.829 57.296H104.717C104.749 57.6693 104.925 57.984 105.245 58.24C105.576 58.4853 105.987 58.608 106.477 58.608C106.989 58.608 107.384 58.512 107.661 58.32C107.949 58.1173 108.093 57.8613 108.093 57.552C108.093 57.2213 107.933 56.976 107.613 56.816C107.304 56.656 106.808 56.48 106.125 56.288C105.464 56.1067 104.925 55.9307 104.509 55.76C104.093 55.5893 103.731 55.328 103.421 54.976C103.123 54.624 102.973 54.16 102.973 53.584C102.973 53.1147 103.112 52.688 103.389 52.304C103.667 51.9093 104.061 51.6 104.573 51.376C105.096 51.152 105.693 51.04 106.365 51.04C107.368 51.04 108.173 51.296 108.781 51.808C109.4 52.3093 109.731 52.9973 109.773 53.872H107.949C107.917 53.4773 107.757 53.1627 107.469 52.928C107.181 52.6933 106.792 52.576 106.301 52.576C105.821 52.576 105.453 52.6667 105.197 52.848C104.941 53.0293 104.813 53.2693 104.813 53.568C104.813 53.8027 104.899 54 105.069 54.16C105.24 54.32 105.448 54.448 105.693 54.544C105.939 54.6293 106.301 54.7413 106.781 54.88C107.421 55.0507 107.944 55.2267 108.349 55.408C108.765 55.5787 109.123 55.8347 109.421 56.176C109.72 56.5173 109.875 56.9707 109.885 57.536C109.885 58.0373 109.747 58.4853 109.469 58.88C109.192 59.2747 108.797 59.584 108.285 59.808C107.784 60.032 107.192 60.144 106.509 60.144ZM116.056 60.144C115.363 60.144 114.739 60.0213 114.184 59.776C113.64 59.52 113.208 59.1787 112.888 58.752C112.568 58.3147 112.398 57.8293 112.376 57.296H114.264C114.296 57.6693 114.472 57.984 114.792 58.24C115.123 58.4853 115.534 58.608 116.024 58.608C116.536 58.608 116.931 58.512 117.208 58.32C117.496 58.1173 117.64 57.8613 117.64 57.552C117.64 57.2213 117.48 56.976 117.16 56.816C116.851 56.656 116.355 56.48 115.672 56.288C115.011 56.1067 114.472 55.9307 114.056 55.76C113.64 55.5893 113.278 55.328 112.968 54.976C112.67 54.624 112.52 54.16 112.52 53.584C112.52 53.1147 112.659 52.688 112.936 52.304C113.214 51.9093 113.608 51.6 114.12 51.376C114.643 51.152 115.24 51.04 115.912 51.04C116.915 51.04 117.72 51.296 118.328 51.808C118.947 52.3093 119.278 52.9973 119.32 53.872H117.496C117.464 53.4773 117.304 53.1627 117.016 52.928C116.728 52.6933 116.339 52.576 115.848 52.576C115.368 52.576 115 52.6667 114.744 52.848C114.488 53.0293 114.36 53.2693 114.36 53.568C114.36 53.8027 114.446 54 114.616 54.16C114.787 54.32 114.995 54.448 115.24 54.544C115.486 54.6293 115.848 54.7413 116.328 54.88C116.968 55.0507 117.491 55.2267 117.896 55.408C118.312 55.5787 118.67 55.8347 118.968 56.176C119.267 56.5173 119.422 56.9707 119.432 57.536C119.432 58.0373 119.294 58.4853 119.016 58.88C118.739 59.2747 118.344 59.584 117.832 59.808C117.331 60.032 116.739 60.144 116.056 60.144Z" fill="white"/>
</svg>
