<svg width="111" height="68" viewBox="0 0 111 68" fill="none" xmlns="http://www.w3.org/2000/svg">
<path d="M0 8C0 3.58172 3.58172 0 8 0H102.4C106.818 0 110.4 3.58172 110.4 8V59.2C110.4 63.6183 106.818 67.2 102.4 67.2H8C3.58172 67.2 0 63.6183 0 59.2V8Z" fill="#525252"/>
<path d="M20.5313 49.9578C18.9185 49.9578 17.3654 49.6591 15.8721 49.0618C14.3788 48.4644 13.1841 47.7327 12.2881 46.8666L14.7969 43.1034C15.3942 43.7903 16.1857 44.3428 17.1713 44.761C18.1868 45.1791 19.1724 45.3882 20.1281 45.3882C21.1734 45.3882 22.0844 45.1642 22.8609 44.7162C23.6673 44.2682 24.2945 43.641 24.7425 42.8346C25.2204 42.0282 25.4593 41.1023 25.4593 40.057C25.4593 38.922 25.2502 37.9215 24.8321 37.0554C24.414 36.1594 23.7868 35.4575 22.9505 34.9498C22.1142 34.442 21.0988 34.1882 19.9041 34.1882C18.8886 34.1882 17.9329 34.3375 17.0369 34.6362C16.1708 34.905 15.23 35.3231 14.2145 35.8906H14.1697V20.0762H28.4161V24.6458H18.3361V31.6346L17.7089 30.649C18.2166 30.4996 18.7542 30.3802 19.3217 30.2906C19.8892 30.201 20.4566 30.1562 21.0241 30.1562C23.055 30.1562 24.7574 30.6042 26.1313 31.5002C27.535 32.3962 28.5953 33.5759 29.3121 35.0394C30.0289 36.5028 30.3873 38.1156 30.3873 39.8778C30.3873 41.7594 29.9542 43.4618 29.0881 44.985C28.2518 46.5082 27.087 47.7178 25.5937 48.6138C24.1004 49.5098 22.4129 49.9578 20.5313 49.9578Z" fill="#85D71B"/>
<path d="M45.952 19.9045L43.008 25.5749V28.8005H41.5488V25.5749L38.592 19.9045H40.2176L42.2784 24.2693L44.3392 19.9045H45.952Z" fill="white"/>
<path d="M54.374 25.1013C54.374 25.3659 54.357 25.6048 54.3228 25.8181H48.934C48.9767 26.3813 49.1858 26.8336 49.5612 27.1749C49.9367 27.5163 50.3975 27.6869 50.9436 27.6869C51.7287 27.6869 52.2834 27.3584 52.6076 26.7013H54.182C53.9687 27.3499 53.5804 27.8832 53.0172 28.3013C52.4626 28.7109 51.7714 28.9157 50.9436 28.9157C50.2695 28.9157 49.6636 28.7664 49.126 28.4677C48.597 28.1605 48.1788 27.7339 47.8716 27.1877C47.573 26.6331 47.4236 25.9931 47.4236 25.2677C47.4236 24.5424 47.5687 23.9067 47.8588 23.3605C48.1575 22.8059 48.5714 22.3792 49.1004 22.0805C49.638 21.7819 50.2524 21.6325 50.9436 21.6325C51.6092 21.6325 52.2023 21.7776 52.7228 22.0677C53.2434 22.3579 53.6487 22.7675 53.9388 23.2965C54.229 23.8171 54.374 24.4187 54.374 25.1013ZM52.8508 24.6405C52.8423 24.1029 52.6503 23.672 52.2748 23.3477C51.8994 23.0235 51.4343 22.8613 50.8796 22.8613C50.3762 22.8613 49.9452 23.0235 49.5868 23.3477C49.2284 23.6635 49.0151 24.0944 48.9468 24.6405H52.8508Z" fill="white"/>
<path d="M56.1236 25.2421C56.1236 24.5339 56.2687 23.9067 56.5588 23.3605C56.8575 22.8144 57.2586 22.392 57.762 22.0933C58.274 21.7861 58.8372 21.6325 59.4516 21.6325C60.0063 21.6325 60.4884 21.7435 60.898 21.9653C61.3162 22.1787 61.649 22.4475 61.8964 22.7717V21.7477H63.3684V28.8005H61.8964V27.7509C61.649 28.0837 61.3119 28.3611 60.8852 28.5829C60.4586 28.8048 59.9722 28.9157 59.426 28.9157C58.8202 28.9157 58.2655 28.7621 57.762 28.4549C57.2586 28.1392 56.8575 27.704 56.5588 27.1493C56.2687 26.5861 56.1236 25.9504 56.1236 25.2421ZM61.8964 25.2677C61.8964 24.7813 61.794 24.3589 61.5892 24.0005C61.393 23.6421 61.1327 23.3691 60.8084 23.1813C60.4842 22.9936 60.1343 22.8997 59.7588 22.8997C59.3834 22.8997 59.0335 22.9936 58.7092 23.1813C58.385 23.3605 58.1204 23.6293 57.9156 23.9877C57.7194 24.3376 57.6212 24.7557 57.6212 25.2421C57.6212 25.7285 57.7194 26.1552 57.9156 26.5221C58.1204 26.8891 58.385 27.1707 58.7092 27.3669C59.042 27.5547 59.3919 27.6485 59.7588 27.6485C60.1343 27.6485 60.4842 27.5547 60.8084 27.3669C61.1327 27.1792 61.393 26.9061 61.5892 26.5477C61.794 26.1808 61.8964 25.7541 61.8964 25.2677Z" fill="white"/>
<path d="M67.5442 22.7717C67.7576 22.4133 68.0392 22.136 68.389 21.9397C68.7474 21.7349 69.1698 21.6325 69.6562 21.6325V23.1429H69.285C68.7133 23.1429 68.2781 23.288 67.9794 23.5781C67.6893 23.8683 67.5442 24.3717 67.5442 25.0885V28.8005H66.085V21.7477H67.5442V22.7717Z" fill="white"/>
<path d="M74.3575 28.9157C73.8029 28.9157 73.3037 28.8176 72.8599 28.6213C72.4247 28.4165 72.0791 28.1435 71.8231 27.8021C71.5671 27.4523 71.4306 27.064 71.4135 26.6373H72.9239C72.9495 26.936 73.0903 27.1877 73.3463 27.3925C73.6109 27.5888 73.9394 27.6869 74.3319 27.6869C74.7415 27.6869 75.0573 27.6101 75.2791 27.4565C75.5095 27.2944 75.6247 27.0896 75.6247 26.8421C75.6247 26.5776 75.4967 26.3813 75.2407 26.2533C74.9933 26.1253 74.5965 25.9845 74.0503 25.8309C73.5213 25.6859 73.0903 25.5451 72.7575 25.4085C72.4247 25.272 72.1346 25.0629 71.8871 24.7813C71.6482 24.4997 71.5287 24.1285 71.5287 23.6677C71.5287 23.2923 71.6397 22.9509 71.8615 22.6437C72.0834 22.328 72.3991 22.0805 72.8087 21.9013C73.2269 21.7221 73.7047 21.6325 74.2423 21.6325C75.0445 21.6325 75.6887 21.8373 76.1751 22.2469C76.6701 22.648 76.9346 23.1984 76.9687 23.8981H75.5095C75.4839 23.5824 75.3559 23.3307 75.1255 23.1429C74.8951 22.9552 74.5837 22.8613 74.1911 22.8613C73.8071 22.8613 73.5127 22.9339 73.3079 23.0789C73.1031 23.224 73.0007 23.416 73.0007 23.6549C73.0007 23.8427 73.069 24.0005 73.2055 24.1285C73.3421 24.2565 73.5085 24.3589 73.7047 24.4357C73.901 24.504 74.1911 24.5936 74.5751 24.7045C75.0871 24.8411 75.5053 24.9819 75.8295 25.1269C76.1623 25.2635 76.4482 25.4683 76.6871 25.7413C76.9261 26.0144 77.0498 26.3771 77.0583 26.8293C77.0583 27.2304 76.9474 27.5888 76.7255 27.9045C76.5037 28.2203 76.1879 28.4677 75.7783 28.6469C75.3773 28.8261 74.9037 28.9157 74.3575 28.9157Z" fill="white"/>
<path d="M86.6192 28.9157C85.9536 28.9157 85.352 28.7664 84.8144 28.4677C84.2768 28.1605 83.8544 27.7339 83.5472 27.1877C83.24 26.6331 83.0864 25.9931 83.0864 25.2677C83.0864 24.5509 83.2443 23.9152 83.56 23.3605C83.8758 22.8059 84.3067 22.3792 84.8528 22.0805C85.399 21.7819 86.0091 21.6325 86.6832 21.6325C87.3574 21.6325 87.9675 21.7819 88.5136 22.0805C89.0598 22.3792 89.4907 22.8059 89.8064 23.3605C90.1222 23.9152 90.28 24.5509 90.28 25.2677C90.28 25.9845 90.1179 26.6203 89.7936 27.1749C89.4694 27.7296 89.0256 28.1605 88.4624 28.4677C87.9078 28.7664 87.2934 28.9157 86.6192 28.9157ZM86.6192 27.6485C86.9947 27.6485 87.3446 27.5589 87.6688 27.3797C88.0016 27.2005 88.2704 26.9317 88.4752 26.5733C88.68 26.2149 88.7824 25.7797 88.7824 25.2677C88.7824 24.7557 88.6843 24.3248 88.488 23.9749C88.2918 23.6165 88.0315 23.3477 87.7072 23.1685C87.383 22.9893 87.0331 22.8997 86.6576 22.8997C86.2822 22.8997 85.9323 22.9893 85.608 23.1685C85.2923 23.3477 85.0406 23.6165 84.8528 23.9749C84.6651 24.3248 84.5712 24.7557 84.5712 25.2677C84.5712 26.0272 84.7632 26.616 85.1472 27.0341C85.5398 27.4437 86.0304 27.6485 86.6192 27.6485Z" fill="white"/>
<path d="M95.4793 22.9381H94.1737V28.8005H92.7017V22.9381H91.8697V21.7477H92.7017V21.2485C92.7017 20.4379 92.9151 19.8491 93.3417 19.4821C93.7769 19.1067 94.4553 18.9189 95.3769 18.9189V20.1349C94.9332 20.1349 94.6217 20.2203 94.4425 20.3909C94.2633 20.5531 94.1737 20.8389 94.1737 21.2485V21.7477H95.4793V22.9381Z" fill="white"/>
<path d="M42.2912 48.0901C41.6939 48.0901 41.1563 47.9877 40.6784 47.7829C40.2006 47.5696 39.8251 47.2709 39.552 46.8869C39.279 46.5029 39.1424 46.0549 39.1424 45.5429H40.704C40.7382 45.9269 40.8875 46.2427 41.152 46.4901C41.4251 46.7376 41.8048 46.8613 42.2912 46.8613C42.7947 46.8613 43.1872 46.7419 43.4688 46.5029C43.7504 46.2555 43.8912 45.9397 43.8912 45.5557C43.8912 45.2571 43.8016 45.0139 43.6224 44.8261C43.4518 44.6384 43.2342 44.4933 42.9696 44.3909C42.7136 44.2885 42.3552 44.1776 41.8944 44.0581C41.3142 43.9045 40.8406 43.7509 40.4736 43.5973C40.1152 43.4352 39.808 43.1877 39.552 42.8549C39.296 42.5221 39.168 42.0784 39.168 41.5237C39.168 41.0117 39.296 40.5637 39.552 40.1797C39.808 39.7957 40.1664 39.5013 40.6272 39.2965C41.088 39.0917 41.6214 38.9893 42.2272 38.9893C43.0891 38.9893 43.7931 39.2069 44.3392 39.6421C44.8939 40.0688 45.2011 40.6576 45.2608 41.4085H43.648C43.6224 41.0843 43.4688 40.8069 43.1872 40.5765C42.9056 40.3461 42.5344 40.2309 42.0736 40.2309C41.6555 40.2309 41.3142 40.3376 41.0496 40.5509C40.7851 40.7643 40.6528 41.0715 40.6528 41.4725C40.6528 41.7456 40.7339 41.9717 40.896 42.1509C41.0667 42.3216 41.28 42.4581 41.536 42.5605C41.792 42.6629 42.1419 42.7739 42.5856 42.8933C43.1744 43.0555 43.6523 43.2176 44.0192 43.3797C44.3947 43.5419 44.7104 43.7936 44.9664 44.1349C45.231 44.4677 45.3632 44.9157 45.3632 45.4789C45.3632 45.9312 45.2395 46.3579 44.992 46.7589C44.7531 47.16 44.399 47.4843 43.9296 47.7317C43.4688 47.9707 42.9227 48.0901 42.2912 48.0901Z" fill="white"/>
<path d="M54.2722 40.9477V48.0005H52.813V47.1685C52.5826 47.4587 52.2797 47.6891 51.9042 47.8597C51.5373 48.0219 51.1448 48.1029 50.7266 48.1029C50.172 48.1029 49.6728 47.9877 49.229 47.7573C48.7938 47.5269 48.4482 47.1856 48.1922 46.7333C47.9448 46.2811 47.821 45.7349 47.821 45.0949V40.9477H49.2674V44.8773C49.2674 45.5088 49.4253 45.9952 49.741 46.3365C50.0568 46.6693 50.4877 46.8357 51.0338 46.8357C51.58 46.8357 52.0109 46.6693 52.3266 46.3365C52.6509 45.9952 52.813 45.5088 52.813 44.8773V40.9477H54.2722Z" fill="white"/>
<path d="M56.5111 44.4677C56.5111 43.7424 56.6562 43.1067 56.9463 42.5605C57.245 42.0059 57.6546 41.5792 58.1751 41.2805C58.6957 40.9819 59.293 40.8325 59.9671 40.8325C60.8205 40.8325 61.5245 41.0373 62.0791 41.4469C62.6423 41.848 63.0221 42.424 63.2183 43.1749H61.6439C61.5159 42.8251 61.3111 42.552 61.0295 42.3557C60.7479 42.1595 60.3938 42.0613 59.9671 42.0613C59.3698 42.0613 58.8919 42.2747 58.5335 42.7013C58.1837 43.1195 58.0087 43.7083 58.0087 44.4677C58.0087 45.2272 58.1837 45.8203 58.5335 46.2469C58.8919 46.6736 59.3698 46.8869 59.9671 46.8869C60.8119 46.8869 61.3709 46.5157 61.6439 45.7733H63.2183C63.0135 46.4901 62.6295 47.0619 62.0663 47.4885C61.5031 47.9067 60.8034 48.1157 59.9671 48.1157C59.293 48.1157 58.6957 47.9664 58.1751 47.6677C57.6546 47.3605 57.245 46.9339 56.9463 46.3877C56.6562 45.8331 56.5111 45.1931 56.5111 44.4677Z" fill="white"/>
<path d="M64.9861 44.4677C64.9861 43.7424 65.1312 43.1067 65.4213 42.5605C65.72 42.0059 66.1296 41.5792 66.6501 41.2805C67.1707 40.9819 67.768 40.8325 68.4421 40.8325C69.2955 40.8325 69.9995 41.0373 70.5541 41.4469C71.1173 41.848 71.4971 42.424 71.6933 43.1749H70.1189C69.9909 42.8251 69.7861 42.552 69.5045 42.3557C69.2229 42.1595 68.8688 42.0613 68.4421 42.0613C67.8448 42.0613 67.3669 42.2747 67.0085 42.7013C66.6587 43.1195 66.4837 43.7083 66.4837 44.4677C66.4837 45.2272 66.6587 45.8203 67.0085 46.2469C67.3669 46.6736 67.8448 46.8869 68.4421 46.8869C69.2869 46.8869 69.8459 46.5157 70.1189 45.7733H71.6933C71.4885 46.4901 71.1045 47.0619 70.5413 47.4885C69.9781 47.9067 69.2784 48.1157 68.4421 48.1157C67.768 48.1157 67.1707 47.9664 66.6501 47.6677C66.1296 47.3605 65.72 46.9339 65.4213 46.3877C65.1312 45.8331 64.9861 45.1931 64.9861 44.4677Z" fill="white"/>
<path d="M80.4115 44.3013C80.4115 44.5659 80.3945 44.8048 80.3603 45.0181H74.9715C75.0142 45.5813 75.2233 46.0336 75.5987 46.3749C75.9742 46.7163 76.435 46.8869 76.9811 46.8869C77.7662 46.8869 78.3209 46.5584 78.6451 45.9013H80.2195C80.0062 46.5499 79.6179 47.0832 79.0547 47.5013C78.5001 47.9109 77.8089 48.1157 76.9811 48.1157C76.307 48.1157 75.7011 47.9664 75.1635 47.6677C74.6345 47.3605 74.2163 46.9339 73.9091 46.3877C73.6105 45.8331 73.4611 45.1931 73.4611 44.4677C73.4611 43.7424 73.6062 43.1067 73.8963 42.5605C74.195 42.0059 74.6089 41.5792 75.1379 41.2805C75.6755 40.9819 76.2899 40.8325 76.9811 40.8325C77.6467 40.8325 78.2398 40.9776 78.7603 41.2677C79.2809 41.5579 79.6862 41.9675 79.9763 42.4965C80.2665 43.0171 80.4115 43.6187 80.4115 44.3013ZM78.8883 43.8405C78.8798 43.3029 78.6878 42.872 78.3123 42.5477C77.9369 42.2235 77.4718 42.0613 76.9171 42.0613C76.4137 42.0613 75.9827 42.2235 75.6243 42.5477C75.2659 42.8635 75.0526 43.2944 74.9843 43.8405H78.8883Z" fill="white"/>
<path d="M85.2075 48.1157C84.6529 48.1157 84.1537 48.0176 83.7099 47.8213C83.2747 47.6165 82.9291 47.3435 82.6731 47.0021C82.4171 46.6523 82.2806 46.264 82.2635 45.8373H83.7739C83.7995 46.136 83.9403 46.3877 84.1963 46.5925C84.4609 46.7888 84.7894 46.8869 85.1819 46.8869C85.5915 46.8869 85.9073 46.8101 86.1291 46.6565C86.3595 46.4944 86.4747 46.2896 86.4747 46.0421C86.4747 45.7776 86.3467 45.5813 86.0907 45.4533C85.8433 45.3253 85.4465 45.1845 84.9003 45.0309C84.3713 44.8859 83.9403 44.7451 83.6075 44.6085C83.2747 44.472 82.9846 44.2629 82.7371 43.9813C82.4982 43.6997 82.3787 43.3285 82.3787 42.8677C82.3787 42.4923 82.4897 42.1509 82.7115 41.8437C82.9334 41.528 83.2491 41.2805 83.6587 41.1013C84.0769 40.9221 84.5547 40.8325 85.0923 40.8325C85.8945 40.8325 86.5387 41.0373 87.0251 41.4469C87.5201 41.848 87.7846 42.3984 87.8187 43.0981H86.3595C86.3339 42.7824 86.2059 42.5307 85.9755 42.3429C85.7451 42.1552 85.4337 42.0613 85.0411 42.0613C84.6571 42.0613 84.3627 42.1339 84.1579 42.2789C83.9531 42.424 83.8507 42.616 83.8507 42.8549C83.8507 43.0427 83.919 43.2005 84.0555 43.3285C84.1921 43.4565 84.3585 43.5589 84.5547 43.6357C84.751 43.704 85.0411 43.7936 85.4251 43.9045C85.9371 44.0411 86.3553 44.1819 86.6795 44.3269C87.0123 44.4635 87.2982 44.6683 87.5371 44.9413C87.7761 45.2144 87.8998 45.5771 87.9083 46.0293C87.9083 46.4304 87.7974 46.7888 87.5755 47.1045C87.3537 47.4203 87.0379 47.6677 86.6283 47.8469C86.2273 48.0261 85.7537 48.1157 85.2075 48.1157Z" fill="white"/>
<path d="M92.845 48.1157C92.2904 48.1157 91.7912 48.0176 91.3474 47.8213C90.9122 47.6165 90.5666 47.3435 90.3106 47.0021C90.0546 46.6523 89.9181 46.264 89.901 45.8373H91.4114C91.437 46.136 91.5778 46.3877 91.8338 46.5925C92.0984 46.7888 92.4269 46.8869 92.8194 46.8869C93.229 46.8869 93.5448 46.8101 93.7666 46.6565C93.997 46.4944 94.1122 46.2896 94.1122 46.0421C94.1122 45.7776 93.9842 45.5813 93.7282 45.4533C93.4808 45.3253 93.084 45.1845 92.5378 45.0309C92.0088 44.8859 91.5778 44.7451 91.245 44.6085C90.9122 44.472 90.6221 44.2629 90.3746 43.9813C90.1357 43.6997 90.0162 43.3285 90.0162 42.8677C90.0162 42.4923 90.1272 42.1509 90.349 41.8437C90.5709 41.528 90.8866 41.2805 91.2962 41.1013C91.7144 40.9221 92.1922 40.8325 92.7298 40.8325C93.532 40.8325 94.1762 41.0373 94.6626 41.4469C95.1576 41.848 95.4221 42.3984 95.4562 43.0981H93.997C93.9714 42.7824 93.8434 42.5307 93.613 42.3429C93.3826 42.1552 93.0712 42.0613 92.6786 42.0613C92.2946 42.0613 92.0002 42.1339 91.7954 42.2789C91.5906 42.424 91.4882 42.616 91.4882 42.8549C91.4882 43.0427 91.5565 43.2005 91.693 43.3285C91.8296 43.4565 91.996 43.5589 92.1922 43.6357C92.3885 43.704 92.6786 43.7936 93.0626 43.9045C93.5746 44.0411 93.9928 44.1819 94.317 44.3269C94.6498 44.4635 94.9357 44.6683 95.1746 44.9413C95.4136 45.2144 95.5373 45.5771 95.5458 46.0293C95.5458 46.4304 95.4349 46.7888 95.213 47.1045C94.9912 47.4203 94.6754 47.6677 94.2658 47.8469C93.8648 48.0261 93.3912 48.1157 92.845 48.1157Z" fill="white"/>
</svg>
