<svg width="88" height="88" viewBox="0 0 88 88" fill="none" xmlns="http://www.w3.org/2000/svg">
<rect x="4" y="4" width="80" height="80" rx="16" stroke="#CF9C63" stroke-width="8"/>
<path d="M43.1818 28.5205C42.6108 28.5247 42.0407 28.5672 41.4753 28.6477C43.4553 28.9137 45.3451 29.641 46.9926 30.771C48.6401 31.901 49.9992 33.402 50.9605 35.1533C51.9218 36.9046 52.4584 38.8571 52.5271 40.8537C52.5957 42.8503 52.1946 44.8351 51.3559 46.6483L45.166 60.2025H48.5789L54.7688 46.6483C55.6681 44.7029 56.0632 42.5625 55.9178 40.4242C55.7724 38.286 55.0913 36.2188 53.937 34.413C52.7828 32.6072 51.1926 31.1209 49.3131 30.0912C47.4335 29.0614 45.325 28.5213 43.1818 28.5205Z" fill="white"/>
<path fill-rule="evenodd" clip-rule="evenodd" d="M44.0001 17.8184C44.5855 17.8184 45.06 18.2929 45.06 18.8783V23.0692C45.06 23.6546 44.5855 24.1291 44.0001 24.1291C43.4147 24.1291 42.9402 23.6546 42.9402 23.0692V18.8783C42.9402 18.2929 43.4147 17.8184 44.0001 17.8184Z" fill="white"/>
<path fill-rule="evenodd" clip-rule="evenodd" d="M60.4778 24.7771C60.8951 25.1877 60.9005 25.8588 60.4899 26.276L57.5508 29.2628C57.1402 29.6801 56.4691 29.6855 56.0519 29.2749C55.6346 28.8643 55.6292 28.1932 56.0398 27.776L58.9789 24.7892C59.3895 24.3719 60.0606 24.3665 60.4778 24.7771Z" fill="white"/>
<path fill-rule="evenodd" clip-rule="evenodd" d="M60.5991 41.3802C60.5991 40.7949 61.0737 40.3203 61.659 40.3203H65.8489C66.4343 40.3203 66.9088 40.7949 66.9088 41.3802C66.9088 41.9656 66.4343 42.4402 65.8489 42.4402H61.659C61.0737 42.4402 60.5991 41.9656 60.5991 41.3802Z" fill="white"/>
<path fill-rule="evenodd" clip-rule="evenodd" d="M27.5221 24.7771C27.9393 24.3665 28.6104 24.3719 29.021 24.7892L31.9601 27.776C32.3707 28.1933 32.3653 28.8643 31.9481 29.2749C31.5308 29.6855 30.8597 29.6801 30.4492 29.2628L27.51 26.276C27.0994 25.8588 27.1048 25.1877 27.5221 24.7771Z" fill="white"/>
<path fill-rule="evenodd" clip-rule="evenodd" d="M21.0908 41.3802C21.0908 40.7949 21.5654 40.3203 22.1507 40.3203H26.3406C26.926 40.3203 27.4005 40.7949 27.4005 41.3802C27.4005 41.9656 26.926 42.4402 26.3406 42.4402H22.1507C21.5654 42.4402 21.0908 41.9656 21.0908 41.3802Z" fill="white"/>
<path fill-rule="evenodd" clip-rule="evenodd" d="M41.0269 27.7883C43.0462 27.3437 45.1395 27.3576 47.1527 27.8291C49.1658 28.3006 51.0476 29.2177 52.6595 30.5127C54.2713 31.8078 55.5721 33.4479 56.4662 35.3122C57.3601 37.1763 57.8246 39.2172 57.8255 41.2846C57.8278 43.2898 57.3925 45.2714 56.5498 47.0909C56.5494 47.0918 56.549 47.0927 56.5486 47.0935L50.3611 60.6425C50.1888 61.0199 49.812 61.2621 49.397 61.2621H38.6028C38.1878 61.2621 37.811 61.0199 37.6387 60.6425L31.4508 47.0928C31.4505 47.092 31.4501 47.0913 31.4498 47.0905C30.5827 45.2144 30.1473 43.1677 30.1756 41.1011C30.2039 39.0336 30.6956 36.9988 31.6144 35.1465C32.5333 33.2943 33.8559 31.6717 35.4848 30.3982C37.1138 29.1248 39.0076 28.2329 41.0269 27.7883ZM46.6693 29.8931C44.9648 29.4939 43.1924 29.4821 41.4828 29.8585C39.7731 30.235 38.1696 30.9901 36.7904 32.0683C35.4112 33.1465 34.2914 34.5203 33.5135 36.0886C32.7355 37.6568 32.3192 39.3796 32.2953 41.1301C32.2713 42.8806 32.6402 44.6141 33.3749 46.2031L33.377 46.2076L39.284 59.1423H48.7158L54.6228 46.2076L54.6252 46.2023C55.3389 44.6621 55.7076 42.9846 55.7056 41.287V41.2862C55.705 39.5356 55.3117 37.8074 54.5548 36.2289C53.7978 34.6504 52.6964 33.2617 51.3317 32.1652C49.967 31.0687 48.3738 30.2923 46.6693 29.8931Z" fill="white"/>
<path d="M38.5942 60.2021H49.4054V64.1652C49.4054 65.5988 48.8359 66.9738 47.8222 67.9875C46.8084 69.0013 45.4335 69.5708 43.9998 69.5708C42.5662 69.5708 41.1912 69.0013 40.1775 67.9875C39.1638 66.9738 38.5942 65.5988 38.5942 64.1652V60.2021Z" fill="#BDBDBD"/>
<path d="M45.9894 60.2021V64.1652C45.9882 65.2987 45.6308 66.4032 44.9675 67.3225C44.3043 68.2418 43.3688 68.9293 42.2935 69.2878C42.8435 69.4724 43.4197 69.5669 43.9999 69.5676C44.7098 69.5676 45.4127 69.4278 46.0686 69.1561C46.7244 68.8845 47.3203 68.4863 47.8223 67.9843C48.3242 67.4824 48.7224 66.8865 48.994 66.2306C49.2657 65.5748 49.4055 64.8719 49.4055 64.162V60.2021H45.9894Z" fill="#CFCFCF"/>
<path fill-rule="evenodd" clip-rule="evenodd" d="M37.5344 60.2015C37.5344 59.6161 38.009 59.1416 38.5943 59.1416H49.4055C49.9909 59.1416 50.4654 59.6161 50.4654 60.2015V64.1646C50.4654 65.8793 49.7842 67.5238 48.5717 68.7364C47.3592 69.9489 45.7147 70.6301 43.9999 70.6301C42.2852 70.6301 40.6406 69.9489 39.4281 68.7364C38.2156 67.5238 37.5344 65.8793 37.5344 64.1646V60.2015ZM39.6543 61.2614V64.1646C39.6543 65.3171 40.1121 66.4224 40.9271 67.2374C41.7421 68.0524 42.8474 68.5102 43.9999 68.5102C45.1525 68.5102 46.2578 68.0524 47.0728 67.2374C47.8878 66.4224 48.3456 65.3171 48.3456 64.1646V61.2614H39.6543Z" fill="white"/>
<path fill-rule="evenodd" clip-rule="evenodd" d="M36.198 63.9505C36.198 63.3652 36.6725 62.8906 37.2579 62.8906H50.7422C51.3276 62.8906 51.8021 63.3652 51.8021 63.9505C51.8021 64.5359 51.3276 65.0105 50.7422 65.0105H37.2579C36.6725 65.0105 36.198 64.5359 36.198 63.9505Z" fill="white"/>
<path fill-rule="evenodd" clip-rule="evenodd" d="M36.198 60.2015C36.198 59.6161 36.6725 59.1416 37.2579 59.1416H50.7422C51.3276 59.1416 51.8021 59.6161 51.8021 60.2015C51.8021 60.7869 51.3276 61.2614 50.7422 61.2614H37.2579C36.6725 61.2614 36.198 60.7869 36.198 60.2015Z" fill="white"/>
</svg>
