<svg width="88" height="88" viewBox="0 0 88 88" fill="none" xmlns="http://www.w3.org/2000/svg">
<rect x="4" y="4" width="80" height="80" rx="16" stroke="#CF9C63" stroke-width="8"/>
<path d="M68.8078 29.4269C68.6054 29.0126 68.2968 28.6588 67.9133 28.4011C67.5298 28.1434 67.0849 27.9909 66.6233 27.959L64.3434 27.7504L68.355 23.7199C68.6102 23.4595 68.7518 23.1092 68.7488 22.7453C68.7458 22.3814 68.5986 22.0335 68.3392 21.7772C68.0797 21.5209 67.7291 21.3771 67.3637 21.3771C66.9983 21.377 66.6476 21.5207 66.3881 21.777L62.3549 25.829L62.1394 23.4943C62.1074 23.0349 61.9545 22.5921 61.6959 22.2103C61.4374 21.8286 61.0824 21.5214 60.6667 21.3197C60.2008 21.1056 59.6801 21.0396 59.1751 21.1306C58.6702 21.2215 58.2057 21.4651 57.8447 21.8281L54.8559 24.8049C54.7119 24.9484 54.6013 25.1217 54.532 25.3124C54.4627 25.5032 54.4364 25.7069 54.455 25.9089L54.9757 31.5466C55.0203 32.0295 54.9582 32.5163 54.7936 32.9727C54.6291 33.4292 54.3661 33.8442 54.0232 34.1886L43.5853 44.6724C43.4566 44.8015 43.3547 44.9545 43.2854 45.1228C43.2162 45.2912 43.1809 45.4714 43.1817 45.6533C43.1824 45.8352 43.2191 46.0151 43.2897 46.1829C43.3604 46.3506 43.4635 46.5029 43.5932 46.6309C43.7213 46.758 43.8735 46.8583 44.041 46.9261C44.2085 46.9939 44.3879 47.0278 44.5686 47.0257C44.7511 47.0263 44.9319 46.9911 45.1007 46.922C45.2695 46.8529 45.4229 46.7514 45.5522 46.6231L56.0507 36.079C56.3969 35.7313 56.8162 35.4641 57.2783 35.2966C57.7405 35.1291 58.2341 35.0654 58.7238 35.1102L64.1987 35.6112C64.2414 35.6151 64.284 35.6171 64.3257 35.6171C64.508 35.6171 64.6885 35.5813 64.8569 35.5118C65.0253 35.4424 65.1782 35.3405 65.3071 35.2121L68.2969 32.2358C68.6615 31.8766 68.9061 31.4142 68.9975 30.9116C69.0889 30.4091 69.0227 29.8906 68.8078 29.4269ZM63.8049 32.7995L57.8283 32.2527L57.2784 26.3015L59.4146 24.1739L59.8585 28.9809C59.8881 29.3023 60.0298 29.6034 60.259 29.8316C60.4882 30.0599 60.7905 30.2011 61.1133 30.2306L65.9402 30.6726L63.8049 32.7995Z" fill="white"/>
<path d="M48.7884 37.8829C46.7121 36.7229 44.2852 36.3559 41.9588 36.8503C39.6323 37.3447 37.5644 38.6668 36.1392 40.5709C34.714 42.4751 34.0285 44.8318 34.21 47.2033C34.3915 49.5748 35.4277 51.7998 37.1261 53.4649C38.8244 55.13 41.0695 56.1219 43.4441 56.2565C45.8187 56.3911 48.1614 55.6591 50.037 54.1965C51.9126 52.734 53.1935 50.6403 53.6418 48.3045C54.0901 45.9687 53.6752 43.5496 52.4743 41.4966L49.7271 43.9993C50.5123 45.3417 50.5974 46.1367 50.3043 47.664C50.0112 49.1913 49.1736 50.5603 47.9473 51.5166C46.7209 52.4729 45.189 52.9515 43.6364 52.8636C42.0837 52.7756 40.6157 52.1269 39.5052 51.0382C38.3947 49.9495 37.7172 48.4946 37.5985 46.944C37.4798 45.3933 37.9281 43.8523 38.8599 42.6073C39.7918 41.3622 41.144 40.4977 42.6652 40.1745C44.1864 39.8512 45.2271 39.9084 46.4544 40.5709L48.7884 37.8829Z" fill="white"/>
<path d="M54.2272 30.0903C49.7272 27.6357 46.4545 26.9918 41.3838 26.9918C36.4897 27.6497 32.0232 30.1273 28.8742 33.931C25.7252 37.7348 24.125 42.5853 24.3923 47.5161C24.6596 52.4469 26.7749 57.096 30.3166 60.537C33.8584 63.978 38.5665 65.9582 43.503 66.0832C48.4395 66.2081 53.2418 64.4686 56.9531 61.2112C60.6644 57.9537 63.0121 53.4176 63.5285 48.5066C64.0449 43.5956 62.8181 38.6812 59.5455 35.8175L56.6126 37.0448C58.9785 40.2166 60.0626 44.1633 59.6488 48.0986C59.235 52.034 57.3537 55.6689 54.3797 58.2792C51.4057 60.8895 47.5575 62.2834 43.6017 62.1833C39.646 62.0832 35.8731 60.4963 33.035 57.739C30.1969 54.9816 28.5019 51.2561 28.2877 47.3049C28.0735 43.3537 29.3558 39.4668 31.8792 36.4188C34.4026 33.3707 37.9817 31.3853 41.9035 30.8581C45.8252 30.331 49.8016 31.3007 53.0404 33.5742L54.2272 30.0903Z" fill="white"/>
</svg>
