<svg width="64" height="63" viewBox="0 0 64 63" fill="none" xmlns="http://www.w3.org/2000/svg">
<g filter="url(#filter0_d_530_1435)">
<path d="M47.5478 0H16.4522C9.57505 0 4 5.57505 4 12.4522V41.8846C4 48.7618 9.57505 54.3368 16.4522 54.3368H47.5478C54.4249 54.3368 60 48.7618 60 41.8846V12.4522C60 5.57505 54.4249 0 47.5478 0Z" fill="white"/>
<path d="M25.5186 46.6661C29.0964 46.6661 32.0001 43.7624 32.0001 40.1846V33.7031H25.5186C21.9408 33.7031 19.0371 36.6068 19.0371 40.1846C19.0371 43.7624 21.9408 46.6661 25.5186 46.6661Z" fill="#0ACF83"/>
<path d="M19.0371 27.2217C19.0371 23.6439 21.9408 20.7402 25.5186 20.7402H32.0001V33.7032H25.5186C21.9408 33.7032 19.0371 30.7995 19.0371 27.2217Z" fill="#A259FF"/>
<path d="M19.0371 14.2588C19.0371 10.681 21.9408 7.77734 25.5186 7.77734H32.0001V20.7403H25.5186C21.9408 20.7403 19.0371 17.8366 19.0371 14.2588Z" fill="#F24E1E"/>
<path d="M32 7.77734H38.4815C42.0593 7.77734 44.963 10.681 44.963 14.2588C44.963 17.8366 42.0593 20.7403 38.4815 20.7403H32V7.77734Z" fill="#FF7262"/>
<path d="M44.963 27.2217C44.963 30.7995 42.0593 33.7032 38.4815 33.7032C34.9037 33.7032 32 30.7995 32 27.2217C32 23.6439 34.9037 20.7402 38.4815 20.7402C42.0593 20.7402 44.963 23.6439 44.963 27.2217Z" fill="#1ABCFE"/>
</g>
<defs>
<filter id="filter0_d_530_1435" x="0" y="0" width="64" height="62.3369" filterUnits="userSpaceOnUse" color-interpolation-filters="sRGB">
<feFlood flood-opacity="0" result="BackgroundImageFix"/>
<feColorMatrix in="SourceAlpha" type="matrix" values="0 0 0 0 0 0 0 0 0 0 0 0 0 0 0 0 0 0 127 0" result="hardAlpha"/>
<feOffset dy="4"/>
<feGaussianBlur stdDeviation="2"/>
<feComposite in2="hardAlpha" operator="out"/>
<feColorMatrix type="matrix" values="0 0 0 0 1 0 0 0 0 1 0 0 0 0 1 0 0 0 0.25 0"/>
<feBlend mode="normal" in2="BackgroundImageFix" result="effect1_dropShadow_530_1435"/>
<feBlend mode="normal" in="SourceGraphic" in2="effect1_dropShadow_530_1435" result="shape"/>
</filter>
</defs>
</svg>
