<svg width="64" height="63" viewBox="0 0 64 63" fill="none" xmlns="http://www.w3.org/2000/svg">
<g filter="url(#filter0_d_530_1434)">
<path d="M47.5478 0H16.4522C9.57505 0 4 5.57505 4 12.4522V41.8846C4 48.7618 9.57505 54.3368 16.4522 54.3368H47.5478C54.4249 54.3368 60 48.7618 60 41.8846V12.4522C60 5.57505 54.4249 0 47.5478 0Z" fill="#271302"/>
<path d="M47.548 2.59277H16.4524C11.0071 2.59277 6.59277 7.00708 6.59277 12.4524V41.8848C6.59277 47.3301 11.0071 51.7444 16.4524 51.7444H47.548C52.9933 51.7444 57.4076 47.3301 57.4076 41.8848V12.4524C57.4076 7.00708 52.9933 2.59277 47.548 2.59277Z" fill="#271302"/>
<path d="M23.6196 32.7287L22.0394 37.6028C22.0174 37.6806 21.9697 37.7487 21.904 37.7958C21.8382 37.8429 21.7585 37.8663 21.6777 37.862H17.8575C17.6268 37.862 17.5607 37.7324 17.5983 37.5328L24.1834 18.5317C24.3131 18.17 24.4427 17.7746 24.5127 16.5237C24.5098 16.4671 24.5287 16.4116 24.5657 16.3686C24.6026 16.3256 24.6547 16.2986 24.711 16.293H29.9792C30.1438 16.293 30.2099 16.3254 30.2385 16.49L37.7142 37.5652C37.7803 37.7298 37.7466 37.862 37.5496 37.862H33.2718C33.1935 37.8733 33.1139 37.8562 33.0471 37.8139C32.9803 37.7716 32.9308 37.7068 32.9075 37.6313L31.2223 32.7248L23.6196 32.7287ZM30.009 28.613C29.3505 26.4391 28.0322 22.4543 27.4073 20.117H27.3736C26.8473 22.3207 25.6612 25.9504 24.8057 28.613H30.009Z" fill="#FF7C01"/>
<path d="M39.6895 17.1859C39.6895 15.7043 40.7757 14.6504 42.2574 14.6504C43.8376 14.6504 44.793 15.7043 44.793 17.1859C44.793 18.7337 43.7728 19.7539 42.225 19.7539C40.6772 19.7539 39.6895 18.7337 39.6895 17.1859ZM39.9189 21.7632C39.9189 21.5985 39.985 21.5039 40.1782 21.5039H44.2278C44.4261 21.5039 44.487 21.5687 44.487 21.7632V37.5689C44.487 37.7672 44.4546 37.8658 44.1915 37.8658H40.2482C40.0187 37.8658 39.9189 37.7672 39.9189 37.5689V21.7632Z" fill="#FF7C01"/>
</g>
<defs>
<filter id="filter0_d_530_1434" x="0" y="0" width="64" height="62.3369" filterUnits="userSpaceOnUse" color-interpolation-filters="sRGB">
<feFlood flood-opacity="0" result="BackgroundImageFix"/>
<feColorMatrix in="SourceAlpha" type="matrix" values="0 0 0 0 0 0 0 0 0 0 0 0 0 0 0 0 0 0 127 0" result="hardAlpha"/>
<feOffset dy="4"/>
<feGaussianBlur stdDeviation="2"/>
<feComposite in2="hardAlpha" operator="out"/>
<feColorMatrix type="matrix" values="0 0 0 0 0 0 0 0 0 0 0 0 0 0 0 0 0 0 0.25 0"/>
<feBlend mode="normal" in2="BackgroundImageFix" result="effect1_dropShadow_530_1434"/>
<feBlend mode="normal" in="SourceGraphic" in2="effect1_dropShadow_530_1434" result="shape"/>
</filter>
</defs>
</svg>
