<svg width="63" height="63" viewBox="0 0 63 63" fill="none" xmlns="http://www.w3.org/2000/svg">
<g filter="url(#filter0_d_1043_59)">
<path d="M11.8571 0H51.1429C55.4643 0 59 3.53571 59 7.85714V47.1429C59 51.4643 55.4643 55 51.1429 55H11.8571C7.53571 55 4 51.4643 4 47.1429V7.85714C4 3.53571 7.53571 0 11.8571 0Z" fill="#009BC5"/>
<path d="M54.0895 27.5003C54.0895 24.3574 50.3573 21.8039 44.8573 20.036C46.2323 14.3396 45.6431 9.82171 43.0895 8.44671C42.3038 8.05385 41.7145 7.85742 40.9288 7.85742C38.3752 7.85742 35.2323 9.62528 32.0895 12.7681C28.7502 9.62528 25.6074 7.85742 23.0538 7.85742C22.2681 7.85742 21.4824 8.05385 20.8931 8.44671C18.3395 9.82171 17.7502 14.3396 19.1252 20.036C13.6252 21.8039 9.89307 24.3574 9.89307 27.5003C9.89307 30.6431 13.6252 33.1967 19.1252 34.9646C17.7502 40.661 18.1431 45.1788 20.8931 46.7503C21.4824 47.1431 22.2681 47.3396 23.0538 47.3396C25.6074 47.3396 28.7502 45.5717 31.8931 42.4289C35.0359 45.5717 38.3752 47.3396 40.7324 47.3396C41.5181 47.3396 42.3038 47.1431 42.8931 46.7503C45.4466 45.1788 46.0359 40.661 44.6609 34.9646C50.3574 33.1967 54.0895 30.4467 54.0895 27.5003ZM40.9288 10.0181C41.3216 10.0181 41.7145 10.0181 41.9109 10.2146C43.0895 11.0003 43.6788 13.5539 43.2859 16.8931C43.0895 17.6789 43.0895 18.661 42.8931 19.4467C41.1252 19.0538 39.1609 18.661 37.1966 18.4646C36.0181 16.8931 34.8395 15.3217 33.6609 14.1431C36.4109 11.3931 39.1609 10.0181 40.9288 10.0181ZM37.9823 31.036C37.3931 32.2146 36.6073 33.1967 36.0181 34.3753C34.6431 34.3753 33.4645 34.5717 32.0895 34.5717C30.7145 34.5717 29.3395 34.5717 28.1609 34.3753C27.3752 33.3931 26.7859 32.2146 26.1966 31.036C25.6074 29.8574 25.0181 28.6789 24.4288 27.5003C25.0181 26.3217 25.6074 25.1431 26.1966 23.9646C26.7859 22.786 27.5716 21.6074 28.3574 20.6253C29.5359 20.6253 30.9109 20.4288 32.2859 20.4288C33.6609 20.4288 34.8395 20.4289 36.2145 20.6253C37.0002 21.6074 37.5895 22.786 38.3752 23.9646C38.9645 25.1431 39.5538 26.3217 40.1431 27.5003C39.3573 28.6789 38.5716 29.8574 37.9823 31.036ZM40.9288 30.0538C41.3216 31.2324 41.7145 32.2146 42.1073 33.3931C40.9288 33.5896 39.7502 33.786 38.5716 33.9824C38.9645 33.3931 39.3574 32.8038 39.7502 32.0181C40.1431 31.4288 40.5359 30.6431 40.9288 30.0538ZM31.8931 39.286C31.1074 38.5003 30.3216 37.5181 29.5359 36.536C30.3216 36.536 31.1074 36.536 31.8931 36.536C32.6788 36.536 33.4645 36.536 34.2502 36.536C33.4645 37.5181 32.6788 38.5003 31.8931 39.286ZM25.2145 33.9824C24.0359 33.786 22.8574 33.5896 21.6788 33.3931C22.0716 32.2146 22.4645 31.2324 22.8574 30.0538C23.2502 30.6431 23.6431 31.4288 24.0359 32.0181C24.4288 32.8038 24.8216 33.3931 25.2145 33.9824ZM23.0538 24.9467C22.6609 23.7681 22.2681 22.5896 21.8752 21.6074C23.0538 21.411 24.2324 21.2146 25.4109 21.0181C25.0181 21.6074 24.6252 22.3931 24.2324 22.9824C23.6431 23.5717 23.2502 24.3574 23.0538 24.9467ZM31.8931 15.7146C32.6788 16.5003 33.4645 17.4824 34.2502 18.4646C33.4645 18.4646 32.6788 18.4646 31.8931 18.4646C31.1074 18.4646 30.3216 18.4646 29.5359 18.4646C30.3216 17.4824 31.1074 16.5003 31.8931 15.7146ZM39.7502 22.9824C39.3574 22.1967 38.9645 21.6074 38.5716 21.0181C39.7502 21.2146 40.9288 21.411 42.1073 21.6074C41.7145 22.786 41.3216 23.9646 40.9288 24.9467C40.5359 24.3574 40.1431 23.5717 39.7502 22.9824ZM20.6966 16.8931C20.3038 13.5539 20.6966 11.0003 22.0716 10.2146C22.2681 10.0181 22.6609 10.0181 23.0538 10.0181C24.8216 10.0181 27.5716 11.3931 30.5181 14.3396C29.3395 15.7146 28.1609 17.0896 26.9824 18.661C25.0181 18.8574 23.0538 19.2503 21.2859 19.6431C20.8931 18.661 20.6966 17.6789 20.6966 16.8931ZM17.1609 31.8217C14.0181 30.4467 12.0538 28.8753 12.0538 27.3038C12.0538 25.9288 14.0181 24.161 17.1609 22.786C17.9466 22.3931 18.7324 22.1967 19.7145 22.0003C20.3038 23.7681 20.8931 25.536 21.6788 27.3038C20.8931 29.0717 20.1074 30.8396 19.7145 32.6074C18.7324 32.6074 17.9466 32.2146 17.1609 31.8217ZM22.0716 44.786C20.8931 44.0003 20.3038 41.4467 20.6966 38.1074C20.8931 37.3217 20.8931 36.3396 21.2859 35.3574C23.0538 35.7503 24.8216 36.1431 26.7859 36.3396C27.9645 37.911 29.1431 39.4824 30.5181 40.8574C27.5716 43.6074 24.8216 45.1789 23.0538 45.1789C22.6609 44.9824 22.2681 44.9824 22.0716 44.786ZM43.2859 38.1074C43.6788 41.4467 43.2859 44.0003 41.9109 44.786C41.7145 44.9824 41.3216 44.9824 40.9288 44.9824C39.1609 44.9824 36.4109 43.6074 33.4645 40.661C34.6431 39.286 36.0181 37.911 37.1966 36.1431C39.1609 35.9467 41.1252 35.7503 42.6966 35.161C42.8931 36.3396 43.0895 37.3217 43.2859 38.1074ZM46.8216 31.8217C46.0359 32.2146 45.2502 32.411 44.2681 32.8039C43.6788 31.036 43.0895 29.2681 42.3038 27.5003C43.0895 25.7324 43.8752 23.7681 44.2681 22.1967C45.2502 22.3931 46.0359 22.786 46.8216 22.9824C49.9645 24.3574 51.9288 25.9289 51.9288 27.5003C51.9288 28.8753 49.9645 30.6431 46.8216 31.8217Z" fill="white"/>
<path d="M32.0898 31.625C34.447 31.625 36.2148 29.8571 36.2148 27.5C36.2148 25.1429 34.447 23.375 32.0898 23.375C29.7327 23.375 27.9648 25.1429 27.9648 27.5C27.9648 29.8571 29.7327 31.625 32.0898 31.625Z" fill="white"/>
</g>
<defs>
<filter id="filter0_d_1043_59" x="0" y="0" width="63" height="63" filterUnits="userSpaceOnUse" color-interpolation-filters="sRGB">
<feFlood flood-opacity="0" result="BackgroundImageFix"/>
<feColorMatrix in="SourceAlpha" type="matrix" values="0 0 0 0 0 0 0 0 0 0 0 0 0 0 0 0 0 0 127 0" result="hardAlpha"/>
<feOffset dy="4"/>
<feGaussianBlur stdDeviation="2"/>
<feComposite in2="hardAlpha" operator="out"/>
<feColorMatrix type="matrix" values="0 0 0 0 0 0 0 0 0 0 0 0 0 0 0 0 0 0 0.25 0"/>
<feBlend mode="normal" in2="BackgroundImageFix" result="effect1_dropShadow_1043_59"/>
<feBlend mode="normal" in="SourceGraphic" in2="effect1_dropShadow_1043_59" result="shape"/>
</filter>
</defs>
</svg>
