<svg width="48" height="452" viewBox="0 0 48 452" fill="none" xmlns="http://www.w3.org/2000/svg">
<path d="M40.8261 346.497H42.6149V348.598H43.2112V346.497H45V345.797H43.2112V343.696H42.6149V345.797H40.8261V346.497Z" fill="#FAFAFA" fill-opacity="0.8"/>
<path d="M40.8261 353.85H42.6149V355.951H43.2112V353.85H45V353.15H43.2112V351.049H42.6149V353.15H40.8261V353.85Z" fill="#FAFAFA" fill-opacity="0.8"/>
<path d="M40.8261 361.202H42.6149V363.303H43.2112V361.202H45V360.502H43.2112V358.401H42.6149V360.502H40.8261V361.202Z" fill="#FAFAFA" fill-opacity="0.8"/>
<path d="M40.8261 368.555H42.6149V370.656H43.2112V368.555H45V367.855H43.2112V365.754H42.6149V367.855H40.8261V368.555Z" fill="#FAFAFA" fill-opacity="0.8"/>
<path d="M34.5654 346.497H36.3542V348.598H36.9505V346.497H38.7393V345.797H36.9505V343.696H36.3542V345.797H34.5654V346.497Z" fill="#FAFAFA" fill-opacity="0.8"/>
<path d="M34.5654 353.85H36.3542V355.951H36.9505V353.85H38.7393V353.15H36.9505V351.049H36.3542V353.15H34.5654V353.85Z" fill="#FAFAFA" fill-opacity="0.8"/>
<path d="M34.5654 361.202H36.3542V363.303H36.9505V361.202H38.7393V360.502H36.9505V358.401H36.3542V360.502H34.5654V361.202Z" fill="#FAFAFA" fill-opacity="0.8"/>
<path d="M34.5654 368.555H36.3542V370.656H36.9505V368.555H38.7393V367.855H36.9505V365.754H36.3542V367.855H34.5654V368.555Z" fill="#FAFAFA" fill-opacity="0.8"/>
<path d="M28.3046 346.497H30.0934V348.598H30.6897V346.497H32.4785V345.797H30.6897V343.696H30.0934V345.797H28.3046V346.497Z" fill="#FAFAFA" fill-opacity="0.8"/>
<path d="M28.3046 353.85H30.0934V355.951H30.6897V353.85H32.4785V353.15H30.6897V351.049H30.0934V353.15H28.3046V353.85Z" fill="#FAFAFA" fill-opacity="0.8"/>
<path d="M28.3046 361.202H30.0934V363.303H30.6897V361.202H32.4785V360.502H30.6897V358.401H30.0934V360.502H28.3046V361.202Z" fill="#FAFAFA" fill-opacity="0.8"/>
<path d="M28.3046 368.555H30.0934V370.656H30.6897V368.555H32.4785V367.855H30.6897V365.754H30.0934V367.855H28.3046V368.555Z" fill="#FAFAFA" fill-opacity="0.8"/>
<path d="M22.0434 346.497H23.8322V348.598H24.4285V346.497H26.2173V345.797H24.4285V343.696H23.8322V345.797H22.0434V346.497Z" fill="#FAFAFA" fill-opacity="0.8"/>
<path d="M22.0434 353.85H23.8322V355.951H24.4285V353.85H26.2173V353.15H24.4285V351.049H23.8322V353.15H22.0434V353.85Z" fill="#FAFAFA" fill-opacity="0.8"/>
<path d="M22.0434 361.202H23.8322V363.303H24.4285V361.202H26.2173V360.502H24.4285V358.401H23.8322V360.502H22.0434V361.202Z" fill="#FAFAFA" fill-opacity="0.8"/>
<path d="M22.0434 368.555H23.8322V370.656H24.4285V368.555H26.2173V367.855H24.4285V365.754H23.8322V367.855H22.0434V368.555Z" fill="#FAFAFA" fill-opacity="0.8"/>
<path d="M15.7827 346.497H17.5715V348.598H18.1677V346.497H19.9565V345.797H18.1677V343.696H17.5715V345.797H15.7827V346.497Z" fill="#FAFAFA" fill-opacity="0.8"/>
<path d="M15.7827 353.85H17.5715V355.951H18.1677V353.85H19.9565V353.15H18.1677V351.049H17.5715V353.15H15.7827V353.85Z" fill="#FAFAFA" fill-opacity="0.8"/>
<path d="M15.7827 361.202H17.5715V363.303H18.1677V361.202H19.9565V360.502H18.1677V358.401H17.5715V360.502H15.7827V361.202Z" fill="#FAFAFA" fill-opacity="0.8"/>
<path d="M15.7827 368.555H17.5715V370.656H18.1677V368.555H19.9565V367.855H18.1677V365.754H17.5715V367.855H15.7827V368.555Z" fill="#FAFAFA" fill-opacity="0.8"/>
<path d="M9.52192 346.497H11.3107V348.598H11.907V346.497H13.6958V345.797H11.907V343.696H11.3107V345.797H9.52192V346.497Z" fill="#FAFAFA" fill-opacity="0.8"/>
<path d="M9.52192 353.85H11.3107V355.951H11.907V353.85H13.6958V353.15H11.907V351.049H11.3107V353.15H9.52192V353.85Z" fill="#FAFAFA" fill-opacity="0.8"/>
<path d="M9.52192 361.202H11.3107V363.303H11.907V361.202H13.6958V360.502H11.907V358.401H11.3107V360.502H9.52192V361.202Z" fill="#FAFAFA" fill-opacity="0.8"/>
<path d="M9.52192 368.555H11.3107V370.656H11.907V368.555H13.6958V367.855H11.907V365.754H11.3107V367.855H9.52192V368.555Z" fill="#FAFAFA" fill-opacity="0.8"/>
<path d="M3.26069 346.497H5.0495V348.598H5.64576V346.497H7.43457V345.797H5.64576V343.696H5.0495V345.797H3.26069V346.497Z" fill="#FAFAFA" fill-opacity="0.8"/>
<path d="M3.26069 353.85H5.0495V355.951H5.64576V353.85H7.43457V353.15H5.64576V351.049H5.0495V353.15H3.26069V353.85Z" fill="#FAFAFA" fill-opacity="0.8"/>
<path d="M3.26069 361.202H5.0495V363.303H5.64576V361.202H7.43457V360.502H5.64576V358.401H5.0495V360.502H3.26069V361.202Z" fill="#FAFAFA" fill-opacity="0.8"/>
<path d="M3.26069 368.555H5.0495V370.656H5.64576V368.555H7.43457V367.855H5.64576V365.754H5.0495V367.855H3.26069V368.555Z" fill="#FAFAFA" fill-opacity="0.8"/>
<path d="M40.8261 405.32H42.6149V407.42H43.2112V405.32H45V404.619H43.2112V402.519H42.6149V404.619H40.8261V405.32Z" fill="#FAFAFA" fill-opacity="0.8"/>
<path d="M40.8261 412.672H42.6149V414.773H43.2112V412.672H45V411.972H43.2112V409.871H42.6149V411.972H40.8261V412.672Z" fill="#FAFAFA" fill-opacity="0.8"/>
<path d="M40.8261 420.025H42.6149V422.125H43.2112V420.025H45V419.324H43.2112V417.224H42.6149V419.324H40.8261V420.025Z" fill="#FAFAFA" fill-opacity="0.8"/>
<path d="M40.8261 427.377H42.6149V429.478H43.2112V427.377H45V426.677H43.2112V424.576H42.6149V426.677H40.8261V427.377Z" fill="#FAFAFA" fill-opacity="0.8"/>
<path d="M34.5654 405.32H36.3542V407.42H36.9505V405.32H38.7393V404.619H36.9505V402.519H36.3542V404.619H34.5654V405.32Z" fill="#FAFAFA" fill-opacity="0.8"/>
<path d="M34.5654 412.672H36.3542V414.773H36.9505V412.672H38.7393V411.972H36.9505V409.871H36.3542V411.972H34.5654V412.672Z" fill="#FAFAFA" fill-opacity="0.8"/>
<path d="M34.5654 420.025H36.3542V422.125H36.9505V420.025H38.7393V419.324H36.9505V417.224H36.3542V419.324H34.5654V420.025Z" fill="#FAFAFA" fill-opacity="0.8"/>
<path d="M34.5654 427.377H36.3542V429.478H36.9505V427.377H38.7393V426.677H36.9505V424.576H36.3542V426.677H34.5654V427.377Z" fill="#FAFAFA" fill-opacity="0.8"/>
<path d="M28.3046 405.32H30.0934V407.42H30.6897V405.32H32.4785V404.619H30.6897V402.519H30.0934V404.619H28.3046V405.32Z" fill="#FAFAFA" fill-opacity="0.8"/>
<path d="M28.3046 412.672H30.0934V414.773H30.6897V412.672H32.4785V411.972H30.6897V409.871H30.0934V411.972H28.3046V412.672Z" fill="#FAFAFA" fill-opacity="0.8"/>
<path d="M28.3046 420.025H30.0934V422.125H30.6897V420.025H32.4785V419.324H30.6897V417.224H30.0934V419.324H28.3046V420.025Z" fill="#FAFAFA" fill-opacity="0.8"/>
<path d="M28.3046 427.377H30.0934V429.478H30.6897V427.377H32.4785V426.677H30.6897V424.576H30.0934V426.677H28.3046V427.377Z" fill="#FAFAFA" fill-opacity="0.8"/>
<path d="M22.0434 405.32H23.8322V407.42H24.4285V405.32H26.2173V404.619H24.4285V402.519H23.8322V404.619H22.0434V405.32Z" fill="#FAFAFA" fill-opacity="0.8"/>
<path d="M22.0434 412.672H23.8322V414.773H24.4285V412.672H26.2173V411.972H24.4285V409.871H23.8322V411.972H22.0434V412.672Z" fill="#FAFAFA" fill-opacity="0.8"/>
<path d="M22.0434 420.025H23.8322V422.125H24.4285V420.025H26.2173V419.324H24.4285V417.224H23.8322V419.324H22.0434V420.025Z" fill="#FAFAFA" fill-opacity="0.8"/>
<path d="M22.0434 427.377H23.8322V429.478H24.4285V427.377H26.2173V426.677H24.4285V424.576H23.8322V426.677H22.0434V427.377Z" fill="#FAFAFA" fill-opacity="0.8"/>
<path d="M15.7827 405.32H17.5715V407.42H18.1677V405.32H19.9565V404.619H18.1677V402.519H17.5715V404.619H15.7827V405.32Z" fill="#FAFAFA" fill-opacity="0.8"/>
<path d="M15.7827 412.672H17.5715V414.773H18.1677V412.672H19.9565V411.972H18.1677V409.871H17.5715V411.972H15.7827V412.672Z" fill="#FAFAFA" fill-opacity="0.8"/>
<path d="M15.7827 420.025H17.5715V422.125H18.1677V420.025H19.9565V419.324H18.1677V417.224H17.5715V419.324H15.7827V420.025Z" fill="#FAFAFA" fill-opacity="0.8"/>
<path d="M15.7827 427.377H17.5715V429.478H18.1677V427.377H19.9565V426.677H18.1677V424.576H17.5715V426.677H15.7827V427.377Z" fill="#FAFAFA" fill-opacity="0.8"/>
<path d="M9.52192 405.32H11.3107V407.42H11.907V405.32H13.6958V404.619H11.907V402.519H11.3107V404.619H9.52192V405.32Z" fill="#FAFAFA" fill-opacity="0.8"/>
<path d="M9.52192 412.672H11.3107V414.773H11.907V412.672H13.6958V411.972H11.907V409.871H11.3107V411.972H9.52192V412.672Z" fill="#FAFAFA" fill-opacity="0.8"/>
<path d="M9.52192 420.025H11.3107V422.125H11.907V420.025H13.6958V419.324H11.907V417.224H11.3107V419.324H9.52192V420.025Z" fill="#FAFAFA" fill-opacity="0.8"/>
<path d="M9.52192 427.377H11.3107V429.478H11.907V427.377H13.6958V426.677H11.907V424.576H11.3107V426.677H9.52192V427.377Z" fill="#FAFAFA" fill-opacity="0.8"/>
<path d="M3.26069 405.32H5.0495V407.42H5.64576V405.32H7.43457V404.619H5.64576V402.519H5.0495V404.619H3.26069V405.32Z" fill="#FAFAFA" fill-opacity="0.8"/>
<path d="M3.26069 412.672H5.0495V414.773H5.64576V412.672H7.43457V411.972H5.64576V409.871H5.0495V411.972H3.26069V412.672Z" fill="#FAFAFA" fill-opacity="0.8"/>
<path d="M3.26069 420.025H5.0495V422.125H5.64576V420.025H7.43457V419.324H5.64576V417.224H5.0495V419.324H3.26069V420.025Z" fill="#FAFAFA" fill-opacity="0.8"/>
<path d="M3.26069 427.377H5.0495V429.478H5.64576V427.377H7.43457V426.677H5.64576V424.576H5.0495V426.677H3.26069V427.377Z" fill="#FAFAFA" fill-opacity="0.8"/>
<path d="M22.0434 434.731H23.8322V436.832H24.4285V434.731H26.2173V434.03H24.4285V431.93H23.8322V434.03H22.0434V434.731Z" fill="#FAFAFA" fill-opacity="0.8"/>
<path d="M22.0434 442.083H23.8322V444.184H24.4285V442.083H26.2173V441.383H24.4285V439.282H23.8322V441.383H22.0434V442.083Z" fill="#FAFAFA" fill-opacity="0.8"/>
<path d="M22.0434 449.436H23.8322V451.537H24.4285V449.436H26.2173V448.736H24.4285V446.635H23.8322V448.736H22.0434V449.436Z" fill="#FAFAFA" fill-opacity="0.8"/>
<path d="M15.7827 434.731H17.5715V436.832H18.1677V434.731H19.9565V434.03H18.1677V431.93H17.5715V434.03H15.7827V434.731Z" fill="#FAFAFA" fill-opacity="0.8"/>
<path d="M15.7827 442.083H17.5715V444.184H18.1677V442.083H19.9565V441.383H18.1677V439.282H17.5715V441.383H15.7827V442.083Z" fill="#FAFAFA" fill-opacity="0.8"/>
<path d="M15.7827 449.436H17.5715V451.537H18.1677V449.436H19.9565V448.736H18.1677V446.635H17.5715V448.736H15.7827V449.436Z" fill="#FAFAFA" fill-opacity="0.8"/>
<path d="M9.52192 434.731H11.3107V436.832H11.907V434.731H13.6958V434.03H11.907V431.93H11.3107V434.03H9.52192V434.731Z" fill="#FAFAFA" fill-opacity="0.8"/>
<path d="M9.52192 442.083H11.3107V444.184H11.907V442.083H13.6958V441.383H11.907V439.282H11.3107V441.383H9.52192V442.083Z" fill="#FAFAFA" fill-opacity="0.8"/>
<path d="M9.52192 449.436H11.3107V451.537H11.907V449.436H13.6958V448.736H11.907V446.635H11.3107V448.736H9.52192V449.436Z" fill="#FAFAFA" fill-opacity="0.8"/>
<path d="M3.26069 434.731H5.0495V436.832H5.64576V434.731H7.43457V434.03H5.64576V431.93H5.0495V434.03H3.26069V434.731Z" fill="#FAFAFA" fill-opacity="0.8"/>
<path d="M3.26069 442.083H5.0495V444.184H5.64576V442.083H7.43457V441.383H5.64576V439.282H5.0495V441.383H3.26069V442.083Z" fill="#FAFAFA" fill-opacity="0.8"/>
<path d="M3.26069 449.436H5.0495V451.537H5.64576V449.436H7.43457V448.736H5.64576V446.635H5.0495V448.736H3.26069V449.436Z" fill="#FAFAFA" fill-opacity="0.8"/>
<path d="M40.8256 375.908H42.6144V378.009H43.2107V375.908H44.9995V375.208H43.2107V373.107H42.6144V375.208H40.8256V375.908Z" fill="#FAFAFA" fill-opacity="0.8"/>
<path d="M40.8256 383.261H42.6144V385.362H43.2107V383.261H44.9995V382.561H43.2107V380.46H42.6144V382.561H40.8256V383.261Z" fill="#FAFAFA" fill-opacity="0.8"/>
<path d="M40.8256 390.614H42.6144V392.714H43.2107V390.614H44.9995V389.913H43.2107V387.812H42.6144V389.913H40.8256V390.614Z" fill="#FAFAFA" fill-opacity="0.8"/>
<path d="M40.8256 397.966H42.6144V400.067H43.2107V397.966H44.9995V397.266H43.2107V395.165H42.6144V397.266H40.8256V397.966Z" fill="#FAFAFA" fill-opacity="0.8"/>
<path d="M34.5649 375.908H36.3537V378.009H36.95V375.908H38.7388V375.208H36.95V373.107H36.3537V375.208H34.5649V375.908Z" fill="#FAFAFA" fill-opacity="0.8"/>
<path d="M34.5649 383.261H36.3537V385.362H36.95V383.261H38.7388V382.561H36.95V380.46H36.3537V382.561H34.5649V383.261Z" fill="#FAFAFA" fill-opacity="0.8"/>
<path d="M34.5649 390.614H36.3537V392.714H36.95V390.614H38.7388V389.913H36.95V387.812H36.3537V389.913H34.5649V390.614Z" fill="#FAFAFA" fill-opacity="0.8"/>
<path d="M34.5649 397.966H36.3537V400.067H36.95V397.966H38.7388V397.266H36.95V395.165H36.3537V397.266H34.5649V397.966Z" fill="#FAFAFA" fill-opacity="0.8"/>
<path d="M28.3041 375.908H30.093V378.009H30.6892V375.908H32.478V375.208H30.6892V373.107H30.093V375.208H28.3041V375.908Z" fill="#FAFAFA" fill-opacity="0.8"/>
<path d="M28.3041 383.261H30.093V385.362H30.6892V383.261H32.478V382.561H30.6892V380.46H30.093V382.561H28.3041V383.261Z" fill="#FAFAFA" fill-opacity="0.8"/>
<path d="M28.3041 390.614H30.093V392.714H30.6892V390.614H32.478V389.913H30.6892V387.812H30.093V389.913H28.3041V390.614Z" fill="#FAFAFA" fill-opacity="0.8"/>
<path d="M28.3041 397.966H30.093V400.067H30.6892V397.966H32.478V397.266H30.6892V395.165H30.093V397.266H28.3041V397.966Z" fill="#FAFAFA" fill-opacity="0.8"/>
<path d="M22.0434 375.908H23.8322V378.009H24.4285V375.908H26.2173V375.208H24.4285V373.107H23.8322V375.208H22.0434V375.908Z" fill="#FAFAFA" fill-opacity="0.8"/>
<path d="M22.0434 383.261H23.8322V385.362H24.4285V383.261H26.2173V382.561H24.4285V380.46H23.8322V382.561H22.0434V383.261Z" fill="#FAFAFA" fill-opacity="0.8"/>
<path d="M22.0434 390.614H23.8322V392.714H24.4285V390.614H26.2173V389.913H24.4285V387.812H23.8322V389.913H22.0434V390.614Z" fill="#FAFAFA" fill-opacity="0.8"/>
<path d="M22.0434 397.966H23.8322V400.067H24.4285V397.966H26.2173V397.266H24.4285V395.165H23.8322V397.266H22.0434V397.966Z" fill="#FAFAFA" fill-opacity="0.8"/>
<path d="M15.7827 375.908H17.5715V378.009H18.1677V375.908H19.9565V375.208H18.1677V373.107H17.5715V375.208H15.7827V375.908Z" fill="#FAFAFA" fill-opacity="0.8"/>
<path d="M15.7827 383.261H17.5715V385.362H18.1677V383.261H19.9565V382.561H18.1677V380.46H17.5715V382.561H15.7827V383.261Z" fill="#FAFAFA" fill-opacity="0.8"/>
<path d="M15.7827 390.614H17.5715V392.714H18.1677V390.614H19.9565V389.913H18.1677V387.812H17.5715V389.913H15.7827V390.614Z" fill="#FAFAFA" fill-opacity="0.8"/>
<path d="M15.7827 397.966H17.5715V400.067H18.1677V397.966H19.9565V397.266H18.1677V395.165H17.5715V397.266H15.7827V397.966Z" fill="#FAFAFA" fill-opacity="0.8"/>
<path d="M9.52192 375.908H11.3107V378.009H11.907V375.908H13.6958V375.208H11.907V373.107H11.3107V375.208H9.52192V375.908Z" fill="#FAFAFA" fill-opacity="0.8"/>
<path d="M9.52192 383.261H11.3107V385.362H11.907V383.261H13.6958V382.561H11.907V380.46H11.3107V382.561H9.52192V383.261Z" fill="#FAFAFA" fill-opacity="0.8"/>
<path d="M9.52192 390.614H11.3107V392.714H11.907V390.614H13.6958V389.913H11.907V387.812H11.3107V389.913H9.52192V390.614Z" fill="#FAFAFA" fill-opacity="0.8"/>
<path d="M9.52192 397.966H11.3107V400.067H11.907V397.966H13.6958V397.266H11.907V395.165H11.3107V397.266H9.52192V397.966Z" fill="#FAFAFA" fill-opacity="0.8"/>
<path d="M3.26069 375.908H5.0495V378.009H5.64576V375.908H7.43457V375.208H5.64576V373.107H5.0495V375.208H3.26069V375.908Z" fill="#FAFAFA" fill-opacity="0.8"/>
<path d="M3.26069 383.261H5.0495V385.362H5.64576V383.261H7.43457V382.561H5.64576V380.46H5.0495V382.561H3.26069V383.261Z" fill="#FAFAFA" fill-opacity="0.8"/>
<path d="M3.26069 390.614H5.0495V392.714H5.64576V390.614H7.43457V389.913H5.64576V387.812H5.0495V389.913H3.26069V390.614Z" fill="#FAFAFA" fill-opacity="0.8"/>
<path d="M3.26069 397.966H5.0495V400.067H5.64576V397.966H7.43457V397.266H5.64576V395.165H5.0495V397.266H3.26069V397.966Z" fill="#FAFAFA" fill-opacity="0.8"/>
<path d="M40.8261 324.439H42.6149V326.54H43.2112V324.439H45V323.738H43.2112V321.638H42.6149V323.738H40.8261V324.439Z" fill="#FAFAFA" fill-opacity="0.8"/>
<path d="M40.8261 331.791H42.6149V333.892H43.2112V331.791H45V331.091H43.2112V328.99H42.6149V331.091H40.8261V331.791Z" fill="#FAFAFA" fill-opacity="0.8"/>
<path d="M40.8261 339.144H42.6149V341.245H43.2112V339.144H45V338.444H43.2112V336.343H42.6149V338.444H40.8261V339.144Z" fill="#FAFAFA" fill-opacity="0.8"/>
<path d="M34.5654 324.439H36.3542V326.54H36.9505V324.439H38.7393V323.738H36.9505V321.638H36.3542V323.738H34.5654V324.439Z" fill="#FAFAFA" fill-opacity="0.8"/>
<path d="M34.5654 331.791H36.3542V333.892H36.9505V331.791H38.7393V331.091H36.9505V328.99H36.3542V331.091H34.5654V331.791Z" fill="#FAFAFA" fill-opacity="0.8"/>
<path d="M34.5654 339.144H36.3542V341.245H36.9505V339.144H38.7393V338.444H36.9505V336.343H36.3542V338.444H34.5654V339.144Z" fill="#FAFAFA" fill-opacity="0.8"/>
<path d="M28.3046 324.439H30.0934V326.54H30.6897V324.439H32.4785V323.738H30.6897V321.638H30.0934V323.738H28.3046V324.439Z" fill="#FAFAFA" fill-opacity="0.8"/>
<path d="M28.3046 331.791H30.0934V333.892H30.6897V331.791H32.4785V331.091H30.6897V328.99H30.0934V331.091H28.3046V331.791Z" fill="#FAFAFA" fill-opacity="0.8"/>
<path d="M28.3046 339.144H30.0934V341.245H30.6897V339.144H32.4785V338.444H30.6897V336.343H30.0934V338.444H28.3046V339.144Z" fill="#FAFAFA" fill-opacity="0.8"/>
<path d="M22.0434 324.439H23.8322V326.54H24.4285V324.439H26.2173V323.738H24.4285V321.638H23.8322V323.738H22.0434V324.439Z" fill="#FAFAFA" fill-opacity="0.8"/>
<path d="M22.0434 331.791H23.8322V333.892H24.4285V331.791H26.2173V331.091H24.4285V328.99H23.8322V331.091H22.0434V331.791Z" fill="#FAFAFA" fill-opacity="0.8"/>
<path d="M22.0434 339.144H23.8322V341.245H24.4285V339.144H26.2173V338.444H24.4285V336.343H23.8322V338.444H22.0434V339.144Z" fill="#FAFAFA" fill-opacity="0.8"/>
<path d="M15.7827 324.439H17.5715V326.54H18.1677V324.439H19.9565V323.738H18.1677V321.638H17.5715V323.738H15.7827V324.439Z" fill="#FAFAFA" fill-opacity="0.8"/>
<path d="M15.7827 331.791H17.5715V333.892H18.1677V331.791H19.9565V331.091H18.1677V328.99H17.5715V331.091H15.7827V331.791Z" fill="#FAFAFA" fill-opacity="0.8"/>
<path d="M15.7827 339.144H17.5715V341.245H18.1677V339.144H19.9565V338.444H18.1677V336.343H17.5715V338.444H15.7827V339.144Z" fill="#FAFAFA" fill-opacity="0.8"/>
<path d="M9.52192 324.439H11.3107V326.54H11.907V324.439H13.6958V323.738H11.907V321.638H11.3107V323.738H9.52192V324.439Z" fill="#FAFAFA" fill-opacity="0.8"/>
<path d="M9.52192 331.791H11.3107V333.892H11.907V331.791H13.6958V331.091H11.907V328.99H11.3107V331.091H9.52192V331.791Z" fill="#FAFAFA" fill-opacity="0.8"/>
<path d="M9.52192 339.144H11.3107V341.245H11.907V339.144H13.6958V338.444H11.907V336.343H11.3107V338.444H9.52192V339.144Z" fill="#FAFAFA" fill-opacity="0.8"/>
<path d="M3.26118 324.439H5.04998V326.54H5.64625V324.439H7.43506V323.738H5.64625V321.638H5.04998V323.738H3.26118V324.439Z" fill="#FAFAFA" fill-opacity="0.8"/>
<path d="M3.26118 331.791H5.04998V333.892H5.64625V331.791H7.43506V331.091H5.64625V328.99H5.04998V331.091H3.26118V331.791Z" fill="#FAFAFA" fill-opacity="0.8"/>
<path d="M3.26118 339.144H5.04998V341.245H5.64625V339.144H7.43506V338.444H5.64625V336.343H5.04998V338.444H3.26118V339.144Z" fill="#FAFAFA" fill-opacity="0.8"/>
<path d="M40.8261 434.731H42.6149V436.832H43.2112V434.731H45V434.03H43.2112V431.93H42.6149V434.03H40.8261V434.731Z" fill="#FAFAFA" fill-opacity="0.8"/>
<path d="M40.8261 442.083H42.6149V444.184H43.2112V442.083H45V441.383H43.2112V439.282H42.6149V441.383H40.8261V442.083Z" fill="#FAFAFA" fill-opacity="0.8"/>
<path d="M40.8261 449.436H42.6149V451.537H43.2112V449.436H45V448.736H43.2112V446.635H42.6149V448.736H40.8261V449.436Z" fill="#FAFAFA" fill-opacity="0.8"/>
<path d="M34.5654 434.731H36.3542V436.832H36.9505V434.731H38.7393V434.03H36.9505V431.93H36.3542V434.03H34.5654V434.731Z" fill="#FAFAFA" fill-opacity="0.8"/>
<path d="M34.5654 442.083H36.3542V444.184H36.9505V442.083H38.7393V441.383H36.9505V439.282H36.3542V441.383H34.5654V442.083Z" fill="#FAFAFA" fill-opacity="0.8"/>
<path d="M34.5654 449.436H36.3542V451.537H36.9505V449.436H38.7393V448.736H36.9505V446.635H36.3542V448.736H34.5654V449.436Z" fill="#FAFAFA" fill-opacity="0.8"/>
<path d="M28.3046 434.731H30.0934V436.832H30.6897V434.731H32.4785V434.03H30.6897V431.93H30.0934V434.03H28.3046V434.731Z" fill="#FAFAFA" fill-opacity="0.8"/>
<path d="M28.3046 442.083H30.0934V444.184H30.6897V442.083H32.4785V441.383H30.6897V439.282H30.0934V441.383H28.3046V442.083Z" fill="#FAFAFA" fill-opacity="0.8"/>
<path d="M28.3046 449.436H30.0934V451.537H30.6897V449.436H32.4785V448.736H30.6897V446.635H30.0934V448.736H28.3046V449.436Z" fill="#FAFAFA" fill-opacity="0.8"/>
<circle cx="24" cy="24" r="22" stroke="#CF9C63" stroke-width="4"/>
</svg>
