<svg width="480" height="505" viewBox="0 0 480 505" fill="none" xmlns="http://www.w3.org/2000/svg">
<g filter="url(#filter0_d_650_4882)">
<path d="M47.5478 88H16.4522C9.57505 88 4 93.575 4 100.452V129.885C4 136.762 9.57505 142.337 16.4522 142.337H47.5478C54.4249 142.337 60 136.762 60 129.885V100.452C60 93.575 54.4249 88 47.5478 88Z" fill="#271302"/>
<path d="M47.548 90.5928H16.4524C11.0071 90.5928 6.59277 95.0071 6.59277 100.452V129.885C6.59277 135.33 11.0071 139.744 16.4524 139.744H47.548C52.9933 139.744 57.4076 135.33 57.4076 129.885V100.452C57.4076 95.0071 52.9933 90.5928 47.548 90.5928Z" fill="#271302"/>
<path d="M23.6196 120.729L22.0394 125.603C22.0174 125.681 21.9697 125.749 21.904 125.796C21.8382 125.843 21.7585 125.866 21.6777 125.862H17.8575C17.6268 125.862 17.5607 125.732 17.5983 125.533L24.1834 106.532C24.3131 106.17 24.4427 105.775 24.5127 104.524C24.5098 104.467 24.5287 104.412 24.5657 104.369C24.6026 104.326 24.6547 104.299 24.711 104.293H29.9792C30.1438 104.293 30.2099 104.325 30.2385 104.49L37.7142 125.565C37.7803 125.73 37.7466 125.862 37.5496 125.862H33.2718C33.1935 125.873 33.1139 125.856 33.0471 125.814C32.9803 125.772 32.9308 125.707 32.9075 125.631L31.2223 120.725L23.6196 120.729ZM30.009 116.613C29.3505 114.439 28.0322 110.454 27.4073 108.117H27.3736C26.8473 110.321 25.6612 113.95 24.8057 116.613H30.009Z" fill="#FF7C01"/>
<path d="M39.6895 105.186C39.6895 103.704 40.7757 102.65 42.2574 102.65C43.8376 102.65 44.793 103.704 44.793 105.186C44.793 106.734 43.7728 107.754 42.225 107.754C40.6772 107.754 39.6895 106.734 39.6895 105.186ZM39.9189 109.763C39.9189 109.599 39.985 109.504 40.1782 109.504H44.2278C44.4261 109.504 44.487 109.569 44.487 109.763V125.569C44.487 125.767 44.4546 125.866 44.1915 125.866H40.2482C40.0187 125.866 39.9189 125.767 39.9189 125.569V109.763Z" fill="#FF7C01"/>
</g>
<g filter="url(#filter1_d_650_4882)">
<path d="M81.5478 442H50.4522C43.575 442 38 447.575 38 454.452V483.885C38 490.762 43.575 496.337 50.4522 496.337H81.5478C88.4249 496.337 94 490.762 94 483.885V454.452C94 447.575 88.4249 442 81.5478 442Z" fill="white"/>
<path d="M59.5186 488.666C63.0964 488.666 66.0001 485.762 66.0001 482.185V475.703H59.5186C55.9408 475.703 53.0371 478.607 53.0371 482.185C53.0371 485.762 55.9408 488.666 59.5186 488.666Z" fill="#0ACF83"/>
<path d="M53.0371 469.222C53.0371 465.644 55.9408 462.74 59.5186 462.74H66.0001V475.703H59.5186C55.9408 475.703 53.0371 472.799 53.0371 469.222Z" fill="#A259FF"/>
<path d="M53.0371 456.259C53.0371 452.681 55.9408 449.777 59.5186 449.777H66.0001V462.74H59.5186C55.9408 462.74 53.0371 459.837 53.0371 456.259Z" fill="#F24E1E"/>
<path d="M66 449.777H72.4815C76.0593 449.777 78.963 452.681 78.963 456.259C78.963 459.837 76.0593 462.74 72.4815 462.74H66V449.777Z" fill="#FF7262"/>
<path d="M78.963 469.222C78.963 472.799 76.0593 475.703 72.4815 475.703C68.9037 475.703 66 472.799 66 469.222C66 465.644 68.9037 462.74 72.4815 462.74C76.0593 462.74 78.963 465.644 78.963 469.222Z" fill="#1ABCFE"/>
</g>
<circle cx="320" cy="18" r="17" stroke="white" stroke-width="2"/>
<path d="M420.866 125.5L420 124L419.134 125.5L394.885 167.5L394.019 169H395.751H444.249H445.981L445.115 167.5L420.866 125.5Z" stroke="white" stroke-width="2"/>
<g filter="url(#filter2_d_650_4882)">
<path d="M456 253H440C428.954 253 420 261.954 420 273V289C420 300.046 428.954 309 440 309H456C467.046 309 476 300.046 476 289V273C476 261.954 467.046 253 456 253Z" fill="white"/>
<path fill-rule="evenodd" clip-rule="evenodd" d="M431.622 288.671C431.421 289.526 431.32 290.45 431.32 291.203C431.32 294.171 432.93 296.142 436.351 296.142C439.188 296.142 441.488 294.457 443.144 291.737L442.133 295.795H447.767L450.987 282.88C451.792 279.61 453.352 277.913 455.716 277.913C457.578 277.913 458.735 279.071 458.735 280.982C458.735 281.536 458.684 282.138 458.483 282.793L456.823 288.729C456.571 289.584 456.471 290.44 456.471 291.244C456.471 294.062 458.131 296.124 461.602 296.124C464.57 296.124 466.935 294.213 468.243 289.635L466.029 288.78C464.923 291.847 463.967 292.402 463.212 292.402C462.457 292.402 462.055 291.899 462.055 290.893C462.055 290.44 462.156 289.938 462.306 289.333L463.917 283.55C464.319 282.192 464.47 280.988 464.47 279.881C464.47 275.555 461.854 273.297 458.685 273.297C455.717 273.297 452.698 275.974 451.189 278.791L452.295 273.734H443.693L442.485 278.189H446.51L444.032 288.111C442.086 292.438 438.511 292.508 438.062 292.407C437.325 292.241 436.854 291.962 436.854 291.004C436.854 290.452 436.955 289.659 437.206 288.702L440.98 273.734H431.421L430.213 278.189H434.188L431.622 288.671ZM438.715 270.619C440.577 270.619 442.136 269.16 442.136 267.248C442.136 265.337 440.577 263.878 438.715 263.878C436.854 263.878 435.295 265.337 435.295 267.248C435.295 269.16 436.854 270.619 438.715 270.619ZM470.924 253H425.076C422.273 253 420 255.273 420 258.076V303.923C420 306.727 422.273 309 425.076 309H470.923C473.727 309 476 306.727 476 303.924V258.076C476 255.273 473.727 253 470.924 253Z" fill="#FF2A63"/>
</g>
<defs>
<filter id="filter0_d_650_4882" x="0" y="88" width="64" height="62.3369" filterUnits="userSpaceOnUse" color-interpolation-filters="sRGB">
<feFlood flood-opacity="0" result="BackgroundImageFix"/>
<feColorMatrix in="SourceAlpha" type="matrix" values="0 0 0 0 0 0 0 0 0 0 0 0 0 0 0 0 0 0 127 0" result="hardAlpha"/>
<feOffset dy="4"/>
<feGaussianBlur stdDeviation="2"/>
<feComposite in2="hardAlpha" operator="out"/>
<feColorMatrix type="matrix" values="0 0 0 0 0 0 0 0 0 0 0 0 0 0 0 0 0 0 0.25 0"/>
<feBlend mode="normal" in2="BackgroundImageFix" result="effect1_dropShadow_650_4882"/>
<feBlend mode="normal" in="SourceGraphic" in2="effect1_dropShadow_650_4882" result="shape"/>
</filter>
<filter id="filter1_d_650_4882" x="34" y="442" width="64" height="62.3369" filterUnits="userSpaceOnUse" color-interpolation-filters="sRGB">
<feFlood flood-opacity="0" result="BackgroundImageFix"/>
<feColorMatrix in="SourceAlpha" type="matrix" values="0 0 0 0 0 0 0 0 0 0 0 0 0 0 0 0 0 0 127 0" result="hardAlpha"/>
<feOffset dy="4"/>
<feGaussianBlur stdDeviation="2"/>
<feComposite in2="hardAlpha" operator="out"/>
<feColorMatrix type="matrix" values="0 0 0 0 1 0 0 0 0 1 0 0 0 0 1 0 0 0 0.25 0"/>
<feBlend mode="normal" in2="BackgroundImageFix" result="effect1_dropShadow_650_4882"/>
<feBlend mode="normal" in="SourceGraphic" in2="effect1_dropShadow_650_4882" result="shape"/>
</filter>
<filter id="filter2_d_650_4882" x="416" y="253" width="64" height="64" filterUnits="userSpaceOnUse" color-interpolation-filters="sRGB">
<feFlood flood-opacity="0" result="BackgroundImageFix"/>
<feColorMatrix in="SourceAlpha" type="matrix" values="0 0 0 0 0 0 0 0 0 0 0 0 0 0 0 0 0 0 127 0" result="hardAlpha"/>
<feOffset dy="4"/>
<feGaussianBlur stdDeviation="2"/>
<feComposite in2="hardAlpha" operator="out"/>
<feColorMatrix type="matrix" values="0 0 0 0 0 0 0 0 0 0 0 0 0 0 0 0 0 0 0.25 0"/>
<feBlend mode="normal" in2="BackgroundImageFix" result="effect1_dropShadow_650_4882"/>
<feBlend mode="normal" in="SourceGraphic" in2="effect1_dropShadow_650_4882" result="shape"/>
</filter>
</defs>
</svg>
