<svg width="142" height="192" viewBox="0 0 142 192" fill="none" xmlns="http://www.w3.org/2000/svg">
<path d="M137.534 4.99892C132.375 6.93133 123.478 10.2633 115.518 13.2445C105.687 16.9267 96.7776 21.1637 87.8616 26.8164C70.329 37.932 62.2626 51.4551 58.8195 72.1428C56.0207 88.9597 57.3416 110.042 68.4069 123.825C78.4295 136.31 102.431 135.727 110.966 133.98C119.5 132.233 126.768 126.473 132.358 120.569C141.299 111.127 137.444 94.0981 132.902 83.4094C128.49 73.0278 111.496 66.94 101.018 66.75C91.9677 66.5859 80.9802 70.2259 74.3536 72.9771C67.727 75.7283 55.3271 80.2155 47.0917 86.3045C38.752 92.4705 32.1043 98.6724 25.4567 106.619C18.3146 115.157 14.6424 124.686 11.6536 132.233C8.66493 139.78 7.00234 158.882 5.98687 172.012C5.68748 175.883 5.31219 183.728 4.66682 187.707" stroke="#CF9C63" stroke-width="8" stroke-linecap="round"/>
</svg>
