<svg width="88" height="88" viewBox="0 0 88 88" fill="none" xmlns="http://www.w3.org/2000/svg">
<rect x="4" y="4" width="80" height="80" rx="16" stroke="#CF9C63" stroke-width="8"/>
<path fill-rule="evenodd" clip-rule="evenodd" d="M37.4597 23.6648C29.841 23.6648 23.6648 29.841 23.6648 37.4597C23.6648 45.0784 29.841 51.2545 37.4597 51.2545C45.0784 51.2545 51.2545 45.0784 51.2545 37.4597C51.2545 29.841 45.0784 23.6648 37.4597 23.6648ZM21.0908 37.4597C21.0908 28.4194 28.4194 21.0908 37.4597 21.0908C46.4999 21.0908 53.8285 28.4194 53.8285 37.4597C53.8285 46.4999 46.4999 53.8285 37.4597 53.8285C28.4194 53.8285 21.0908 46.4999 21.0908 37.4597Z" fill="white"/>
<path fill-rule="evenodd" clip-rule="evenodd" d="M37.4597 28.3709C35.0491 28.3709 32.7372 29.3285 31.0326 31.0331C29.328 32.7377 28.3704 35.0496 28.3704 37.4602C28.3704 37.9933 27.9383 38.4255 27.4052 38.4255C26.8721 38.4255 26.4399 37.9933 26.4399 37.4602C26.4399 34.5376 27.601 31.7347 29.6676 29.6681C31.7342 27.6014 34.5371 26.4404 37.4597 26.4404C37.9928 26.4404 38.425 26.8726 38.425 27.4057C38.425 27.9388 37.9928 28.3709 37.4597 28.3709Z" fill="white"/>
<path d="M53.5287 53.4979L53.5145 53.5122C52.47 54.5566 52.47 56.25 53.5145 57.2945L59.8563 63.6363C60.9007 64.6808 62.5941 64.6808 63.6386 63.6363L63.6528 63.6221C64.6973 62.5776 64.6973 60.8842 63.6528 59.8397L57.311 53.4979C56.2666 52.4535 54.5731 52.4535 53.5287 53.4979Z" fill="white"/>
<path fill-rule="evenodd" clip-rule="evenodd" d="M54.197 54.1947C53.5295 54.8622 53.5295 55.9444 54.197 56.612L60.5389 62.9538C61.2064 63.6213 62.2886 63.6213 62.9561 62.9538L62.9704 62.9396C63.6379 62.272 63.6379 61.1898 62.9704 60.5223L56.6286 54.1805C55.961 53.5129 54.8788 53.5129 54.2113 54.1805L54.197 54.1947ZM52.832 57.977C51.4106 56.5556 51.4106 54.251 52.832 52.8296L52.8462 52.8154C54.2676 51.394 56.5722 51.394 57.9936 52.8154L64.3354 59.1572C65.7568 60.5786 65.7568 62.8832 64.3354 64.3046L64.3212 64.3188C62.8998 65.7402 60.5952 65.7402 59.1738 64.3188L52.832 57.977Z" fill="white"/>
<path fill-rule="evenodd" clip-rule="evenodd" d="M47.4551 47.4556C47.832 47.0786 48.4432 47.0786 48.8201 47.4556L54.1893 52.8247C54.5662 53.2017 54.5662 53.8128 54.1893 54.1898C53.8123 54.5667 53.2012 54.5667 52.8242 54.1898L47.4551 48.8206C47.0781 48.4437 47.0781 47.8325 47.4551 47.4556Z" fill="white"/>
</svg>
