<svg width="506" height="510" viewBox="0 0 506 510" fill="none" xmlns="http://www.w3.org/2000/svg">
<path d="M8.71198 9.48965V11.1636H3.40198V14.8536H7.54198V16.5276H3.40198V21.9996H1.34998V9.48965H8.71198ZM11.6577 10.7676C11.2857 10.7676 10.9737 10.6416 10.7217 10.3896C10.4697 10.1376 10.3437 9.82565 10.3437 9.45365C10.3437 9.08165 10.4697 8.76965 10.7217 8.51765C10.9737 8.26565 11.2857 8.13965 11.6577 8.13965C12.0177 8.13965 12.3237 8.26565 12.5757 8.51765C12.8277 8.76965 12.9537 9.08165 12.9537 9.45365C12.9537 9.82565 12.8277 10.1376 12.5757 10.3896C12.3237 10.6416 12.0177 10.7676 11.6577 10.7676ZM12.6657 12.0816V21.9996H10.6137V12.0816H12.6657ZM19.3558 11.9196C20.1238 11.9196 20.8018 12.0756 21.3898 12.3876C21.9898 12.6876 22.4578 13.0656 22.7938 13.5216V12.0816H24.8638V22.1616C24.8638 23.0736 24.6718 23.8836 24.2878 24.5916C23.9038 25.3116 23.3458 25.8756 22.6138 26.2836C21.8938 26.6916 21.0298 26.8956 20.0218 26.8956C18.6778 26.8956 17.5618 26.5776 16.6738 25.9416C15.7858 25.3176 15.2818 24.4656 15.1618 23.3856H17.1958C17.3518 23.9016 17.6818 24.3156 18.1858 24.6276C18.7018 24.9516 19.3138 25.1136 20.0218 25.1136C20.8498 25.1136 21.5158 24.8616 22.0198 24.3576C22.5358 23.8536 22.7938 23.1216 22.7938 22.1616V20.5056C22.4458 20.9736 21.9718 21.3696 21.3718 21.6936C20.7838 22.0056 20.1118 22.1616 19.3558 22.1616C18.4918 22.1616 17.6998 21.9456 16.9798 21.5136C16.2718 21.0696 15.7078 20.4576 15.2878 19.6776C14.8798 18.8856 14.6758 17.9916 14.6758 16.9956C14.6758 15.9996 14.8798 15.1176 15.2878 14.3496C15.7078 13.5816 16.2718 12.9876 16.9798 12.5676C17.6998 12.1356 18.4918 11.9196 19.3558 11.9196ZM22.7938 17.0316C22.7938 16.3476 22.6498 15.7536 22.3618 15.2496C22.0858 14.7456 21.7198 14.3616 21.2638 14.0976C20.8078 13.8336 20.3158 13.7016 19.7878 13.7016C19.2598 13.7016 18.7678 13.8336 18.3118 14.0976C17.8558 14.3496 17.4838 14.7276 17.1958 15.2316C16.9198 15.7236 16.7818 16.3116 16.7818 16.9956C16.7818 17.6796 16.9198 18.2796 17.1958 18.7956C17.4838 19.3116 17.8558 19.7076 18.3118 19.9836C18.7798 20.2476 19.2718 20.3796 19.7878 20.3796C20.3158 20.3796 20.8078 20.2476 21.2638 19.9836C21.7198 19.7196 22.0858 19.3356 22.3618 18.8316C22.6498 18.3156 22.7938 17.7156 22.7938 17.0316ZM39.565 11.9196C40.345 11.9196 41.041 12.0816 41.653 12.4056C42.277 12.7296 42.763 13.2096 43.111 13.8456C43.471 14.4816 43.651 15.2496 43.651 16.1496V21.9996H41.617V16.4556C41.617 15.5676 41.395 14.8896 40.951 14.4216C40.507 13.9416 39.901 13.7016 39.133 13.7016C38.365 13.7016 37.753 13.9416 37.297 14.4216C36.853 14.8896 36.631 15.5676 36.631 16.4556V21.9996H34.597V16.4556C34.597 15.5676 34.375 14.8896 33.931 14.4216C33.487 13.9416 32.881 13.7016 32.113 13.7016C31.345 13.7016 30.733 13.9416 30.277 14.4216C29.833 14.8896 29.611 15.5676 29.611 16.4556V21.9996H27.559V12.0816H29.611V13.2156C29.947 12.8076 30.373 12.4896 30.889 12.2616C31.405 12.0336 31.957 11.9196 32.545 11.9196C33.337 11.9196 34.045 12.0876 34.669 12.4236C35.293 12.7596 35.773 13.2456 36.109 13.8816C36.409 13.2816 36.877 12.8076 37.513 12.4596C38.149 12.0996 38.833 11.9196 39.565 11.9196ZM45.5781 16.9956C45.5781 15.9996 45.7821 15.1176 46.1901 14.3496C46.6101 13.5816 47.1741 12.9876 47.8821 12.5676C48.6021 12.1356 49.3941 11.9196 50.2581 11.9196C51.0381 11.9196 51.7161 12.0756 52.2921 12.3876C52.8801 12.6876 53.3481 13.0656 53.6961 13.5216V12.0816H55.7661V21.9996H53.6961V20.5236C53.3481 20.9916 52.8741 21.3816 52.2741 21.6936C51.6741 22.0056 50.9901 22.1616 50.2221 22.1616C49.3701 22.1616 48.5901 21.9456 47.8821 21.5136C47.1741 21.0696 46.6101 20.4576 46.1901 19.6776C45.7821 18.8856 45.5781 17.9916 45.5781 16.9956ZM53.6961 17.0316C53.6961 16.3476 53.5521 15.7536 53.2641 15.2496C52.9881 14.7456 52.6221 14.3616 52.1661 14.0976C51.7101 13.8336 51.2181 13.7016 50.6901 13.7016C50.1621 13.7016 49.6701 13.8336 49.2141 14.0976C48.7581 14.3496 48.3861 14.7276 48.0981 15.2316C47.8221 15.7236 47.6841 16.3116 47.6841 16.9956C47.6841 17.6796 47.8221 18.2796 48.0981 18.7956C48.3861 19.3116 48.7581 19.7076 49.2141 19.9836C49.6821 20.2476 50.1741 20.3796 50.6901 20.3796C51.2181 20.3796 51.7101 20.2476 52.1661 19.9836C52.6221 19.7196 52.9881 19.3356 53.2641 18.8316C53.5521 18.3156 53.6961 17.7156 53.6961 17.0316Z" fill="#FAFAFA"/>
<path d="M439.506 18.2836C439.599 18.8156 439.814 19.2263 440.15 19.5156C440.495 19.8049 440.957 19.9496 441.536 19.9496C442.311 19.9496 442.88 19.6463 443.244 19.0396C443.617 18.4329 443.795 17.4109 443.776 15.9736C443.58 16.3936 443.253 16.7249 442.796 16.9676C442.339 17.2009 441.83 17.3176 441.27 17.3176C440.645 17.3176 440.085 17.1916 439.59 16.9396C439.105 16.6783 438.722 16.3003 438.442 15.8056C438.162 15.3109 438.022 14.7136 438.022 14.0136C438.022 13.0149 438.311 12.2123 438.89 11.6056C439.469 10.9896 440.29 10.6816 441.354 10.6816C442.661 10.6816 443.575 11.1063 444.098 11.9556C444.63 12.8049 444.896 14.0696 444.896 15.7496C444.896 16.9256 444.789 17.8963 444.574 18.6616C444.369 19.4269 444.014 20.0103 443.51 20.4116C443.015 20.8129 442.334 21.0136 441.466 21.0136C440.514 21.0136 439.772 20.7569 439.24 20.2436C438.708 19.7303 438.405 19.0769 438.33 18.2836H439.506ZM441.48 16.2396C442.105 16.2396 442.619 16.0483 443.02 15.6656C443.421 15.2736 443.622 14.7463 443.622 14.0836C443.622 13.3836 443.426 12.8189 443.034 12.3896C442.642 11.9603 442.091 11.7456 441.382 11.7456C440.729 11.7456 440.206 11.9509 439.814 12.3616C439.431 12.7723 439.24 13.3136 439.24 13.9856C439.24 14.6669 439.431 15.2129 439.814 15.6236C440.197 16.0343 440.752 16.2396 441.48 16.2396ZM446.686 15.8336C446.686 14.2283 446.948 12.9776 447.47 12.0816C447.993 11.1763 448.908 10.7236 450.214 10.7236C451.512 10.7236 452.422 11.1763 452.944 12.0816C453.467 12.9776 453.728 14.2283 453.728 15.8336C453.728 17.4669 453.467 18.7363 452.944 19.6416C452.422 20.5469 451.512 20.9996 450.214 20.9996C448.908 20.9996 447.993 20.5469 447.47 19.6416C446.948 18.7363 446.686 17.4669 446.686 15.8336ZM452.468 15.8336C452.468 15.0216 452.412 14.3356 452.3 13.7756C452.198 13.2063 451.978 12.7489 451.642 12.4036C451.316 12.0583 450.84 11.8856 450.214 11.8856C449.58 11.8856 449.094 12.0583 448.758 12.4036C448.432 12.7489 448.212 13.2063 448.1 13.7756C447.998 14.3356 447.946 15.0216 447.946 15.8336C447.946 16.6736 447.998 17.3783 448.1 17.9476C448.212 18.5169 448.432 18.9743 448.758 19.3196C449.094 19.6649 449.58 19.8376 450.214 19.8376C450.84 19.8376 451.316 19.6649 451.642 19.3196C451.978 18.9743 452.198 18.5169 452.3 17.9476C452.412 17.3783 452.468 16.6736 452.468 15.8336ZM455.197 13.1596C455.197 12.5249 455.389 12.0209 455.771 11.6476C456.154 11.2649 456.644 11.0736 457.241 11.0736C457.839 11.0736 458.329 11.2649 458.711 11.6476C459.094 12.0209 459.285 12.5249 459.285 13.1596C459.285 13.8036 459.094 14.3169 458.711 14.6996C458.329 15.0729 457.839 15.2596 457.241 15.2596C456.644 15.2596 456.154 15.0729 455.771 14.6996C455.389 14.3169 455.197 13.8036 455.197 13.1596ZM463.373 11.2276L457.703 20.9996H456.443L462.113 11.2276H463.373ZM457.241 11.8576C456.924 11.8576 456.672 11.9696 456.485 12.1936C456.308 12.4083 456.219 12.7303 456.219 13.1596C456.219 13.5889 456.308 13.9156 456.485 14.1396C456.672 14.3636 456.924 14.4756 457.241 14.4756C457.559 14.4756 457.811 14.3636 457.997 14.1396C458.184 13.9063 458.277 13.5796 458.277 13.1596C458.277 12.7303 458.184 12.4083 457.997 12.1936C457.811 11.9696 457.559 11.8576 457.241 11.8576ZM460.559 19.0676C460.559 18.4236 460.751 17.9149 461.133 17.5416C461.516 17.1589 462.006 16.9676 462.603 16.9676C463.201 16.9676 463.686 17.1589 464.059 17.5416C464.442 17.9149 464.633 18.4236 464.633 19.0676C464.633 19.7023 464.442 20.2109 464.059 20.5936C463.686 20.9763 463.201 21.1676 462.603 21.1676C462.006 21.1676 461.516 20.9809 461.133 20.6076C460.751 20.2249 460.559 19.7116 460.559 19.0676ZM462.589 17.7656C462.272 17.7656 462.02 17.8776 461.833 18.1016C461.647 18.3163 461.553 18.6383 461.553 19.0676C461.553 19.4876 461.647 19.8096 461.833 20.0336C462.02 20.2483 462.272 20.3556 462.589 20.3556C462.907 20.3556 463.159 20.2483 463.345 20.0336C463.532 19.8096 463.625 19.4876 463.625 19.0676C463.625 18.6383 463.532 18.3163 463.345 18.1016C463.159 17.8776 462.907 17.7656 462.589 17.7656Z" fill="#FAFAFA"/>
<path d="M502 32H4C1.79086 32 0 33.7909 0 36C0 38.2091 1.79086 40 4 40H502C504.209 40 506 38.2091 506 36C506 33.7909 504.209 32 502 32Z" fill="#D9D9D9"/>
<path d="M0 36C0 33.7909 1.79086 32 4 32H452V40H4C1.79086 40 0 38.2091 0 36Z" fill="#CF9C63"/>
<path d="M388.093 327.736C387.57 327.531 387.169 327.232 386.889 326.84C386.609 326.448 386.469 325.972 386.469 325.412C386.469 324.908 386.595 324.455 386.847 324.054C387.099 323.643 387.472 323.321 387.967 323.088C388.471 322.845 389.078 322.724 389.787 322.724C390.496 322.724 391.098 322.845 391.593 323.088C392.097 323.321 392.475 323.643 392.727 324.054C392.988 324.455 393.119 324.908 393.119 325.412C393.119 325.953 392.974 326.429 392.685 326.84C392.396 327.241 391.999 327.54 391.495 327.736C392.074 327.913 392.531 328.226 392.867 328.674C393.212 329.113 393.385 329.645 393.385 330.27C393.385 330.877 393.236 331.409 392.937 331.866C392.638 332.314 392.214 332.664 391.663 332.916C391.122 333.159 390.496 333.28 389.787 333.28C389.078 333.28 388.452 333.159 387.911 332.916C387.379 332.664 386.964 332.314 386.665 331.866C386.366 331.409 386.217 330.877 386.217 330.27C386.217 329.645 386.385 329.108 386.721 328.66C387.057 328.212 387.514 327.904 388.093 327.736ZM391.887 325.566C391.887 324.997 391.7 324.558 391.327 324.25C390.954 323.942 390.44 323.788 389.787 323.788C389.143 323.788 388.634 323.942 388.261 324.25C387.888 324.558 387.701 325.001 387.701 325.58C387.701 326.103 387.892 326.523 388.275 326.84C388.667 327.157 389.171 327.316 389.787 327.316C390.412 327.316 390.916 327.157 391.299 326.84C391.691 326.513 391.887 326.089 391.887 325.566ZM389.787 328.296C389.096 328.296 388.532 328.459 388.093 328.786C387.654 329.103 387.435 329.584 387.435 330.228C387.435 330.825 387.645 331.306 388.065 331.67C388.494 332.034 389.068 332.216 389.787 332.216C390.506 332.216 391.075 332.034 391.495 331.67C391.915 331.306 392.125 330.825 392.125 330.228C392.125 329.603 391.91 329.127 391.481 328.8C391.052 328.464 390.487 328.296 389.787 328.296ZM395.077 327.834C395.077 326.229 395.338 324.978 395.861 324.082C396.384 323.177 397.298 322.724 398.605 322.724C399.902 322.724 400.812 323.177 401.335 324.082C401.858 324.978 402.119 326.229 402.119 327.834C402.119 329.467 401.858 330.737 401.335 331.642C400.812 332.547 399.902 333 398.605 333C397.298 333 396.384 332.547 395.861 331.642C395.338 330.737 395.077 329.467 395.077 327.834ZM400.859 327.834C400.859 327.022 400.803 326.336 400.691 325.776C400.588 325.207 400.369 324.749 400.033 324.404C399.706 324.059 399.23 323.886 398.605 323.886C397.97 323.886 397.485 324.059 397.149 324.404C396.822 324.749 396.603 325.207 396.491 325.776C396.388 326.336 396.337 327.022 396.337 327.834C396.337 328.674 396.388 329.379 396.491 329.948C396.603 330.517 396.822 330.975 397.149 331.32C397.485 331.665 397.97 331.838 398.605 331.838C399.23 331.838 399.706 331.665 400.033 331.32C400.369 330.975 400.588 330.517 400.691 329.948C400.803 329.379 400.859 328.674 400.859 327.834ZM403.588 325.16C403.588 324.525 403.779 324.021 404.162 323.648C404.545 323.265 405.035 323.074 405.632 323.074C406.229 323.074 406.719 323.265 407.102 323.648C407.485 324.021 407.676 324.525 407.676 325.16C407.676 325.804 407.485 326.317 407.102 326.7C406.719 327.073 406.229 327.26 405.632 327.26C405.035 327.26 404.545 327.073 404.162 326.7C403.779 326.317 403.588 325.804 403.588 325.16ZM411.764 323.228L406.094 333H404.834L410.504 323.228H411.764ZM405.632 323.858C405.315 323.858 405.063 323.97 404.876 324.194C404.699 324.409 404.61 324.731 404.61 325.16C404.61 325.589 404.699 325.916 404.876 326.14C405.063 326.364 405.315 326.476 405.632 326.476C405.949 326.476 406.201 326.364 406.388 326.14C406.575 325.907 406.668 325.58 406.668 325.16C406.668 324.731 406.575 324.409 406.388 324.194C406.201 323.97 405.949 323.858 405.632 323.858ZM408.95 331.068C408.95 330.424 409.141 329.915 409.524 329.542C409.907 329.159 410.397 328.968 410.994 328.968C411.591 328.968 412.077 329.159 412.45 329.542C412.833 329.915 413.024 330.424 413.024 331.068C413.024 331.703 412.833 332.211 412.45 332.594C412.077 332.977 411.591 333.168 410.994 333.168C410.397 333.168 409.907 332.981 409.524 332.608C409.141 332.225 408.95 331.712 408.95 331.068ZM410.98 329.766C410.663 329.766 410.411 329.878 410.224 330.102C410.037 330.317 409.944 330.639 409.944 331.068C409.944 331.488 410.037 331.81 410.224 332.034C410.411 332.249 410.663 332.356 410.98 332.356C411.297 332.356 411.549 332.249 411.736 332.034C411.923 331.81 412.016 331.488 412.016 331.068C412.016 330.639 411.923 330.317 411.736 330.102C411.549 329.878 411.297 329.766 410.98 329.766Z" fill="#FAFAFA"/>
<path d="M0.666016 327.718C0.666016 326.494 0.948016 325.396 1.51202 324.424C2.08802 323.452 2.86202 322.696 3.83402 322.156C4.81802 321.604 5.89202 321.328 7.05602 321.328C8.38802 321.328 9.57002 321.658 10.602 322.318C11.646 322.966 12.402 323.89 12.87 325.09H10.404C10.08 324.43 9.63002 323.938 9.05402 323.614C8.47802 323.29 7.81202 323.128 7.05602 323.128C6.22802 323.128 5.49002 323.314 4.84202 323.686C4.19402 324.058 3.68402 324.592 3.31202 325.288C2.95202 325.984 2.77202 326.794 2.77202 327.718C2.77202 328.642 2.95202 329.452 3.31202 330.148C3.68402 330.844 4.19402 331.384 4.84202 331.768C5.49002 332.14 6.22802 332.326 7.05602 332.326C7.81202 332.326 8.47802 332.164 9.05402 331.84C9.63002 331.516 10.08 331.024 10.404 330.364H12.87C12.402 331.564 11.646 332.488 10.602 333.136C9.57002 333.784 8.38802 334.108 7.05602 334.108C5.88002 334.108 4.80602 333.838 3.83402 333.298C2.86202 332.746 2.08802 331.984 1.51202 331.012C0.948016 330.04 0.666016 328.942 0.666016 327.718ZM19.3939 334.126C18.5539 334.126 17.7979 333.982 17.1259 333.694C16.4539 333.394 15.9259 332.974 15.5419 332.434C15.1579 331.894 14.9659 331.264 14.9659 330.544H17.1619C17.2099 331.084 17.4199 331.528 17.7919 331.876C18.1759 332.224 18.7099 332.398 19.3939 332.398C20.1019 332.398 20.6539 332.23 21.0499 331.894C21.4459 331.546 21.6439 331.102 21.6439 330.562C21.6439 330.142 21.5179 329.8 21.2659 329.536C21.0259 329.272 20.7199 329.068 20.3479 328.924C19.9879 328.78 19.4839 328.624 18.8359 328.456C18.0199 328.24 17.3539 328.024 16.8379 327.808C16.3339 327.58 15.9019 327.232 15.5419 326.764C15.1819 326.296 15.0019 325.672 15.0019 324.892C15.0019 324.172 15.1819 323.542 15.5419 323.002C15.9019 322.462 16.4059 322.048 17.0539 321.76C17.7019 321.472 18.4519 321.328 19.3039 321.328C20.5159 321.328 21.5059 321.634 22.2739 322.246C23.0539 322.846 23.4859 323.674 23.5699 324.73H21.3019C21.2659 324.274 21.0499 323.884 20.6539 323.56C20.2579 323.236 19.7359 323.074 19.0879 323.074C18.4999 323.074 18.0199 323.224 17.6479 323.524C17.2759 323.824 17.0899 324.256 17.0899 324.82C17.0899 325.204 17.2039 325.522 17.4319 325.774C17.6719 326.014 17.9719 326.206 18.3319 326.35C18.6919 326.494 19.1839 326.65 19.8079 326.818C20.6359 327.046 21.3079 327.274 21.8239 327.502C22.3519 327.73 22.7959 328.084 23.1559 328.564C23.5279 329.032 23.7139 329.662 23.7139 330.454C23.7139 331.09 23.5399 331.69 23.1919 332.254C22.8559 332.818 22.3579 333.274 21.6979 333.622C21.0499 333.958 20.2819 334.126 19.3939 334.126ZM30.2572 334.126C29.4172 334.126 28.6612 333.982 27.9892 333.694C27.3172 333.394 26.7892 332.974 26.4052 332.434C26.0212 331.894 25.8292 331.264 25.8292 330.544H28.0252C28.0732 331.084 28.2832 331.528 28.6552 331.876C29.0392 332.224 29.5732 332.398 30.2572 332.398C30.9652 332.398 31.5172 332.23 31.9132 331.894C32.3092 331.546 32.5072 331.102 32.5072 330.562C32.5072 330.142 32.3812 329.8 32.1292 329.536C31.8892 329.272 31.5832 329.068 31.2112 328.924C30.8512 328.78 30.3472 328.624 29.6992 328.456C28.8832 328.24 28.2172 328.024 27.7012 327.808C27.1972 327.58 26.7652 327.232 26.4052 326.764C26.0452 326.296 25.8652 325.672 25.8652 324.892C25.8652 324.172 26.0452 323.542 26.4052 323.002C26.7652 322.462 27.2692 322.048 27.9172 321.76C28.5652 321.472 29.3152 321.328 30.1672 321.328C31.3792 321.328 32.3692 321.634 33.1372 322.246C33.9172 322.846 34.3492 323.674 34.4332 324.73H32.1652C32.1292 324.274 31.9132 323.884 31.5172 323.56C31.1212 323.236 30.5992 323.074 29.9512 323.074C29.3632 323.074 28.8832 323.224 28.5112 323.524C28.1392 323.824 27.9532 324.256 27.9532 324.82C27.9532 325.204 28.0672 325.522 28.2952 325.774C28.5352 326.014 28.8352 326.206 29.1952 326.35C29.5552 326.494 30.0472 326.65 30.6712 326.818C31.4992 327.046 32.1712 327.274 32.6872 327.502C33.2152 327.73 33.6592 328.084 34.0192 328.564C34.3912 329.032 34.5772 329.662 34.5772 330.454C34.5772 331.09 34.4032 331.69 34.0552 332.254C33.7192 332.818 33.2212 333.274 32.5612 333.622C31.9132 333.958 31.1452 334.126 30.2572 334.126Z" fill="#FAFAFA"/>
<path d="M502 344H4C1.79086 344 0 345.791 0 348C0 350.209 1.79086 352 4 352H502C504.209 352 506 350.209 506 348C506 345.791 504.209 344 502 344Z" fill="#D9D9D9"/>
<path d="M0 348C0 345.791 1.79086 344 4 344H400V352H4C1.79086 352 0 350.209 0 348Z" fill="#CF9C63"/>
<path d="M468.506 252.284C468.599 252.816 468.814 253.227 469.15 253.516C469.495 253.805 469.957 253.95 470.536 253.95C471.311 253.95 471.88 253.647 472.244 253.04C472.617 252.433 472.795 251.411 472.776 249.974C472.58 250.394 472.253 250.725 471.796 250.968C471.339 251.201 470.83 251.318 470.27 251.318C469.645 251.318 469.085 251.192 468.59 250.94C468.105 250.679 467.722 250.301 467.442 249.806C467.162 249.311 467.022 248.714 467.022 248.014C467.022 247.015 467.311 246.213 467.89 245.606C468.469 244.99 469.29 244.682 470.354 244.682C471.661 244.682 472.575 245.107 473.098 245.956C473.63 246.805 473.896 248.07 473.896 249.75C473.896 250.926 473.789 251.897 473.574 252.662C473.369 253.427 473.014 254.011 472.51 254.412C472.015 254.813 471.334 255.014 470.466 255.014C469.514 255.014 468.772 254.757 468.24 254.244C467.708 253.731 467.405 253.077 467.33 252.284H468.506ZM470.48 250.24C471.105 250.24 471.619 250.049 472.02 249.666C472.421 249.274 472.622 248.747 472.622 248.084C472.622 247.384 472.426 246.819 472.034 246.39C471.642 245.961 471.091 245.746 470.382 245.746C469.729 245.746 469.206 245.951 468.814 246.362C468.431 246.773 468.24 247.314 468.24 247.986C468.24 248.667 468.431 249.213 468.814 249.624C469.197 250.035 469.752 250.24 470.48 250.24ZM482.14 245.984H477.226V249.176C477.441 248.877 477.758 248.635 478.178 248.448C478.598 248.252 479.051 248.154 479.536 248.154C480.311 248.154 480.941 248.317 481.426 248.644C481.912 248.961 482.257 249.377 482.462 249.89C482.677 250.394 482.784 250.931 482.784 251.5C482.784 252.172 482.658 252.774 482.406 253.306C482.154 253.838 481.767 254.258 481.244 254.566C480.731 254.874 480.092 255.028 479.326 255.028C478.346 255.028 477.553 254.776 476.946 254.272C476.34 253.768 475.971 253.096 475.84 252.256H477.086C477.208 252.788 477.464 253.203 477.856 253.502C478.248 253.801 478.743 253.95 479.34 253.95C480.078 253.95 480.633 253.731 481.006 253.292C481.38 252.844 481.566 252.256 481.566 251.528C481.566 250.8 481.38 250.24 481.006 249.848C480.633 249.447 480.082 249.246 479.354 249.246C478.86 249.246 478.426 249.367 478.052 249.61C477.688 249.843 477.422 250.165 477.254 250.576H476.05V244.864H482.14V245.984ZM484.197 247.16C484.197 246.525 484.389 246.021 484.771 245.648C485.154 245.265 485.644 245.074 486.241 245.074C486.839 245.074 487.329 245.265 487.711 245.648C488.094 246.021 488.285 246.525 488.285 247.16C488.285 247.804 488.094 248.317 487.711 248.7C487.329 249.073 486.839 249.26 486.241 249.26C485.644 249.26 485.154 249.073 484.771 248.7C484.389 248.317 484.197 247.804 484.197 247.16ZM492.373 245.228L486.703 255H485.443L491.113 245.228H492.373ZM486.241 245.858C485.924 245.858 485.672 245.97 485.485 246.194C485.308 246.409 485.219 246.731 485.219 247.16C485.219 247.589 485.308 247.916 485.485 248.14C485.672 248.364 485.924 248.476 486.241 248.476C486.559 248.476 486.811 248.364 486.997 248.14C487.184 247.907 487.277 247.58 487.277 247.16C487.277 246.731 487.184 246.409 486.997 246.194C486.811 245.97 486.559 245.858 486.241 245.858ZM489.559 253.068C489.559 252.424 489.751 251.915 490.133 251.542C490.516 251.159 491.006 250.968 491.603 250.968C492.201 250.968 492.686 251.159 493.059 251.542C493.442 251.915 493.633 252.424 493.633 253.068C493.633 253.703 493.442 254.211 493.059 254.594C492.686 254.977 492.201 255.168 491.603 255.168C491.006 255.168 490.516 254.981 490.133 254.608C489.751 254.225 489.559 253.712 489.559 253.068ZM491.589 251.766C491.272 251.766 491.02 251.878 490.833 252.102C490.647 252.317 490.553 252.639 490.553 253.068C490.553 253.488 490.647 253.81 490.833 254.034C491.02 254.249 491.272 254.356 491.589 254.356C491.907 254.356 492.159 254.249 492.345 254.034C492.532 253.81 492.625 253.488 492.625 253.068C492.625 252.639 492.532 252.317 492.345 252.102C492.159 251.878 491.907 251.766 491.589 251.766Z" fill="#FAFAFA"/>
<path d="M11.34 243.49V256H9.28798V250.528H3.40198V256H1.34998V243.49H3.40198V248.854H9.28798V243.49H11.34ZM22.1234 243.49V245.164H18.7934V256H16.7414V245.164H13.3934V243.49H22.1234ZM37.3776 243.49V256H35.3256V247.432L31.5096 256H30.0876L26.2536 247.432V256H24.2016V243.49H26.4156L30.8076 253.3L35.1816 243.49H37.3776ZM42.1266 254.344H46.3566V256H40.0746V243.49H42.1266V254.344Z" fill="#FAFAFA"/>
<path d="M502 266H4C1.79086 266 0 267.791 0 270C0 272.209 1.79086 274 4 274H502C504.209 274 506 272.209 506 270C506 267.791 504.209 266 502 266Z" fill="#D9D9D9"/>
<path d="M0 270C0 267.791 1.79086 266 4 266H481V274H3.99999C1.79085 274 0 272.209 0 270Z" fill="#CF9C63"/>
<path d="M393.098 89.8716L389.206 98.9996H387.918L391.866 89.9976H386.462V88.9056H393.098V89.8716ZM396.359 93.7356C395.836 93.5303 395.435 93.2316 395.155 92.8396C394.875 92.4476 394.735 91.9716 394.735 91.4116C394.735 90.9076 394.861 90.4549 395.113 90.0536C395.365 89.6429 395.738 89.3209 396.233 89.0876C396.737 88.8449 397.343 88.7236 398.053 88.7236C398.762 88.7236 399.364 88.8449 399.859 89.0876C400.363 89.3209 400.741 89.6429 400.993 90.0536C401.254 90.4549 401.385 90.9076 401.385 91.4116C401.385 91.9529 401.24 92.4289 400.951 92.8396C400.661 93.2409 400.265 93.5396 399.761 93.7356C400.339 93.9129 400.797 94.2256 401.133 94.6736C401.478 95.1123 401.651 95.6443 401.651 96.2696C401.651 96.8763 401.501 97.4083 401.203 97.8656C400.904 98.3136 400.479 98.6636 399.929 98.9156C399.387 99.1583 398.762 99.2796 398.053 99.2796C397.343 99.2796 396.718 99.1583 396.177 98.9156C395.645 98.6636 395.229 98.3136 394.931 97.8656C394.632 97.4083 394.483 96.8763 394.483 96.2696C394.483 95.6443 394.651 95.1076 394.987 94.6596C395.323 94.2116 395.78 93.9036 396.359 93.7356ZM400.153 91.5656C400.153 90.9963 399.966 90.5576 399.593 90.2496C399.219 89.9416 398.706 89.7876 398.053 89.7876C397.409 89.7876 396.9 89.9416 396.527 90.2496C396.153 90.5576 395.967 91.0009 395.967 91.5796C395.967 92.1023 396.158 92.5223 396.541 92.8396C396.933 93.1569 397.437 93.3156 398.053 93.3156C398.678 93.3156 399.182 93.1569 399.565 92.8396C399.957 92.5129 400.153 92.0883 400.153 91.5656ZM398.053 94.2956C397.362 94.2956 396.797 94.4589 396.359 94.7856C395.92 95.1029 395.701 95.5836 395.701 96.2276C395.701 96.8249 395.911 97.3056 396.331 97.6696C396.76 98.0336 397.334 98.2156 398.053 98.2156C398.771 98.2156 399.341 98.0336 399.761 97.6696C400.181 97.3056 400.391 96.8249 400.391 96.2276C400.391 95.6023 400.176 95.1263 399.747 94.7996C399.317 94.4636 398.753 94.2956 398.053 94.2956ZM403.063 91.1596C403.063 90.5249 403.254 90.0209 403.637 89.6476C404.019 89.2649 404.509 89.0736 405.107 89.0736C405.704 89.0736 406.194 89.2649 406.577 89.6476C406.959 90.0209 407.151 90.5249 407.151 91.1596C407.151 91.8036 406.959 92.3169 406.577 92.6996C406.194 93.0729 405.704 93.2596 405.107 93.2596C404.509 93.2596 404.019 93.0729 403.637 92.6996C403.254 92.3169 403.063 91.8036 403.063 91.1596ZM411.239 89.2276L405.569 98.9996H404.309L409.979 89.2276H411.239ZM405.107 89.8576C404.789 89.8576 404.537 89.9696 404.351 90.1936C404.173 90.4083 404.085 90.7303 404.085 91.1596C404.085 91.5889 404.173 91.9156 404.351 92.1396C404.537 92.3636 404.789 92.4756 405.107 92.4756C405.424 92.4756 405.676 92.3636 405.863 92.1396C406.049 91.9063 406.143 91.5796 406.143 91.1596C406.143 90.7303 406.049 90.4083 405.863 90.1936C405.676 89.9696 405.424 89.8576 405.107 89.8576ZM408.425 97.0676C408.425 96.4236 408.616 95.9149 408.999 95.5416C409.381 95.1589 409.871 94.9676 410.469 94.9676C411.066 94.9676 411.551 95.1589 411.925 95.5416C412.307 95.9149 412.499 96.4236 412.499 97.0676C412.499 97.7023 412.307 98.2109 411.925 98.5936C411.551 98.9763 411.066 99.1676 410.469 99.1676C409.871 99.1676 409.381 98.9809 408.999 98.6076C408.616 98.2249 408.425 97.7116 408.425 97.0676ZM410.455 95.7656C410.137 95.7656 409.885 95.8776 409.699 96.1016C409.512 96.3163 409.419 96.6383 409.419 97.0676C409.419 97.4876 409.512 97.8096 409.699 98.0336C409.885 98.2483 410.137 98.3556 410.455 98.3556C410.772 98.3556 411.024 98.2483 411.211 98.0336C411.397 97.8096 411.491 97.4876 411.491 97.0676C411.491 96.6383 411.397 96.3163 411.211 96.1016C411.024 95.8776 410.772 95.7656 410.455 95.7656Z" fill="#FAFAFA"/>
<path d="M8.89206 97.4437H3.65406L2.75406 99.9997H0.612061L5.09406 87.4717H7.47006L11.9521 99.9997H9.79206L8.89206 97.4437ZM8.31606 95.7697L6.28206 89.9557L4.23006 95.7697H8.31606ZM13.2169 94.9957C13.2169 93.9997 13.4209 93.1177 13.8289 92.3497C14.2489 91.5817 14.8129 90.9877 15.5209 90.5677C16.2409 90.1357 17.0389 89.9197 17.9149 89.9197C18.5629 89.9197 19.1989 90.0637 19.8229 90.3517C20.4589 90.6277 20.9629 90.9997 21.3349 91.4677V86.6797H23.4049V99.9997H21.3349V98.5057C20.9989 98.9857 20.5309 99.3817 19.9309 99.6937C19.3429 100.006 18.6649 100.162 17.8969 100.162C17.0329 100.162 16.2409 99.9457 15.5209 99.5137C14.8129 99.0697 14.2489 98.4577 13.8289 97.6777C13.4209 96.8857 13.2169 95.9917 13.2169 94.9957ZM21.3349 95.0317C21.3349 94.3477 21.1909 93.7537 20.9029 93.2497C20.6269 92.7457 20.2609 92.3617 19.8049 92.0977C19.3489 91.8337 18.8569 91.7017 18.3289 91.7017C17.8009 91.7017 17.3089 91.8337 16.8529 92.0977C16.3969 92.3497 16.0249 92.7277 15.7369 93.2317C15.4609 93.7237 15.3229 94.3117 15.3229 94.9957C15.3229 95.6797 15.4609 96.2797 15.7369 96.7957C16.0249 97.3117 16.3969 97.7077 16.8529 97.9837C17.3209 98.2477 17.8129 98.3797 18.3289 98.3797C18.8569 98.3797 19.3489 98.2477 19.8049 97.9837C20.2609 97.7197 20.6269 97.3357 20.9029 96.8317C21.1909 96.3157 21.3349 95.7157 21.3349 95.0317ZM30.4021 100.162C29.4661 100.162 28.6201 99.9517 27.8641 99.5317C27.1081 99.0997 26.5141 98.4997 26.0821 97.7317C25.6501 96.9517 25.4341 96.0517 25.4341 95.0317C25.4341 94.0237 25.6561 93.1297 26.1001 92.3497C26.5441 91.5697 27.1501 90.9697 27.9181 90.5497C28.6861 90.1297 29.5441 89.9197 30.4921 89.9197C31.4401 89.9197 32.2981 90.1297 33.0661 90.5497C33.8341 90.9697 34.4401 91.5697 34.8841 92.3497C35.3281 93.1297 35.5501 94.0237 35.5501 95.0317C35.5501 96.0397 35.3221 96.9337 34.8661 97.7137C34.4101 98.4937 33.7861 99.0997 32.9941 99.5317C32.2141 99.9517 31.3501 100.162 30.4021 100.162ZM30.4021 98.3797C30.9301 98.3797 31.4221 98.2537 31.8781 98.0017C32.3461 97.7497 32.7241 97.3717 33.0121 96.8677C33.3001 96.3637 33.4441 95.7517 33.4441 95.0317C33.4441 94.3117 33.3061 93.7057 33.0301 93.2137C32.7541 92.7097 32.3881 92.3317 31.9321 92.0797C31.4761 91.8277 30.9841 91.7017 30.4561 91.7017C29.9281 91.7017 29.4361 91.8277 28.9801 92.0797C28.5361 92.3317 28.1821 92.7097 27.9181 93.2137C27.6541 93.7057 27.5221 94.3117 27.5221 95.0317C27.5221 96.0997 27.7921 96.9277 28.3321 97.5157C28.8841 98.0917 29.5741 98.3797 30.4021 98.3797ZM39.6306 91.5577C39.9786 91.0777 40.4526 90.6877 41.0526 90.3877C41.6646 90.0757 42.3426 89.9197 43.0866 89.9197C43.9626 89.9197 44.7546 90.1297 45.4626 90.5497C46.1706 90.9697 46.7286 91.5697 47.1366 92.3497C47.5446 93.1177 47.7486 93.9997 47.7486 94.9957C47.7486 95.9917 47.5446 96.8857 47.1366 97.6777C46.7286 98.4577 46.1646 99.0697 45.4446 99.5137C44.7366 99.9457 43.9506 100.162 43.0866 100.162C42.3186 100.162 41.6346 100.012 41.0346 99.7117C40.4466 99.4117 39.9786 99.0277 39.6306 98.5597V99.9997H37.5786V86.6797H39.6306V91.5577ZM45.6606 94.9957C45.6606 94.3117 45.5166 93.7237 45.2286 93.2317C44.9526 92.7277 44.5806 92.3497 44.1126 92.0977C43.6566 91.8337 43.1646 91.7017 42.6366 91.7017C42.1206 91.7017 41.6286 91.8337 41.1606 92.0977C40.7046 92.3617 40.3326 92.7457 40.0446 93.2497C39.7686 93.7537 39.6306 94.3477 39.6306 95.0317C39.6306 95.7157 39.7686 96.3157 40.0446 96.8317C40.3326 97.3357 40.7046 97.7197 41.1606 97.9837C41.6286 98.2477 42.1206 98.3797 42.6366 98.3797C43.1646 98.3797 43.6566 98.2477 44.1126 97.9837C44.5806 97.7077 44.9526 97.3117 45.2286 96.7957C45.5166 96.2797 45.6606 95.6797 45.6606 94.9957ZM58.8678 94.7977C58.8678 95.1697 58.8438 95.5057 58.7958 95.8057H51.2178C51.2778 96.5977 51.5718 97.2337 52.0998 97.7137C52.6278 98.1937 53.2758 98.4337 54.0438 98.4337C55.1478 98.4337 55.9278 97.9717 56.3838 97.0477H58.5978C58.2978 97.9597 57.7518 98.7097 56.9598 99.2977C56.1798 99.8737 55.2078 100.162 54.0438 100.162C53.0958 100.162 52.2438 99.9517 51.4878 99.5317C50.7438 99.0997 50.1558 98.4997 49.7238 97.7317C49.3038 96.9517 49.0938 96.0517 49.0938 95.0317C49.0938 94.0117 49.2978 93.1177 49.7058 92.3497C50.1258 91.5697 50.7078 90.9697 51.4518 90.5497C52.2078 90.1297 53.0718 89.9197 54.0438 89.9197C54.9798 89.9197 55.8138 90.1237 56.5458 90.5317C57.2778 90.9397 57.8478 91.5157 58.2558 92.2597C58.6638 92.9917 58.8678 93.8377 58.8678 94.7977ZM56.7258 94.1497C56.7138 93.3937 56.4438 92.7877 55.9158 92.3317C55.3878 91.8757 54.7338 91.6477 53.9538 91.6477C53.2458 91.6477 52.6398 91.8757 52.1358 92.3317C51.6318 92.7757 51.3318 93.3817 51.2358 94.1497H56.7258ZM67.615 87.4897V99.9997H65.563V87.4897H67.615ZM72.3611 86.6797V99.9997H70.3091V86.6797H72.3611ZM77.1072 86.6797V99.9997H75.0552V86.6797H77.1072ZM88.7833 90.0817V99.9997H86.7313V98.8297C86.4073 99.2377 85.9813 99.5617 85.4533 99.8017C84.9373 100.03 84.3853 100.144 83.7973 100.144C83.0173 100.144 82.3153 99.9817 81.6913 99.6577C81.0793 99.3337 80.5933 98.8537 80.2333 98.2177C79.8853 97.5817 79.7113 96.8137 79.7113 95.9137V90.0817H81.7453V95.6077C81.7453 96.4957 81.9673 97.1797 82.4113 97.6597C82.8553 98.1277 83.4613 98.3617 84.2293 98.3617C84.9973 98.3617 85.6033 98.1277 86.0473 97.6597C86.5033 97.1797 86.7313 96.4957 86.7313 95.6077V90.0817H88.7833ZM95.0907 100.162C94.3107 100.162 93.6087 100.024 92.9847 99.7477C92.3727 99.4597 91.8867 99.0757 91.5267 98.5957C91.1667 98.1037 90.9747 97.5577 90.9507 96.9577H93.0747C93.1107 97.3777 93.3087 97.7317 93.6687 98.0197C94.0407 98.2957 94.5027 98.4337 95.0547 98.4337C95.6307 98.4337 96.0747 98.3257 96.3867 98.1097C96.7107 97.8817 96.8727 97.5937 96.8727 97.2457C96.8727 96.8737 96.6927 96.5977 96.3327 96.4177C95.9847 96.2377 95.4267 96.0397 94.6587 95.8237C93.9147 95.6197 93.3087 95.4217 92.8407 95.2297C92.3727 95.0377 91.9647 94.7437 91.6167 94.3477C91.2807 93.9517 91.1127 93.4297 91.1127 92.7817C91.1127 92.2537 91.2687 91.7737 91.5807 91.3417C91.8927 90.8977 92.3367 90.5497 92.9127 90.2977C93.5007 90.0457 94.1727 89.9197 94.9287 89.9197C96.0567 89.9197 96.9627 90.2077 97.6467 90.7837C98.3427 91.3477 98.7147 92.1217 98.7627 93.1057H96.7107C96.6747 92.6617 96.4947 92.3077 96.1707 92.0437C95.8467 91.7797 95.4087 91.6477 94.8567 91.6477C94.3167 91.6477 93.9027 91.7497 93.6147 91.9537C93.3267 92.1577 93.1827 92.4277 93.1827 92.7637C93.1827 93.0277 93.2787 93.2497 93.4707 93.4297C93.6627 93.6097 93.8967 93.7537 94.1727 93.8617C94.4487 93.9577 94.8567 94.0837 95.3967 94.2397C96.1167 94.4317 96.7047 94.6297 97.1607 94.8337C97.6287 95.0257 98.0307 95.3137 98.3667 95.6977C98.7027 96.0817 98.8767 96.5917 98.8887 97.2277C98.8887 97.7917 98.7327 98.2957 98.4207 98.7397C98.1087 99.1837 97.6647 99.5317 97.0887 99.7837C96.5247 100.036 95.8587 100.162 95.0907 100.162ZM103.5 91.7557V97.2457C103.5 97.6177 103.584 97.8877 103.752 98.0557C103.932 98.2117 104.232 98.2897 104.652 98.2897H105.912V99.9997H104.292C103.368 99.9997 102.66 99.7837 102.168 99.3517C101.676 98.9197 101.43 98.2177 101.43 97.2457V91.7557H100.26V90.0817H101.43V87.6157H103.5V90.0817H105.912V91.7557H103.5ZM109.855 91.5217C110.155 91.0177 110.551 90.6277 111.043 90.3517C111.547 90.0637 112.141 89.9197 112.825 89.9197V92.0437H112.303C111.499 92.0437 110.887 92.2477 110.467 92.6557C110.059 93.0637 109.855 93.7717 109.855 94.7797V99.9997H107.803V90.0817H109.855V91.5217ZM114.027 94.9957C114.027 93.9997 114.231 93.1177 114.639 92.3497C115.059 91.5817 115.623 90.9877 116.331 90.5677C117.051 90.1357 117.843 89.9197 118.707 89.9197C119.487 89.9197 120.165 90.0757 120.741 90.3877C121.329 90.6877 121.797 91.0657 122.145 91.5217V90.0817H124.215V99.9997H122.145V98.5237C121.797 98.9917 121.323 99.3817 120.723 99.6937C120.123 100.006 119.439 100.162 118.671 100.162C117.819 100.162 117.039 99.9457 116.331 99.5137C115.623 99.0697 115.059 98.4577 114.639 97.6777C114.231 96.8857 114.027 95.9917 114.027 94.9957ZM122.145 95.0317C122.145 94.3477 122.001 93.7537 121.713 93.2497C121.437 92.7457 121.071 92.3617 120.615 92.0977C120.159 91.8337 119.667 91.7017 119.139 91.7017C118.611 91.7017 118.119 91.8337 117.663 92.0977C117.207 92.3497 116.835 92.7277 116.547 93.2317C116.271 93.7237 116.133 94.3117 116.133 94.9957C116.133 95.6797 116.271 96.2797 116.547 96.7957C116.835 97.3117 117.207 97.7077 117.663 97.9837C118.131 98.2477 118.623 98.3797 119.139 98.3797C119.667 98.3797 120.159 98.2477 120.615 97.9837C121.071 97.7197 121.437 97.3357 121.713 96.8317C122.001 96.3157 122.145 95.7157 122.145 95.0317ZM129.305 91.7557V97.2457C129.305 97.6177 129.389 97.8877 129.557 98.0557C129.737 98.2117 130.037 98.2897 130.457 98.2897H131.717V99.9997H130.097C129.173 99.9997 128.465 99.7837 127.973 99.3517C127.481 98.9197 127.235 98.2177 127.235 97.2457V91.7557H126.065V90.0817H127.235V87.6157H129.305V90.0817H131.717V91.7557H129.305ZM137.91 100.162C136.974 100.162 136.128 99.9517 135.372 99.5317C134.616 99.0997 134.022 98.4997 133.59 97.7317C133.158 96.9517 132.942 96.0517 132.942 95.0317C132.942 94.0237 133.164 93.1297 133.608 92.3497C134.052 91.5697 134.658 90.9697 135.426 90.5497C136.194 90.1297 137.052 89.9197 138 89.9197C138.948 89.9197 139.806 90.1297 140.574 90.5497C141.342 90.9697 141.948 91.5697 142.392 92.3497C142.836 93.1297 143.058 94.0237 143.058 95.0317C143.058 96.0397 142.83 96.9337 142.374 97.7137C141.918 98.4937 141.294 99.0997 140.502 99.5317C139.722 99.9517 138.858 100.162 137.91 100.162ZM137.91 98.3797C138.438 98.3797 138.93 98.2537 139.386 98.0017C139.854 97.7497 140.232 97.3717 140.52 96.8677C140.808 96.3637 140.952 95.7517 140.952 95.0317C140.952 94.3117 140.814 93.7057 140.538 93.2137C140.262 92.7097 139.896 92.3317 139.44 92.0797C138.984 91.8277 138.492 91.7017 137.964 91.7017C137.436 91.7017 136.944 91.8277 136.488 92.0797C136.044 92.3317 135.69 92.7097 135.426 93.2137C135.162 93.7057 135.03 94.3117 135.03 95.0317C135.03 96.0997 135.3 96.9277 135.84 97.5157C136.392 98.0917 137.082 98.3797 137.91 98.3797ZM147.138 91.5217C147.438 91.0177 147.834 90.6277 148.326 90.3517C148.83 90.0637 149.424 89.9197 150.108 89.9197V92.0437H149.586C148.782 92.0437 148.17 92.2477 147.75 92.6557C147.342 93.0637 147.138 93.7717 147.138 94.7797V99.9997H145.086V90.0817H147.138V91.5217Z" fill="#FAFAFA"/>
<path d="M502 110H4C1.79086 110 0 111.791 0 114C0 116.209 1.79086 118 4 118H502C504.209 118 506 116.209 506 114C506 111.791 504.209 110 502 110Z" fill="#D9D9D9"/>
<path d="M0 114C0 111.791 1.79086 110 4 110H400V118H4C1.79086 118 0 116.209 0 114Z" fill="#CF9C63"/>
<path d="M411.716 407.736C411.193 407.531 410.792 407.232 410.512 406.84C410.232 406.448 410.092 405.972 410.092 405.412C410.092 404.908 410.218 404.455 410.47 404.054C410.722 403.643 411.095 403.321 411.59 403.088C412.094 402.845 412.701 402.724 413.41 402.724C414.119 402.724 414.721 402.845 415.216 403.088C415.72 403.321 416.098 403.643 416.35 404.054C416.611 404.455 416.742 404.908 416.742 405.412C416.742 405.953 416.597 406.429 416.308 406.84C416.019 407.241 415.622 407.54 415.118 407.736C415.697 407.913 416.154 408.226 416.49 408.674C416.835 409.113 417.008 409.645 417.008 410.27C417.008 410.877 416.859 411.409 416.56 411.866C416.261 412.314 415.837 412.664 415.286 412.916C414.745 413.159 414.119 413.28 413.41 413.28C412.701 413.28 412.075 413.159 411.534 412.916C411.002 412.664 410.587 412.314 410.288 411.866C409.989 411.409 409.84 410.877 409.84 410.27C409.84 409.645 410.008 409.108 410.344 408.66C410.68 408.212 411.137 407.904 411.716 407.736ZM415.51 405.566C415.51 404.997 415.323 404.558 414.95 404.25C414.577 403.942 414.063 403.788 413.41 403.788C412.766 403.788 412.257 403.942 411.884 404.25C411.511 404.558 411.324 405.001 411.324 405.58C411.324 406.103 411.515 406.523 411.898 406.84C412.29 407.157 412.794 407.316 413.41 407.316C414.035 407.316 414.539 407.157 414.922 406.84C415.314 406.513 415.51 406.089 415.51 405.566ZM413.41 408.296C412.719 408.296 412.155 408.459 411.716 408.786C411.277 409.103 411.058 409.584 411.058 410.228C411.058 410.825 411.268 411.306 411.688 411.67C412.117 412.034 412.691 412.216 413.41 412.216C414.129 412.216 414.698 412.034 415.118 411.67C415.538 411.306 415.748 410.825 415.748 410.228C415.748 409.603 415.533 409.127 415.104 408.8C414.675 408.464 414.11 408.296 413.41 408.296ZM425.154 403.984H420.24V407.176C420.455 406.877 420.772 406.635 421.192 406.448C421.612 406.252 422.065 406.154 422.55 406.154C423.325 406.154 423.955 406.317 424.44 406.644C424.925 406.961 425.271 407.377 425.476 407.89C425.691 408.394 425.798 408.931 425.798 409.5C425.798 410.172 425.672 410.774 425.42 411.306C425.168 411.838 424.781 412.258 424.258 412.566C423.745 412.874 423.105 413.028 422.34 413.028C421.36 413.028 420.567 412.776 419.96 412.272C419.353 411.768 418.985 411.096 418.854 410.256H420.1C420.221 410.788 420.478 411.203 420.87 411.502C421.262 411.801 421.757 411.95 422.354 411.95C423.091 411.95 423.647 411.731 424.02 411.292C424.393 410.844 424.58 410.256 424.58 409.528C424.58 408.8 424.393 408.24 424.02 407.848C423.647 407.447 423.096 407.246 422.368 407.246C421.873 407.246 421.439 407.367 421.066 407.61C420.702 407.843 420.436 408.165 420.268 408.576H419.064V402.864H425.154V403.984ZM427.211 405.16C427.211 404.525 427.402 404.021 427.785 403.648C428.168 403.265 428.658 403.074 429.255 403.074C429.852 403.074 430.342 403.265 430.725 403.648C431.108 404.021 431.299 404.525 431.299 405.16C431.299 405.804 431.108 406.317 430.725 406.7C430.342 407.073 429.852 407.26 429.255 407.26C428.658 407.26 428.168 407.073 427.785 406.7C427.402 406.317 427.211 405.804 427.211 405.16ZM435.387 403.228L429.717 413H428.457L434.127 403.228H435.387ZM429.255 403.858C428.938 403.858 428.686 403.97 428.499 404.194C428.322 404.409 428.233 404.731 428.233 405.16C428.233 405.589 428.322 405.916 428.499 406.14C428.686 406.364 428.938 406.476 429.255 406.476C429.572 406.476 429.824 406.364 430.011 406.14C430.198 405.907 430.291 405.58 430.291 405.16C430.291 404.731 430.198 404.409 430.011 404.194C429.824 403.97 429.572 403.858 429.255 403.858ZM432.573 411.068C432.573 410.424 432.764 409.915 433.147 409.542C433.53 409.159 434.02 408.968 434.617 408.968C435.214 408.968 435.7 409.159 436.073 409.542C436.456 409.915 436.647 410.424 436.647 411.068C436.647 411.703 436.456 412.211 436.073 412.594C435.7 412.977 435.214 413.168 434.617 413.168C434.02 413.168 433.53 412.981 433.147 412.608C432.764 412.225 432.573 411.712 432.573 411.068ZM434.603 409.766C434.286 409.766 434.034 409.878 433.847 410.102C433.66 410.317 433.567 410.639 433.567 411.068C433.567 411.488 433.66 411.81 433.847 412.034C434.034 412.249 434.286 412.356 434.603 412.356C434.92 412.356 435.172 412.249 435.359 412.034C435.546 411.81 435.639 411.488 435.639 411.068C435.639 410.639 435.546 410.317 435.359 410.102C435.172 409.878 434.92 409.766 434.603 409.766Z" fill="#FAFAFA"/>
<path d="M17.64 399.49L13.932 412H11.61L8.98204 402.532L6.19204 412L3.88804 412.018L0.342041 399.49H2.52004L5.11204 409.678L7.92004 399.49H10.224L12.834 409.624L15.444 399.49H17.64ZM23.6344 412.162C22.6984 412.162 21.8524 411.952 21.0964 411.532C20.3404 411.1 19.7464 410.5 19.3144 409.732C18.8824 408.952 18.6664 408.052 18.6664 407.032C18.6664 406.024 18.8884 405.13 19.3324 404.35C19.7764 403.57 20.3824 402.97 21.1504 402.55C21.9184 402.13 22.7764 401.92 23.7244 401.92C24.6724 401.92 25.5304 402.13 26.2984 402.55C27.0664 402.97 27.6724 403.57 28.1164 404.35C28.5604 405.13 28.7824 406.024 28.7824 407.032C28.7824 408.04 28.5544 408.934 28.0984 409.714C27.6424 410.494 27.0184 411.1 26.2264 411.532C25.4464 411.952 24.5824 412.162 23.6344 412.162ZM23.6344 410.38C24.1624 410.38 24.6544 410.254 25.1104 410.002C25.5784 409.75 25.9564 409.372 26.2444 408.868C26.5324 408.364 26.6764 407.752 26.6764 407.032C26.6764 406.312 26.5384 405.706 26.2624 405.214C25.9864 404.71 25.6204 404.332 25.1644 404.08C24.7084 403.828 24.2164 403.702 23.6884 403.702C23.1604 403.702 22.6684 403.828 22.2124 404.08C21.7684 404.332 21.4144 404.71 21.1504 405.214C20.8864 405.706 20.7544 406.312 20.7544 407.032C20.7544 408.1 21.0244 408.928 21.5644 409.516C22.1164 410.092 22.8064 410.38 23.6344 410.38ZM32.8629 403.522C33.1629 403.018 33.5589 402.628 34.0509 402.352C34.5549 402.064 35.1489 401.92 35.8329 401.92V404.044H35.3109C34.5069 404.044 33.8949 404.248 33.4749 404.656C33.0669 405.064 32.8629 405.772 32.8629 406.78V412H30.8109V402.082H32.8629V403.522ZM37.0351 406.996C37.0351 406 37.2391 405.118 37.6471 404.35C38.0671 403.582 38.6311 402.988 39.3391 402.568C40.0591 402.136 40.8571 401.92 41.7331 401.92C42.3811 401.92 43.0171 402.064 43.6411 402.352C44.2771 402.628 44.7811 403 45.1531 403.468V398.68H47.2231V412H45.1531V410.506C44.8171 410.986 44.3491 411.382 43.7491 411.694C43.1611 412.006 42.4831 412.162 41.7151 412.162C40.8511 412.162 40.0591 411.946 39.3391 411.514C38.6311 411.07 38.0671 410.458 37.6471 409.678C37.2391 408.886 37.0351 407.992 37.0351 406.996ZM45.1531 407.032C45.1531 406.348 45.0091 405.754 44.7211 405.25C44.4451 404.746 44.0791 404.362 43.6231 404.098C43.1671 403.834 42.6751 403.702 42.1471 403.702C41.6191 403.702 41.1271 403.834 40.6711 404.098C40.2151 404.35 39.8431 404.728 39.5551 405.232C39.2791 405.724 39.1411 406.312 39.1411 406.996C39.1411 407.68 39.2791 408.28 39.5551 408.796C39.8431 409.312 40.2151 409.708 40.6711 409.984C41.1391 410.248 41.6311 410.38 42.1471 410.38C42.6751 410.38 43.1671 410.248 43.6231 409.984C44.0791 409.72 44.4451 409.336 44.7211 408.832C45.0091 408.316 45.1531 407.716 45.1531 407.032ZM51.9704 403.54C52.3184 403.084 52.7924 402.7 53.3924 402.388C53.9924 402.076 54.6704 401.92 55.4264 401.92C56.2904 401.92 57.0764 402.136 57.7844 402.568C58.5044 402.988 59.0684 403.582 59.4764 404.35C59.8844 405.118 60.0884 406 60.0884 406.996C60.0884 407.992 59.8844 408.886 59.4764 409.678C59.0684 410.458 58.5044 411.07 57.7844 411.514C57.0764 411.946 56.2904 412.162 55.4264 412.162C54.6704 412.162 53.9984 412.012 53.4104 411.712C52.8224 411.4 52.3424 411.016 51.9704 410.56V416.716H49.9184V402.082H51.9704V403.54ZM58.0004 406.996C58.0004 406.312 57.8564 405.724 57.5684 405.232C57.2924 404.728 56.9204 404.35 56.4524 404.098C55.9964 403.834 55.5044 403.702 54.9764 403.702C54.4604 403.702 53.9684 403.834 53.5004 404.098C53.0444 404.362 52.6724 404.746 52.3844 405.25C52.1084 405.754 51.9704 406.348 51.9704 407.032C51.9704 407.716 52.1084 408.316 52.3844 408.832C52.6724 409.336 53.0444 409.72 53.5004 409.984C53.9684 410.248 54.4604 410.38 54.9764 410.38C55.5044 410.38 55.9964 410.248 56.4524 409.984C56.9204 409.708 57.2924 409.312 57.5684 408.796C57.8564 408.28 58.0004 407.68 58.0004 406.996ZM64.1696 403.522C64.4696 403.018 64.8656 402.628 65.3576 402.352C65.8616 402.064 66.4556 401.92 67.1396 401.92V404.044H66.6176C65.8136 404.044 65.2016 404.248 64.7816 404.656C64.3736 405.064 64.1696 405.772 64.1696 406.78V412H62.1176V402.082H64.1696V403.522ZM78.1158 406.798C78.1158 407.17 78.0918 407.506 78.0438 407.806H70.4658C70.5258 408.598 70.8198 409.234 71.3478 409.714C71.8758 410.194 72.5238 410.434 73.2918 410.434C74.3958 410.434 75.1758 409.972 75.6318 409.048H77.8458C77.5458 409.96 76.9998 410.71 76.2078 411.298C75.4278 411.874 74.4558 412.162 73.2918 412.162C72.3438 412.162 71.4918 411.952 70.7358 411.532C69.9918 411.1 69.4038 410.5 68.9718 409.732C68.5518 408.952 68.3418 408.052 68.3418 407.032C68.3418 406.012 68.5458 405.118 68.9538 404.35C69.3738 403.57 69.9558 402.97 70.6998 402.55C71.4558 402.13 72.3198 401.92 73.2918 401.92C74.2278 401.92 75.0618 402.124 75.7938 402.532C76.5258 402.94 77.0958 403.516 77.5038 404.26C77.9118 404.992 78.1158 405.838 78.1158 406.798ZM75.9738 406.15C75.9618 405.394 75.6918 404.788 75.1638 404.332C74.6358 403.876 73.9818 403.648 73.2018 403.648C72.4938 403.648 71.8878 403.876 71.3838 404.332C70.8798 404.776 70.5798 405.382 70.4838 406.15H75.9738ZM83.7352 412.162C82.9552 412.162 82.2532 412.024 81.6292 411.748C81.0172 411.46 80.5312 411.076 80.1712 410.596C79.8112 410.104 79.6192 409.558 79.5952 408.958H81.7192C81.7552 409.378 81.9532 409.732 82.3132 410.02C82.6852 410.296 83.1472 410.434 83.6992 410.434C84.2752 410.434 84.7192 410.326 85.0312 410.11C85.3552 409.882 85.5172 409.594 85.5172 409.246C85.5172 408.874 85.3372 408.598 84.9772 408.418C84.6292 408.238 84.0712 408.04 83.3032 407.824C82.5592 407.62 81.9532 407.422 81.4852 407.23C81.0172 407.038 80.6092 406.744 80.2612 406.348C79.9252 405.952 79.7572 405.43 79.7572 404.782C79.7572 404.254 79.9132 403.774 80.2252 403.342C80.5372 402.898 80.9812 402.55 81.5572 402.298C82.1452 402.046 82.8172 401.92 83.5732 401.92C84.7012 401.92 85.6072 402.208 86.2912 402.784C86.9872 403.348 87.3592 404.122 87.4072 405.106H85.3552C85.3192 404.662 85.1392 404.308 84.8152 404.044C84.4912 403.78 84.0532 403.648 83.5012 403.648C82.9612 403.648 82.5472 403.75 82.2592 403.954C81.9712 404.158 81.8272 404.428 81.8272 404.764C81.8272 405.028 81.9232 405.25 82.1152 405.43C82.3072 405.61 82.5412 405.754 82.8172 405.862C83.0932 405.958 83.5012 406.084 84.0412 406.24C84.7612 406.432 85.3492 406.63 85.8052 406.834C86.2732 407.026 86.6752 407.314 87.0112 407.698C87.3472 408.082 87.5212 408.592 87.5332 409.228C87.5332 409.792 87.3772 410.296 87.0652 410.74C86.7532 411.184 86.3092 411.532 85.7332 411.784C85.1692 412.036 84.5032 412.162 83.7352 412.162ZM93.3504 412.162C92.5704 412.162 91.8684 412.024 91.2444 411.748C90.6324 411.46 90.1464 411.076 89.7864 410.596C89.4264 410.104 89.2344 409.558 89.2104 408.958H91.3344C91.3704 409.378 91.5684 409.732 91.9284 410.02C92.3004 410.296 92.7624 410.434 93.3144 410.434C93.8904 410.434 94.3344 410.326 94.6464 410.11C94.9704 409.882 95.1324 409.594 95.1324 409.246C95.1324 408.874 94.9524 408.598 94.5924 408.418C94.2444 408.238 93.6864 408.04 92.9184 407.824C92.1744 407.62 91.5684 407.422 91.1004 407.23C90.6324 407.038 90.2244 406.744 89.8764 406.348C89.5404 405.952 89.3724 405.43 89.3724 404.782C89.3724 404.254 89.5284 403.774 89.8404 403.342C90.1524 402.898 90.5964 402.55 91.1724 402.298C91.7604 402.046 92.4324 401.92 93.1884 401.92C94.3164 401.92 95.2224 402.208 95.9064 402.784C96.6024 403.348 96.9744 404.122 97.0224 405.106H94.9704C94.9344 404.662 94.7544 404.308 94.4304 404.044C94.1064 403.78 93.6684 403.648 93.1164 403.648C92.5764 403.648 92.1624 403.75 91.8744 403.954C91.5864 404.158 91.4424 404.428 91.4424 404.764C91.4424 405.028 91.5384 405.25 91.7304 405.43C91.9224 405.61 92.1564 405.754 92.4324 405.862C92.7084 405.958 93.1164 406.084 93.6564 406.24C94.3764 406.432 94.9644 406.63 95.4204 406.834C95.8884 407.026 96.2904 407.314 96.6264 407.698C96.9624 408.082 97.1364 408.592 97.1484 409.228C97.1484 409.792 96.9924 410.296 96.6804 410.74C96.3684 411.184 95.9244 411.532 95.3484 411.784C94.7844 412.036 94.1184 412.162 93.3504 412.162Z" fill="#FAFAFA"/>
<path d="M502 424H4C1.79086 424 0 425.791 0 428C0 430.209 1.79086 432 4 432H502C504.209 432 506 430.209 506 428C506 425.791 504.209 424 502 424Z" fill="#D9D9D9"/>
<path d="M0 428C0 425.791 1.79086 424 4 424H424V432H4.00001C1.79087 432 0 430.209 0 428Z" fill="#CF9C63"/>
<path d="M412.716 171.736C412.193 171.531 411.792 171.232 411.512 170.84C411.232 170.448 411.092 169.972 411.092 169.412C411.092 168.908 411.218 168.455 411.47 168.054C411.722 167.643 412.095 167.321 412.59 167.088C413.094 166.845 413.701 166.724 414.41 166.724C415.119 166.724 415.721 166.845 416.216 167.088C416.72 167.321 417.098 167.643 417.35 168.054C417.611 168.455 417.742 168.908 417.742 169.412C417.742 169.953 417.597 170.429 417.308 170.84C417.019 171.241 416.622 171.54 416.118 171.736C416.697 171.913 417.154 172.226 417.49 172.674C417.835 173.113 418.008 173.645 418.008 174.27C418.008 174.877 417.859 175.409 417.56 175.866C417.261 176.314 416.837 176.664 416.286 176.916C415.745 177.159 415.119 177.28 414.41 177.28C413.701 177.28 413.075 177.159 412.534 176.916C412.002 176.664 411.587 176.314 411.288 175.866C410.989 175.409 410.84 174.877 410.84 174.27C410.84 173.645 411.008 173.108 411.344 172.66C411.68 172.212 412.137 171.904 412.716 171.736ZM416.51 169.566C416.51 168.997 416.323 168.558 415.95 168.25C415.577 167.942 415.063 167.788 414.41 167.788C413.766 167.788 413.257 167.942 412.884 168.25C412.511 168.558 412.324 169.001 412.324 169.58C412.324 170.103 412.515 170.523 412.898 170.84C413.29 171.157 413.794 171.316 414.41 171.316C415.035 171.316 415.539 171.157 415.922 170.84C416.314 170.513 416.51 170.089 416.51 169.566ZM414.41 172.296C413.719 172.296 413.155 172.459 412.716 172.786C412.277 173.103 412.058 173.584 412.058 174.228C412.058 174.825 412.268 175.306 412.688 175.67C413.117 176.034 413.691 176.216 414.41 176.216C415.129 176.216 415.698 176.034 416.118 175.67C416.538 175.306 416.748 174.825 416.748 174.228C416.748 173.603 416.533 173.127 416.104 172.8C415.675 172.464 415.11 172.296 414.41 172.296ZM426.154 167.984H421.24V171.176C421.455 170.877 421.772 170.635 422.192 170.448C422.612 170.252 423.065 170.154 423.55 170.154C424.325 170.154 424.955 170.317 425.44 170.644C425.925 170.961 426.271 171.377 426.476 171.89C426.691 172.394 426.798 172.931 426.798 173.5C426.798 174.172 426.672 174.774 426.42 175.306C426.168 175.838 425.781 176.258 425.258 176.566C424.745 176.874 424.105 177.028 423.34 177.028C422.36 177.028 421.567 176.776 420.96 176.272C420.353 175.768 419.985 175.096 419.854 174.256H421.1C421.221 174.788 421.478 175.203 421.87 175.502C422.262 175.801 422.757 175.95 423.354 175.95C424.091 175.95 424.647 175.731 425.02 175.292C425.393 174.844 425.58 174.256 425.58 173.528C425.58 172.8 425.393 172.24 425.02 171.848C424.647 171.447 424.096 171.246 423.368 171.246C422.873 171.246 422.439 171.367 422.066 171.61C421.702 171.843 421.436 172.165 421.268 172.576H420.064V166.864H426.154V167.984ZM428.211 169.16C428.211 168.525 428.402 168.021 428.785 167.648C429.168 167.265 429.658 167.074 430.255 167.074C430.852 167.074 431.342 167.265 431.725 167.648C432.108 168.021 432.299 168.525 432.299 169.16C432.299 169.804 432.108 170.317 431.725 170.7C431.342 171.073 430.852 171.26 430.255 171.26C429.658 171.26 429.168 171.073 428.785 170.7C428.402 170.317 428.211 169.804 428.211 169.16ZM436.387 167.228L430.717 177H429.457L435.127 167.228H436.387ZM430.255 167.858C429.938 167.858 429.686 167.97 429.499 168.194C429.322 168.409 429.233 168.731 429.233 169.16C429.233 169.589 429.322 169.916 429.499 170.14C429.686 170.364 429.938 170.476 430.255 170.476C430.572 170.476 430.824 170.364 431.011 170.14C431.198 169.907 431.291 169.58 431.291 169.16C431.291 168.731 431.198 168.409 431.011 168.194C430.824 167.97 430.572 167.858 430.255 167.858ZM433.573 175.068C433.573 174.424 433.764 173.915 434.147 173.542C434.53 173.159 435.02 172.968 435.617 172.968C436.214 172.968 436.7 173.159 437.073 173.542C437.456 173.915 437.647 174.424 437.647 175.068C437.647 175.703 437.456 176.211 437.073 176.594C436.7 176.977 436.214 177.168 435.617 177.168C435.02 177.168 434.53 176.981 434.147 176.608C433.764 176.225 433.573 175.712 433.573 175.068ZM435.603 173.766C435.286 173.766 435.034 173.878 434.847 174.102C434.66 174.317 434.567 174.639 434.567 175.068C434.567 175.488 434.66 175.81 434.847 176.034C435.034 176.249 435.286 176.356 435.603 176.356C435.92 176.356 436.172 176.249 436.359 176.034C436.546 175.81 436.639 175.488 436.639 175.068C436.639 174.639 436.546 174.317 436.359 174.102C436.172 173.878 435.92 173.766 435.603 173.766Z" fill="#FAFAFA"/>
<path d="M10.098 169.216C10.098 169.852 9.94797 170.452 9.64797 171.016C9.34797 171.58 8.86798 172.042 8.20798 172.402C7.54798 172.75 6.70198 172.924 5.66998 172.924H3.40198V178H1.34998V165.49H5.66998C6.62998 165.49 7.43998 165.658 8.09998 165.994C8.77198 166.318 9.26998 166.762 9.59398 167.326C9.92998 167.89 10.098 168.52 10.098 169.216ZM5.66998 171.25C6.44998 171.25 7.03198 171.076 7.41598 170.728C7.79998 170.368 7.99198 169.864 7.99198 169.216C7.99198 167.848 7.21798 167.164 5.66998 167.164H3.40198V171.25H5.66998ZM17.1851 167.92C17.9411 167.92 18.6131 168.082 19.2011 168.406C19.8011 168.73 20.2691 169.21 20.6051 169.846C20.9531 170.482 21.1271 171.25 21.1271 172.15V178H19.0931V172.456C19.0931 171.568 18.8711 170.89 18.4271 170.422C17.9831 169.942 17.3771 169.702 16.6091 169.702C15.8411 169.702 15.2291 169.942 14.7731 170.422C14.3291 170.89 14.1071 171.568 14.1071 172.456V178H12.0551V164.68H14.1071V169.234C14.4551 168.814 14.8931 168.49 15.4211 168.262C15.9611 168.034 16.5491 167.92 17.1851 167.92ZM28.0465 178.162C27.1105 178.162 26.2645 177.952 25.5085 177.532C24.7525 177.1 24.1585 176.5 23.7265 175.732C23.2945 174.952 23.0785 174.052 23.0785 173.032C23.0785 172.024 23.3005 171.13 23.7445 170.35C24.1885 169.57 24.7945 168.97 25.5625 168.55C26.3305 168.13 27.1885 167.92 28.1365 167.92C29.0845 167.92 29.9425 168.13 30.7105 168.55C31.4785 168.97 32.0845 169.57 32.5285 170.35C32.9725 171.13 33.1945 172.024 33.1945 173.032C33.1945 174.04 32.9665 174.934 32.5105 175.714C32.0545 176.494 31.4305 177.1 30.6385 177.532C29.8585 177.952 28.9945 178.162 28.0465 178.162ZM28.0465 176.38C28.5745 176.38 29.0665 176.254 29.5225 176.002C29.9905 175.75 30.3685 175.372 30.6565 174.868C30.9445 174.364 31.0885 173.752 31.0885 173.032C31.0885 172.312 30.9505 171.706 30.6745 171.214C30.3985 170.71 30.0325 170.332 29.5765 170.08C29.1205 169.828 28.6285 169.702 28.1005 169.702C27.5725 169.702 27.0805 169.828 26.6245 170.08C26.1805 170.332 25.8265 170.71 25.5625 171.214C25.2985 171.706 25.1665 172.312 25.1665 173.032C25.1665 174.1 25.4365 174.928 25.9765 175.516C26.5285 176.092 27.2185 176.38 28.0465 176.38ZM37.617 169.756V175.246C37.617 175.618 37.701 175.888 37.869 176.056C38.049 176.212 38.349 176.29 38.769 176.29H40.029V178H38.409C37.485 178 36.777 177.784 36.285 177.352C35.793 176.92 35.547 176.218 35.547 175.246V169.756H34.377V168.082H35.547V165.616H37.617V168.082H40.029V169.756H37.617ZM46.2223 178.162C45.2863 178.162 44.4403 177.952 43.6843 177.532C42.9283 177.1 42.3343 176.5 41.9023 175.732C41.4703 174.952 41.2543 174.052 41.2543 173.032C41.2543 172.024 41.4763 171.13 41.9203 170.35C42.3643 169.57 42.9703 168.97 43.7383 168.55C44.5063 168.13 45.3643 167.92 46.3123 167.92C47.2603 167.92 48.1183 168.13 48.8863 168.55C49.6543 168.97 50.2603 169.57 50.7043 170.35C51.1483 171.13 51.3703 172.024 51.3703 173.032C51.3703 174.04 51.1423 174.934 50.6863 175.714C50.2303 176.494 49.6063 177.1 48.8143 177.532C48.0343 177.952 47.1703 178.162 46.2223 178.162ZM46.2223 176.38C46.7503 176.38 47.2423 176.254 47.6983 176.002C48.1663 175.75 48.5443 175.372 48.8323 174.868C49.1203 174.364 49.2643 173.752 49.2643 173.032C49.2643 172.312 49.1263 171.706 48.8503 171.214C48.5743 170.71 48.2083 170.332 47.7523 170.08C47.2963 169.828 46.8043 169.702 46.2763 169.702C45.7483 169.702 45.2563 169.828 44.8003 170.08C44.3563 170.332 44.0023 170.71 43.7383 171.214C43.4743 171.706 43.3423 172.312 43.3423 173.032C43.3423 174.1 43.6123 174.928 44.1523 175.516C44.7043 176.092 45.3943 176.38 46.2223 176.38ZM56.9988 178.162C56.2188 178.162 55.5168 178.024 54.8928 177.748C54.2808 177.46 53.7948 177.076 53.4348 176.596C53.0748 176.104 52.8828 175.558 52.8588 174.958H54.9828C55.0188 175.378 55.2168 175.732 55.5768 176.02C55.9488 176.296 56.4108 176.434 56.9628 176.434C57.5388 176.434 57.9828 176.326 58.2948 176.11C58.6188 175.882 58.7808 175.594 58.7808 175.246C58.7808 174.874 58.6008 174.598 58.2408 174.418C57.8928 174.238 57.3348 174.04 56.5668 173.824C55.8228 173.62 55.2168 173.422 54.7488 173.23C54.2808 173.038 53.8728 172.744 53.5248 172.348C53.1888 171.952 53.0208 171.43 53.0208 170.782C53.0208 170.254 53.1768 169.774 53.4888 169.342C53.8008 168.898 54.2448 168.55 54.8208 168.298C55.4088 168.046 56.0808 167.92 56.8368 167.92C57.9648 167.92 58.8708 168.208 59.5548 168.784C60.2508 169.348 60.6228 170.122 60.6708 171.106H58.6188C58.5828 170.662 58.4028 170.308 58.0788 170.044C57.7548 169.78 57.3168 169.648 56.7648 169.648C56.2248 169.648 55.8108 169.75 55.5228 169.954C55.2348 170.158 55.0908 170.428 55.0908 170.764C55.0908 171.028 55.1868 171.25 55.3788 171.43C55.5708 171.61 55.8048 171.754 56.0808 171.862C56.3568 171.958 56.7648 172.084 57.3048 172.24C58.0248 172.432 58.6128 172.63 59.0688 172.834C59.5368 173.026 59.9388 173.314 60.2748 173.698C60.6108 174.082 60.7848 174.592 60.7968 175.228C60.7968 175.792 60.6408 176.296 60.3288 176.74C60.0168 177.184 59.5728 177.532 58.9968 177.784C58.4328 178.036 57.7668 178.162 56.9988 178.162ZM68.1441 167.92C68.9001 167.92 69.5721 168.082 70.1601 168.406C70.7601 168.73 71.2281 169.21 71.5641 169.846C71.9121 170.482 72.0861 171.25 72.0861 172.15V178H70.0521V172.456C70.0521 171.568 69.8301 170.89 69.3861 170.422C68.9421 169.942 68.3361 169.702 67.5681 169.702C66.8001 169.702 66.1881 169.942 65.7321 170.422C65.2881 170.89 65.0661 171.568 65.0661 172.456V178H63.0141V164.68H65.0661V169.234C65.4141 168.814 65.8521 168.49 66.3801 168.262C66.9201 168.034 67.5081 167.92 68.1441 167.92ZM79.0055 178.162C78.0695 178.162 77.2235 177.952 76.4675 177.532C75.7115 177.1 75.1175 176.5 74.6855 175.732C74.2535 174.952 74.0375 174.052 74.0375 173.032C74.0375 172.024 74.2595 171.13 74.7035 170.35C75.1475 169.57 75.7535 168.97 76.5215 168.55C77.2895 168.13 78.1475 167.92 79.0955 167.92C80.0435 167.92 80.9015 168.13 81.6695 168.55C82.4375 168.97 83.0435 169.57 83.4875 170.35C83.9315 171.13 84.1535 172.024 84.1535 173.032C84.1535 174.04 83.9255 174.934 83.4695 175.714C83.0135 176.494 82.3895 177.1 81.5975 177.532C80.8175 177.952 79.9535 178.162 79.0055 178.162ZM79.0055 176.38C79.5335 176.38 80.0255 176.254 80.4815 176.002C80.9495 175.75 81.3275 175.372 81.6155 174.868C81.9035 174.364 82.0475 173.752 82.0475 173.032C82.0475 172.312 81.9095 171.706 81.6335 171.214C81.3575 170.71 80.9915 170.332 80.5355 170.08C80.0795 169.828 79.5875 169.702 79.0595 169.702C78.5315 169.702 78.0395 169.828 77.5835 170.08C77.1395 170.332 76.7855 170.71 76.5215 171.214C76.2575 171.706 76.1255 172.312 76.1255 173.032C76.1255 174.1 76.3955 174.928 76.9355 175.516C77.4875 176.092 78.1775 176.38 79.0055 176.38ZM88.234 169.54C88.582 169.084 89.056 168.7 89.656 168.388C90.256 168.076 90.934 167.92 91.69 167.92C92.554 167.92 93.34 168.136 94.048 168.568C94.768 168.988 95.332 169.582 95.74 170.35C96.148 171.118 96.352 172 96.352 172.996C96.352 173.992 96.148 174.886 95.74 175.678C95.332 176.458 94.768 177.07 94.048 177.514C93.34 177.946 92.554 178.162 91.69 178.162C90.934 178.162 90.262 178.012 89.674 177.712C89.086 177.4 88.606 177.016 88.234 176.56V182.716H86.182V168.082H88.234V169.54ZM94.264 172.996C94.264 172.312 94.12 171.724 93.832 171.232C93.556 170.728 93.184 170.35 92.716 170.098C92.26 169.834 91.768 169.702 91.24 169.702C90.724 169.702 90.232 169.834 89.764 170.098C89.308 170.362 88.936 170.746 88.648 171.25C88.372 171.754 88.234 172.348 88.234 173.032C88.234 173.716 88.372 174.316 88.648 174.832C88.936 175.336 89.308 175.72 89.764 175.984C90.232 176.248 90.724 176.38 91.24 176.38C91.768 176.38 92.26 176.248 92.716 175.984C93.184 175.708 93.556 175.312 93.832 174.796C94.12 174.28 94.264 173.68 94.264 172.996Z" fill="#FAFAFA"/>
<path d="M502 188H4C1.79086 188 0 189.791 0 192C0 194.209 1.79086 196 4 196H502C504.209 196 506 194.209 506 192C506 189.791 504.209 188 502 188Z" fill="#D9D9D9"/>
<path d="M0 192C0 189.791 1.79086 188 4 188H424V196H4.00001C1.79087 196 0 194.209 0 192Z" fill="#CF9C63"/>
<path d="M242.716 485.736C242.193 485.531 241.792 485.232 241.512 484.84C241.232 484.448 241.092 483.972 241.092 483.412C241.092 482.908 241.218 482.455 241.47 482.054C241.722 481.643 242.095 481.321 242.59 481.088C243.094 480.845 243.701 480.724 244.41 480.724C245.119 480.724 245.721 480.845 246.216 481.088C246.72 481.321 247.098 481.643 247.35 482.054C247.611 482.455 247.742 482.908 247.742 483.412C247.742 483.953 247.597 484.429 247.308 484.84C247.019 485.241 246.622 485.54 246.118 485.736C246.697 485.913 247.154 486.226 247.49 486.674C247.835 487.113 248.008 487.645 248.008 488.27C248.008 488.877 247.859 489.409 247.56 489.866C247.261 490.314 246.837 490.664 246.286 490.916C245.745 491.159 245.119 491.28 244.41 491.28C243.701 491.28 243.075 491.159 242.534 490.916C242.002 490.664 241.587 490.314 241.288 489.866C240.989 489.409 240.84 488.877 240.84 488.27C240.84 487.645 241.008 487.108 241.344 486.66C241.68 486.212 242.137 485.904 242.716 485.736ZM246.51 483.566C246.51 482.997 246.323 482.558 245.95 482.25C245.577 481.942 245.063 481.788 244.41 481.788C243.766 481.788 243.257 481.942 242.884 482.25C242.511 482.558 242.324 483.001 242.324 483.58C242.324 484.103 242.515 484.523 242.898 484.84C243.29 485.157 243.794 485.316 244.41 485.316C245.035 485.316 245.539 485.157 245.922 484.84C246.314 484.513 246.51 484.089 246.51 483.566ZM244.41 486.296C243.719 486.296 243.155 486.459 242.716 486.786C242.277 487.103 242.058 487.584 242.058 488.228C242.058 488.825 242.268 489.306 242.688 489.67C243.117 490.034 243.691 490.216 244.41 490.216C245.129 490.216 245.698 490.034 246.118 489.67C246.538 489.306 246.748 488.825 246.748 488.228C246.748 487.603 246.533 487.127 246.104 486.8C245.675 486.464 245.11 486.296 244.41 486.296ZM256.154 481.984H251.24V485.176C251.455 484.877 251.772 484.635 252.192 484.448C252.612 484.252 253.065 484.154 253.55 484.154C254.325 484.154 254.955 484.317 255.44 484.644C255.925 484.961 256.271 485.377 256.476 485.89C256.691 486.394 256.798 486.931 256.798 487.5C256.798 488.172 256.672 488.774 256.42 489.306C256.168 489.838 255.781 490.258 255.258 490.566C254.745 490.874 254.105 491.028 253.34 491.028C252.36 491.028 251.567 490.776 250.96 490.272C250.353 489.768 249.985 489.096 249.854 488.256H251.1C251.221 488.788 251.478 489.203 251.87 489.502C252.262 489.801 252.757 489.95 253.354 489.95C254.091 489.95 254.647 489.731 255.02 489.292C255.393 488.844 255.58 488.256 255.58 487.528C255.58 486.8 255.393 486.24 255.02 485.848C254.647 485.447 254.096 485.246 253.368 485.246C252.873 485.246 252.439 485.367 252.066 485.61C251.702 485.843 251.436 486.165 251.268 486.576H250.064V480.864H256.154V481.984ZM258.211 483.16C258.211 482.525 258.402 482.021 258.785 481.648C259.168 481.265 259.658 481.074 260.255 481.074C260.852 481.074 261.342 481.265 261.725 481.648C262.108 482.021 262.299 482.525 262.299 483.16C262.299 483.804 262.108 484.317 261.725 484.7C261.342 485.073 260.852 485.26 260.255 485.26C259.658 485.26 259.168 485.073 258.785 484.7C258.402 484.317 258.211 483.804 258.211 483.16ZM266.387 481.228L260.717 491H259.457L265.127 481.228H266.387ZM260.255 481.858C259.938 481.858 259.686 481.97 259.499 482.194C259.322 482.409 259.233 482.731 259.233 483.16C259.233 483.589 259.322 483.916 259.499 484.14C259.686 484.364 259.938 484.476 260.255 484.476C260.572 484.476 260.824 484.364 261.011 484.14C261.198 483.907 261.291 483.58 261.291 483.16C261.291 482.731 261.198 482.409 261.011 482.194C260.824 481.97 260.572 481.858 260.255 481.858ZM263.573 489.068C263.573 488.424 263.764 487.915 264.147 487.542C264.53 487.159 265.02 486.968 265.617 486.968C266.214 486.968 266.7 487.159 267.073 487.542C267.456 487.915 267.647 488.424 267.647 489.068C267.647 489.703 267.456 490.211 267.073 490.594C266.7 490.977 266.214 491.168 265.617 491.168C265.02 491.168 264.53 490.981 264.147 490.608C263.764 490.225 263.573 489.712 263.573 489.068ZM265.603 487.766C265.286 487.766 265.034 487.878 264.847 488.102C264.66 488.317 264.567 488.639 264.567 489.068C264.567 489.488 264.66 489.81 264.847 490.034C265.034 490.249 265.286 490.356 265.603 490.356C265.92 490.356 266.172 490.249 266.359 490.034C266.546 489.81 266.639 489.488 266.639 489.068C266.639 488.639 266.546 488.317 266.359 488.102C266.172 487.878 265.92 487.766 265.603 487.766Z" fill="#FAFAFA"/>
<path d="M8.17199 479.49V488.508C8.17199 489.624 7.82999 490.506 7.14599 491.154C6.47399 491.802 5.58599 492.126 4.48199 492.126C3.37799 492.126 2.48399 491.802 1.79999 491.154C1.12799 490.506 0.791992 489.624 0.791992 488.508H2.86199C2.87399 489.06 3.01199 489.498 3.27599 489.822C3.55199 490.146 3.95399 490.308 4.48199 490.308C5.00999 490.308 5.41199 490.146 5.68799 489.822C5.96399 489.486 6.10199 489.048 6.10199 488.508V479.49H8.17199ZM10.8262 486.996C10.8262 486 11.0302 485.118 11.4382 484.35C11.8582 483.582 12.4222 482.988 13.1302 482.568C13.8502 482.136 14.6422 481.92 15.5062 481.92C16.2862 481.92 16.9642 482.076 17.5402 482.388C18.1282 482.688 18.5962 483.066 18.9442 483.522V482.082H21.0142V492H18.9442V490.524C18.5962 490.992 18.1222 491.382 17.5222 491.694C16.9222 492.006 16.2382 492.162 15.4702 492.162C14.6182 492.162 13.8382 491.946 13.1302 491.514C12.4222 491.07 11.8582 490.458 11.4382 489.678C11.0302 488.886 10.8262 487.992 10.8262 486.996ZM18.9442 487.032C18.9442 486.348 18.8002 485.754 18.5122 485.25C18.2362 484.746 17.8702 484.362 17.4142 484.098C16.9582 483.834 16.4662 483.702 15.9382 483.702C15.4102 483.702 14.9182 483.834 14.4622 484.098C14.0062 484.35 13.6342 484.728 13.3462 485.232C13.0702 485.724 12.9322 486.312 12.9322 486.996C12.9322 487.68 13.0702 488.28 13.3462 488.796C13.6342 489.312 14.0062 489.708 14.4622 489.984C14.9302 490.248 15.4222 490.38 15.9382 490.38C16.4662 490.38 16.9582 490.248 17.4142 489.984C17.8702 489.72 18.2362 489.336 18.5122 488.832C18.8002 488.316 18.9442 487.716 18.9442 487.032ZM27.5434 490.164L30.3514 482.082H32.5294L28.7494 492H26.3014L22.5394 482.082H24.7354L27.5434 490.164ZM33.3965 486.996C33.3965 486 33.6005 485.118 34.0085 484.35C34.4285 483.582 34.9925 482.988 35.7005 482.568C36.4205 482.136 37.2125 481.92 38.0765 481.92C38.8565 481.92 39.5345 482.076 40.1105 482.388C40.6985 482.688 41.1665 483.066 41.5145 483.522V482.082H43.5845V492H41.5145V490.524C41.1665 490.992 40.6925 491.382 40.0925 491.694C39.4925 492.006 38.8085 492.162 38.0405 492.162C37.1885 492.162 36.4085 491.946 35.7005 491.514C34.9925 491.07 34.4285 490.458 34.0085 489.678C33.6005 488.886 33.3965 487.992 33.3965 486.996ZM41.5145 487.032C41.5145 486.348 41.3705 485.754 41.0825 485.25C40.8065 484.746 40.4405 484.362 39.9845 484.098C39.5285 483.834 39.0365 483.702 38.5085 483.702C37.9805 483.702 37.4885 483.834 37.0325 484.098C36.5765 484.35 36.2045 484.728 35.9165 485.232C35.6405 485.724 35.5025 486.312 35.5025 486.996C35.5025 487.68 35.6405 488.28 35.9165 488.796C36.2045 489.312 36.5765 489.708 37.0325 489.984C37.5005 490.248 37.9925 490.38 38.5085 490.38C39.0365 490.38 39.5285 490.248 39.9845 489.984C40.4405 489.72 40.8065 489.336 41.0825 488.832C41.3705 488.316 41.5145 487.716 41.5145 487.032ZM55.0775 492.126C54.2375 492.126 53.4815 491.982 52.8095 491.694C52.1375 491.394 51.6095 490.974 51.2255 490.434C50.8415 489.894 50.6495 489.264 50.6495 488.544H52.8455C52.8935 489.084 53.1035 489.528 53.4755 489.876C53.8595 490.224 54.3935 490.398 55.0775 490.398C55.7855 490.398 56.3375 490.23 56.7335 489.894C57.1295 489.546 57.3275 489.102 57.3275 488.562C57.3275 488.142 57.2015 487.8 56.9495 487.536C56.7095 487.272 56.4035 487.068 56.0315 486.924C55.6715 486.78 55.1675 486.624 54.5195 486.456C53.7035 486.24 53.0375 486.024 52.5215 485.808C52.0175 485.58 51.5855 485.232 51.2255 484.764C50.8655 484.296 50.6855 483.672 50.6855 482.892C50.6855 482.172 50.8655 481.542 51.2255 481.002C51.5855 480.462 52.0895 480.048 52.7375 479.76C53.3855 479.472 54.1355 479.328 54.9875 479.328C56.1995 479.328 57.1895 479.634 57.9575 480.246C58.7375 480.846 59.1695 481.674 59.2535 482.73H56.9855C56.9495 482.274 56.7335 481.884 56.3375 481.56C55.9415 481.236 55.4195 481.074 54.7715 481.074C54.1835 481.074 53.7035 481.224 53.3315 481.524C52.9595 481.824 52.7735 482.256 52.7735 482.82C52.7735 483.204 52.8875 483.522 53.1155 483.774C53.3555 484.014 53.6555 484.206 54.0155 484.35C54.3755 484.494 54.8675 484.65 55.4915 484.818C56.3195 485.046 56.9915 485.274 57.5075 485.502C58.0355 485.73 58.4795 486.084 58.8395 486.564C59.2115 487.032 59.3975 487.662 59.3975 488.454C59.3975 489.09 59.2235 489.69 58.8755 490.254C58.5395 490.818 58.0415 491.274 57.3815 491.622C56.7335 491.958 55.9655 492.126 55.0775 492.126ZM61.1348 487.032C61.1348 486.012 61.3388 485.118 61.7468 484.35C62.1668 483.57 62.7428 482.97 63.4748 482.55C64.2068 482.13 65.0468 481.92 65.9948 481.92C67.1948 481.92 68.1848 482.208 68.9648 482.784C69.7568 483.348 70.2908 484.158 70.5668 485.214H68.3528C68.1728 484.722 67.8848 484.338 67.4888 484.062C67.0928 483.786 66.5948 483.648 65.9948 483.648C65.1548 483.648 64.4828 483.948 63.9788 484.548C63.4868 485.136 63.2408 485.964 63.2408 487.032C63.2408 488.1 63.4868 488.934 63.9788 489.534C64.4828 490.134 65.1548 490.434 65.9948 490.434C67.1828 490.434 67.9688 489.912 68.3528 488.868H70.5668C70.2788 489.876 69.7388 490.68 68.9468 491.28C68.1548 491.868 67.1708 492.162 65.9948 492.162C65.0468 492.162 64.2068 491.952 63.4748 491.532C62.7428 491.1 62.1668 490.5 61.7468 489.732C61.3388 488.952 61.1348 488.052 61.1348 487.032ZM74.6637 483.522C74.9637 483.018 75.3597 482.628 75.8517 482.352C76.3557 482.064 76.9497 481.92 77.6337 481.92V484.044H77.1117C76.3077 484.044 75.6957 484.248 75.2757 484.656C74.8677 485.064 74.6637 485.772 74.6637 486.78V492H72.6117V482.082H74.6637V483.522ZM80.5639 480.768C80.1919 480.768 79.8799 480.642 79.6279 480.39C79.3759 480.138 79.2499 479.826 79.2499 479.454C79.2499 479.082 79.3759 478.77 79.6279 478.518C79.8799 478.266 80.1919 478.14 80.5639 478.14C80.9239 478.14 81.2299 478.266 81.4819 478.518C81.7339 478.77 81.8599 479.082 81.8599 479.454C81.8599 479.826 81.7339 480.138 81.4819 480.39C81.2299 480.642 80.9239 480.768 80.5639 480.768ZM81.5719 482.082V492H79.5199V482.082H81.5719ZM86.318 483.54C86.666 483.084 87.14 482.7 87.74 482.388C88.34 482.076 89.018 481.92 89.774 481.92C90.638 481.92 91.424 482.136 92.132 482.568C92.852 482.988 93.416 483.582 93.824 484.35C94.232 485.118 94.436 486 94.436 486.996C94.436 487.992 94.232 488.886 93.824 489.678C93.416 490.458 92.852 491.07 92.132 491.514C91.424 491.946 90.638 492.162 89.774 492.162C89.018 492.162 88.346 492.012 87.758 491.712C87.17 491.4 86.69 491.016 86.318 490.56V496.716H84.266V482.082H86.318V483.54ZM92.348 486.996C92.348 486.312 92.204 485.724 91.916 485.232C91.64 484.728 91.268 484.35 90.8 484.098C90.344 483.834 89.852 483.702 89.324 483.702C88.808 483.702 88.316 483.834 87.848 484.098C87.392 484.362 87.02 484.746 86.732 485.25C86.456 485.754 86.318 486.348 86.318 487.032C86.318 487.716 86.456 488.316 86.732 488.832C87.02 489.336 87.392 489.72 87.848 489.984C88.316 490.248 88.808 490.38 89.324 490.38C89.852 490.38 90.344 490.248 90.8 489.984C91.268 489.708 91.64 489.312 91.916 488.796C92.204 488.28 92.348 487.68 92.348 486.996ZM98.8592 483.756V489.246C98.8592 489.618 98.9432 489.888 99.1112 490.056C99.2912 490.212 99.5912 490.29 100.011 490.29H101.271V492H99.6512C98.7272 492 98.0192 491.784 97.5272 491.352C97.0352 490.92 96.7892 490.218 96.7892 489.246V483.756H95.6192V482.082H96.7892V479.616H98.8592V482.082H101.271V483.756H98.8592Z" fill="#FAFAFA"/>
<path d="M502 502H4C1.79086 502 0 503.791 0 506C0 508.209 1.79086 510 4 510H502C504.209 510 506 508.209 506 506C506 503.791 504.209 502 502 502Z" fill="#D9D9D9"/>
<path d="M0 506C0 503.791 1.79086 502 4 502H255V510H4C1.79086 510 0 508.209 0 506Z" fill="#CF9C63"/>
</svg>
